<svg xmlns="http://www.w3.org/2000/svg" viewBox="0 0 228.47 302.76"><defs><style>.cls-1{fill:#dead6b;}.cls-2{fill:#1a0f01;}</style></defs><g id="Layer_2" data-name="Layer 2"><g id="Layer_1-2" data-name="Layer 1"><path class="cls-1" d="M200,295.56c.1.9.1,1.9.2,2.8.1,1.7-.4,2-2,1.3-2.9-1.3-5.7-2.7-8.6-4-6.9-3-14.2-2.9-21.3-1.2-5.1,1.2-9.9,3.3-14.9,4.8a77.52,77.52,0,0,1-10.8,2.7c-9.8,1.8-17.9-1.7-24.9-8.4-2.4-2.3-2.4-2.4-4.6,0-8.1,8.7-18,10.8-29.2,8.1-7-1.7-13.8-3.8-20.7-5.7-9.2-2.5-18-2.1-26.4,2.8a40.86,40.86,0,0,1-4.7,2.3c-.5.2-1.4.4-1.8.1s-.3-1.1-.3-1.7a56.13,56.13,0,0,0-.1-5.8c-.4-2.2-1.3-2.7-3.5-2.4s-4.4,1.1-6.6,1.3a43.17,43.17,0,0,1-8.8.2c-4.9-.5-8.8-4.6-10.3-9.7a17.2,17.2,0,0,1,1.4-12.8c1.8-3.8,3.9-7.5,6-11.2.7-1.3.9-2.4-.2-3.5-1.5-1.7-3-3.5-4.6-5.1a2.22,2.22,0,0,1-.6-2.9c5-8.7,6.1-18.2,7.2-27.9a121.52,121.52,0,0,0-1.1-31.3c-.7-4.4-2.3-8.6-3.4-12.9-1-4-2.1-8-3-12a7.23,7.23,0,0,1,1.8-6.4c4.4-5.2,5.1-12.5,1.1-18-3-4-2.6-7.5-1-11.8,2.6-7,5.1-14.1,7-21.3,1.2-4.5,1.3-9.3,1.6-14,.7-10.3.2-20.5-3.1-30.4a74.72,74.72,0,0,0-3.9-8.7c-1.2-2.4-1.2-2.7.8-4.5.9-.8,1.8-1.5,2.6-2.3,2-1.9,2.2-3.6.7-6s-3.3-4.6-4.6-7.1c-3-5.7-2.4-11.4.5-16.9,1.9-3.6,5.5-4.8,9.2-5.6,4.1-.9,8.2-.2,12.2,1.1,2.6.8,3.7.1,3.7-2.7,0-1.7-.1-3.4-.2-5.1a2.93,2.93,0,0,1,.4-1.6c.1-.2.9.1,1.4.3,3.6,1.5,7.1,3.2,10.7,4.5,5.5,2.1,11.3,1.8,16.9.4,6.5-1.7,13-3.7,19.5-5.6,5.8-1.7,11.6-2.4,17.5-.6,4.8,1.5,8.6,4.6,12.2,7.8,2.1,1.8,2,1.9,4.1,0,9-8.9,19.6-10.9,31.4-7.2,5.7,1.8,11.4,3.8,17.1,5.5,7.2,2.2,14.3,1.3,21.2-1.5,2.6-1,5-2.4,7.5-3.5a2.79,2.79,0,0,1,1.8-.1c.3.1.3,1,.2,1.6-.1,1.7-.3,3.4-.3,5.1,0,2.2,1,3,3.2,2.7a40.21,40.21,0,0,0,5-1c7.5-1.7,14.2,1,17.7,7.3,3,5.4,1.9,10.7-.8,15.8a66.49,66.49,0,0,1-3.6,5.6c-1.7,2.6-1.2,5,1.2,7,.5.4,1.1.7,1.6,1.1,2.4,1.7,2.5,1.9,1.1,4.4a46.86,46.86,0,0,0-5.4,17.1c-1.1,10-1.6,20-.1,29.9.9,6.4,3.2,12.6,5,18.9,1.1,3.7,2.5,7.3,3.7,11a8.53,8.53,0,0,1-1.3,8,16.38,16.38,0,0,0,1,19.3,6.13,6.13,0,0,1,1.5,5.7c-1.1,4.7-2.1,9.4-3.6,14a72.09,72.09,0,0,0-3.6,28,210.92,210.92,0,0,0,2.3,22.6c1.2,7.1,3.3,14,7.7,19.9.7.9.4,1.6-.5,2.2l-2.4,1.8c-3.2,3-3.3,6-.7,9.5a64.27,64.27,0,0,1,5.2,8.3,20.16,20.16,0,0,1,1.8,6.8c.7,5.8-1.9,10.1-6.8,13.1a16.89,16.89,0,0,1-12.4,2.3c-1.9-.3-3.7-.8-5.5-1.2-2.3-.5-3.8.6-3.9,3-.1,1.1,0,2.1,0,3.2C199.86,295.56,199.86,295.56,200,295.56ZM33.26,192.16c-.4,26.2-.1,52.5.5,78.7,0,2.2.3,2.4,2.5,2.4,3.1,0,6.1-.1,9.2-.1l71.3-.6,76.1-.6c2.3,0,2.4-.2,2.3-2.4-.3-9.9-.5-19.9-.8-29.8q-1.5-46.8-2.9-93.7c-.7-27-1.2-54-1.9-81-.3-11.4-.6-22.8-.8-34.2,0-1.6-.6-2.3-2.2-2.2H37.26c-1.7,0-2.5.6-2.4,2.4.1,1.6,0,3.2,0,4.8-.4,38.4-.7,76.8-1.1,115.2Z"/><path class="cls-2" d="M67.66,104.66v-1.2c.6,0,1.1-.1,1.3-.4a1.6,1.6,0,0,0,.5-1,9.72,9.72,0,0,0,.1-1.8V87.46a3.08,3.08,0,0,1,.1-1,3.4,3.4,0,0,0-1,.1,3.08,3.08,0,0,0-1,.1v-1.5h6.8a9.76,9.76,0,0,1,5.2,1.2,3.9,3.9,0,0,1,1.8,3.7,3.37,3.37,0,0,1-.5,1.7,3.61,3.61,0,0,1-1.5,1.5,8.66,8.66,0,0,1-2.4,1v.1a6.59,6.59,0,0,1,4.5,1.6,4.48,4.48,0,0,1,1.5,3.4,4.86,4.86,0,0,1-.9,3,5.66,5.66,0,0,1-2.4,1.9,9,9,0,0,1-3.4.6h-8.7Zm4.9-1.4h2.9a4.77,4.77,0,0,0,3.2-1.1,3.72,3.72,0,0,0,1.1-3,4.63,4.63,0,0,0-.6-2.5,3.11,3.11,0,0,0-1.6-1.2,7.8,7.8,0,0,0-2.2-.4h-2.7v7A7.5,7.5,0,0,0,72.56,103.26Zm.1-9.4,1.8-.1a3.92,3.92,0,0,0,2.3-.6,2.89,2.89,0,0,0,1.2-1.5,4.22,4.22,0,0,0,.3-1.9,3.28,3.28,0,0,0-.6-2.1,3.07,3.07,0,0,0-1.5-1,5.08,5.08,0,0,0-1.7-.3,3.73,3.73,0,0,0-1.2.2,1.24,1.24,0,0,0-.6.8,6.27,6.27,0,0,0-.2,1.6v4.9Z"/><path class="cls-2" d="M93.46,104.66c0-.3-.1-.6-.1-.8a1.7,1.7,0,0,0-.1-.7,6.61,6.61,0,0,1-2,1.4,5.93,5.93,0,0,1-2.3.5,3.89,3.89,0,0,1-3-1,3.53,3.53,0,0,1-.2-4.7,6.42,6.42,0,0,1,2-1.6,10.71,10.71,0,0,1,2.7-.9,14.28,14.28,0,0,1,2.9-.3v-1.7a8.81,8.81,0,0,0-.2-1.7,2.39,2.39,0,0,0-.7-1.3,2.35,2.35,0,0,0-1.6-.5,4,4,0,0,0-1.5.3,1.82,1.82,0,0,0-1.1,1,2.19,2.19,0,0,1,.3.5,4.33,4.33,0,0,0,.1.5,1.61,1.61,0,0,1-.3.9,1.29,1.29,0,0,1-1.1.5,1.23,1.23,0,0,1-1-.5,2.1,2.1,0,0,1-.4-1.1,2.41,2.41,0,0,1,.7-1.8,5.61,5.61,0,0,1,2-1.2,8.85,8.85,0,0,1,2.9-.4,4.55,4.55,0,0,1,3.6,1.3,5.63,5.63,0,0,1,1.2,4v6.7a4.1,4.1,0,0,1-.1,1.1,3.75,3.75,0,0,0,1-.1h1v1.5h-4.7v.1Zm-.3-6.7a5.66,5.66,0,0,0-1.8.3,4.92,4.92,0,0,0-1.7.6,4,4,0,0,0-1.2,1,2.46,2.46,0,0,0-.5,1.5,1.68,1.68,0,0,0,.6,1.4,2.12,2.12,0,0,0,1.4.4,3.06,3.06,0,0,0,1.7-.4,7.17,7.17,0,0,0,1.5-1.1V98Z"/><path class="cls-2" d="M99.76,104.66v-1.2c.6,0,1-.1,1.2-.4a1.82,1.82,0,0,0,.4-1.1c0-.5.1-1,.1-1.6v-6.8a3.4,3.4,0,0,1,.1-1h-2v-1.5a11.52,11.52,0,0,0,2-.1,8.11,8.11,0,0,0,1.1-.3,1.27,1.27,0,0,0,.6-.4h1v1.6c.4-.3.9-.6,1.3-.9a4.71,4.71,0,0,1,1.5-.6,3.89,3.89,0,0,1,1.5-.2,4.09,4.09,0,0,1,3.6,1.5,8.35,8.35,0,0,1,1.1,4.7v5.7a4.48,4.48,0,0,1-.1,1.1H115v1.5h-6.2v-1.2c.6,0,1-.1,1.2-.4a1.82,1.82,0,0,0,.4-1.1c0-.5.1-1,.1-1.6v-3.9a6.75,6.75,0,0,0-.7-3.3,2.53,2.53,0,0,0-2.2-1.1,4.5,4.5,0,0,0-3.3,1.5v8.7a4.48,4.48,0,0,1-.1,1.1H106v1.5h-6.2v-.2Z"/><path class="cls-2" d="M125.26,104.66c0-.3-.1-.6-.1-.8a1.7,1.7,0,0,0-.1-.7,6.61,6.61,0,0,1-2,1.4,5.93,5.93,0,0,1-2.3.5,3.89,3.89,0,0,1-3-1,3.53,3.53,0,0,1-.2-4.7,6.42,6.42,0,0,1,2-1.6,10.71,10.71,0,0,1,2.7-.9,14.28,14.28,0,0,1,2.9-.3v-1.7a8.81,8.81,0,0,0-.2-1.7,2.39,2.39,0,0,0-.7-1.3,2.35,2.35,0,0,0-1.6-.5,4,4,0,0,0-1.5.3,1.82,1.82,0,0,0-1.1,1,2.19,2.19,0,0,1,.3.5,4.33,4.33,0,0,0,.1.5,1.61,1.61,0,0,1-.3.9,1.29,1.29,0,0,1-1.1.5,1.23,1.23,0,0,1-1-.5,2.1,2.1,0,0,1-.4-1.1,2.41,2.41,0,0,1,.7-1.8,5.61,5.61,0,0,1,2-1.2,8.85,8.85,0,0,1,2.9-.4,4.55,4.55,0,0,1,3.6,1.3,5.63,5.63,0,0,1,1.2,4v6.7a4.1,4.1,0,0,1-.1,1.1,3.75,3.75,0,0,0,1-.1h1v1.5h-4.7v.1ZM125,98a5.66,5.66,0,0,0-1.8.3,4.92,4.92,0,0,0-1.7.6,4,4,0,0,0-1.2,1,2.46,2.46,0,0,0-.5,1.5,1.68,1.68,0,0,0,.6,1.4,2.12,2.12,0,0,0,1.4.4,3.06,3.06,0,0,0,1.7-.4,7.17,7.17,0,0,0,1.5-1.1V98Z"/><path class="cls-2" d="M131.56,104.66v-1.2c.6,0,1-.1,1.2-.4a1.82,1.82,0,0,0,.4-1.1c0-.5.1-1,.1-1.6v-6.8a3.4,3.4,0,0,1,.1-1h-2v-1.5a11.52,11.52,0,0,0,2-.1,8.11,8.11,0,0,0,1.1-.3,1.27,1.27,0,0,0,.6-.4h1v1.6c.4-.3.9-.6,1.3-.9a4.71,4.71,0,0,1,1.5-.6,3.89,3.89,0,0,1,1.5-.2,4.09,4.09,0,0,1,3.6,1.5,8.35,8.35,0,0,1,1.1,4.7v5.7a4.48,4.48,0,0,1-.1,1.1h1.8v1.5h-6.2v-1.2c.6,0,1-.1,1.2-.4a1.82,1.82,0,0,0,.4-1.1c0-.5.1-1,.1-1.6v-3.9a6.75,6.75,0,0,0-.7-3.3,2.53,2.53,0,0,0-2.2-1.1,4.5,4.5,0,0,0-3.3,1.5v8.7a4.48,4.48,0,0,1-.1,1.1h1.8v1.5h-6.2v-.2Z"/><path class="cls-2" d="M157.06,104.66c0-.3-.1-.6-.1-.8a1.7,1.7,0,0,0-.1-.7,6.61,6.61,0,0,1-2,1.4,5.93,5.93,0,0,1-2.3.5,3.89,3.89,0,0,1-3-1,3.53,3.53,0,0,1-.2-4.7,6.42,6.42,0,0,1,2-1.6,10.71,10.71,0,0,1,2.7-.9,14.28,14.28,0,0,1,2.9-.3v-1.7a8.81,8.81,0,0,0-.2-1.7,2.39,2.39,0,0,0-.7-1.3,2.35,2.35,0,0,0-1.6-.5,4,4,0,0,0-1.5.3,1.82,1.82,0,0,0-1.1,1,2.19,2.19,0,0,1,.3.5,4.33,4.33,0,0,0,.1.5,1.61,1.61,0,0,1-.3.9,1.29,1.29,0,0,1-1.1.5,1.23,1.23,0,0,1-1-.5,2.1,2.1,0,0,1-.4-1.1,2.41,2.41,0,0,1,.7-1.8,5.61,5.61,0,0,1,2-1.2,8.85,8.85,0,0,1,2.9-.4,4.55,4.55,0,0,1,3.6,1.3,5.63,5.63,0,0,1,1.2,4v6.7a4.1,4.1,0,0,1-.1,1.1,3.75,3.75,0,0,0,1-.1h1v1.5h-4.7v.1Zm-.3-6.7a5.66,5.66,0,0,0-1.8.3,4.92,4.92,0,0,0-1.7.6,4,4,0,0,0-1.2,1,2.46,2.46,0,0,0-.5,1.5,1.68,1.68,0,0,0,.6,1.4,2.12,2.12,0,0,0,1.4.4,3.06,3.06,0,0,0,1.7-.4,7.17,7.17,0,0,0,1.5-1.1V98Z"/><path class="cls-2" d="M69.56,183.46a2,2,0,0,0,1.3-.4,1.6,1.6,0,0,0,.5-1,8.12,8.12,0,0,0,.1-1.7v-12.8a3.08,3.08,0,0,1,.1-1,3.4,3.4,0,0,0-1,.1,3.08,3.08,0,0,0-1,.1v-1.5h6.9a14.86,14.86,0,0,1,4.5.6,5.82,5.82,0,0,1,2.8,1.9,4.72,4.72,0,0,1,1,3.2,6.56,6.56,0,0,1-.4,2.3,7.44,7.44,0,0,1-1.4,2.2,7.18,7.18,0,0,1-2.7,1.6,13.09,13.09,0,0,1-4.3.6h-1.3v4.9a3.08,3.08,0,0,1-.1,1,2.2,2.2,0,0,0,.8-.1h1.7v1.6h-7.4l-.1-1.6Zm4.9-7.5c.3,0,.6.1.8.1h.8a6.39,6.39,0,0,0,2.8-.6,5.19,5.19,0,0,0,1.9-1.7,4.53,4.53,0,0,0,.7-2.7,5.56,5.56,0,0,0-.4-2.3,3.14,3.14,0,0,0-1.1-1.4,4.59,4.59,0,0,0-1.6-.7,12.31,12.31,0,0,0-2-.2,1.74,1.74,0,0,0-1.2.3,1.6,1.6,0,0,0-.5,1,8.12,8.12,0,0,0-.1,1.7l-.1,6.5Z"/><path class="cls-2" d="M93.26,185.16a6.76,6.76,0,0,1-3.5-.9,7,7,0,0,1-2.5-2.6,8.47,8.47,0,0,1,0-7.6,6.78,6.78,0,0,1,2.5-2.8,6.71,6.71,0,0,1,3.7-1.1,5.38,5.38,0,0,1,2.2.4,5.24,5.24,0,0,1,1.9,1.1,4.64,4.64,0,0,1,1.3,2,8.53,8.53,0,0,1,.5,3l-9.6.2a11.76,11.76,0,0,0,.4,3.4,4.75,4.75,0,0,0,1.4,2.3,3.94,3.94,0,0,0,2.5.8,5,5,0,0,0,1.6-.3,4.81,4.81,0,0,0,1.6-.8,4.89,4.89,0,0,0,1.3-1.2l.9.8a9.13,9.13,0,0,1-1.9,2,7.17,7.17,0,0,1-2.2,1A8.81,8.81,0,0,1,93.26,185.16Zm-3.5-9.8h6.5a5.82,5.82,0,0,0-.3-1.9,3.39,3.39,0,0,0-.9-1.4,2.54,2.54,0,0,0-1.6-.5,3.24,3.24,0,0,0-2.4.9A7.09,7.09,0,0,0,89.76,175.36Z"/><path class="cls-2" d="M110,184.66c0-.3-.1-.6-.1-.8a1.7,1.7,0,0,0-.1-.7,6.61,6.61,0,0,1-2,1.4,5.93,5.93,0,0,1-2.3.5,3.89,3.89,0,0,1-3-1,3.53,3.53,0,0,1-.2-4.7,6.42,6.42,0,0,1,2-1.6,10.71,10.71,0,0,1,2.7-.9,14.28,14.28,0,0,1,2.9-.3v-1.7a8.81,8.81,0,0,0-.2-1.7,2.39,2.39,0,0,0-.7-1.3,2.35,2.35,0,0,0-1.6-.5,4,4,0,0,0-1.5.3,1.82,1.82,0,0,0-1.1,1,2.19,2.19,0,0,1,.3.5,4.33,4.33,0,0,0,.1.5,1.61,1.61,0,0,1-.3.9,1.29,1.29,0,0,1-1.1.5,1.23,1.23,0,0,1-1-.5,2.1,2.1,0,0,1-.4-1.1,2.41,2.41,0,0,1,.7-1.8,5.61,5.61,0,0,1,2-1.2,8.85,8.85,0,0,1,2.9-.4,4.55,4.55,0,0,1,3.6,1.3,5.63,5.63,0,0,1,1.2,4v6.7a4.1,4.1,0,0,1-.1,1.1,3.75,3.75,0,0,0,1-.1h1v1.5H110v.1Zm-.3-6.7a5.66,5.66,0,0,0-1.8.3,4.92,4.92,0,0,0-1.7.6,4,4,0,0,0-1.2,1,2.46,2.46,0,0,0-.5,1.5,1.68,1.68,0,0,0,.6,1.4,2.12,2.12,0,0,0,1.4.4,3.06,3.06,0,0,0,1.7-.4,7.17,7.17,0,0,0,1.5-1.1V178Z"/><path class="cls-2" d="M116.16,184.66v-1.2c.6,0,1-.1,1.2-.4a1.82,1.82,0,0,0,.4-1.1c0-.5.1-1,.1-1.6v-6.8a3.4,3.4,0,0,1,.1-1h-2v-1.5a11.52,11.52,0,0,0,2-.1,8.11,8.11,0,0,0,1.1-.3,1.27,1.27,0,0,0,.6-.4h1v1.6c.4-.3.9-.6,1.3-.9a4.71,4.71,0,0,1,1.5-.6,3.89,3.89,0,0,1,1.5-.2,4.09,4.09,0,0,1,3.6,1.5,8.35,8.35,0,0,1,1.1,4.7v5.7a4.48,4.48,0,0,1-.1,1.1h1.8v1.5h-6.2v-1.2c.6,0,1-.1,1.2-.4a1.82,1.82,0,0,0,.4-1.1c0-.5.1-1,.1-1.6v-3.9a6.75,6.75,0,0,0-.7-3.3,2.53,2.53,0,0,0-2.2-1.1,4.5,4.5,0,0,0-3.3,1.5v8.7a4.48,4.48,0,0,1-.1,1.1h1.8v1.5h-6.2v-.2Z"/><path class="cls-2" d="M139.36,185.16a5.26,5.26,0,0,1-2.6-.6,3.24,3.24,0,0,1-1.5-1.9,11.52,11.52,0,0,1-.5-3.6v-5.4a3.4,3.4,0,0,1,.1-1h-2v-1.5h.7a5.84,5.84,0,0,0,2.1-.3,3,3,0,0,0,1-.5h1.1v8.5a6.91,6.91,0,0,0,.6,3.3,2.25,2.25,0,0,0,2.1,1.1,3.23,3.23,0,0,0,1.8-.6,4.42,4.42,0,0,0,1.4-1.3v-7.8c0-.4.1-.7.1-1h-2v-1.5h.8a4.7,4.7,0,0,0,1.9-.3,4.61,4.61,0,0,0,1-.5h1.1v11.5a6.15,6.15,0,0,1-.1,1.4,3.75,3.75,0,0,0,1-.1h1v1.5H144c0-.3-.1-.6-.1-.8s-.1-.5-.1-.8a14.29,14.29,0,0,1-2,1.4A3.84,3.84,0,0,1,139.36,185.16Z"/><path class="cls-2" d="M155.76,185.16a6.75,6.75,0,0,1-1.4-.2,3.29,3.29,0,0,1-1.3-.7,3.54,3.54,0,0,1-.9-1.6,10.06,10.06,0,0,1-.3-2.7l.1-7.6h-2.1v-1.6a2.4,2.4,0,0,0,1.5-.6,6.2,6.2,0,0,0,1.4-1.4,4.55,4.55,0,0,0,.8-1.9h1.3v3.9h4.3v1.5l-4.3.1-.1,7.5a11.08,11.08,0,0,0,.2,1.9,2.28,2.28,0,0,0,.6,1.2,1.59,1.59,0,0,0,1.2.4,2.2,2.2,0,0,0,1.3-.4,4,4,0,0,0,1.3-1.3l1,.8a5,5,0,0,1-1.3,1.5,3.07,3.07,0,0,1-1.3.8,2.61,2.61,0,0,1-1.1.3C156.36,185.06,156,185.16,155.76,185.16Z"/><path class="cls-2" d="M73.36,214.66v-1.2c.6,0,1.1-.1,1.3-.4a1.6,1.6,0,0,0,.5-1,9.72,9.72,0,0,0,.1-1.8v-12.8a3.08,3.08,0,0,1,.1-1,3.4,3.4,0,0,0-1,.1,3.08,3.08,0,0,0-1,.1v-1.5h6.8a9.76,9.76,0,0,1,5.2,1.2,3.9,3.9,0,0,1,1.8,3.7,3.37,3.37,0,0,1-.5,1.7,3.61,3.61,0,0,1-1.5,1.5,8.66,8.66,0,0,1-2.4,1v.1a6.59,6.59,0,0,1,4.5,1.6,4.48,4.48,0,0,1,1.5,3.4,4.86,4.86,0,0,1-.9,3,5.66,5.66,0,0,1-2.4,1.9,9,9,0,0,1-3.4.6h-8.7Zm4.8-1.4h2.9a4.77,4.77,0,0,0,3.2-1.1,3.72,3.72,0,0,0,1.1-3,4.63,4.63,0,0,0-.6-2.5,3.11,3.11,0,0,0-1.6-1.2,7.8,7.8,0,0,0-2.2-.4h-2.7v7A3.14,3.14,0,0,1,78.16,213.26Zm.1-9.4,1.8-.1a3.92,3.92,0,0,0,2.3-.6,2.89,2.89,0,0,0,1.2-1.5,4.22,4.22,0,0,0,.3-1.9,3.28,3.28,0,0,0-.6-2.1,3.07,3.07,0,0,0-1.5-1,5.08,5.08,0,0,0-1.7-.3,3.73,3.73,0,0,0-1.2.2,1.24,1.24,0,0,0-.6.8,6.27,6.27,0,0,0-.2,1.6v4.9Z"/><path class="cls-2" d="M96.76,215.16a5.26,5.26,0,0,1-2.6-.6,3.24,3.24,0,0,1-1.5-1.9,11.52,11.52,0,0,1-.5-3.6v-5.4a3.4,3.4,0,0,1,.1-1h-2v-1.5H91a5.84,5.84,0,0,0,2.1-.3,3,3,0,0,0,1-.5h1.1v8.5a6.91,6.91,0,0,0,.6,3.3,2.25,2.25,0,0,0,2.1,1.1,3.23,3.23,0,0,0,1.8-.6,4.42,4.42,0,0,0,1.4-1.3v-7.8c0-.4.1-.7.1-1h-2v-1.5h.8a4.7,4.7,0,0,0,1.9-.3,4.61,4.61,0,0,0,1-.5H104v11.5a6.15,6.15,0,0,1-.1,1.4,3.75,3.75,0,0,0,1-.1h1v1.5h-4.5c0-.3-.1-.6-.1-.8s-.1-.5-.1-.8a14.29,14.29,0,0,1-2,1.4A3.84,3.84,0,0,1,96.76,215.16Z"/><path class="cls-2" d="M113.16,215.16a6.75,6.75,0,0,1-1.4-.2,3.29,3.29,0,0,1-1.3-.7,3.54,3.54,0,0,1-.9-1.6,10.06,10.06,0,0,1-.3-2.7l.1-7.6h-2.1v-1.6a2.4,2.4,0,0,0,1.5-.6,6.2,6.2,0,0,0,1.4-1.4,4.55,4.55,0,0,0,.8-1.9h1.3v3.9h4.3v1.5l-4.3.1-.1,7.5a11.08,11.08,0,0,0,.2,1.9,2.28,2.28,0,0,0,.6,1.2,1.59,1.59,0,0,0,1.2.4,2.2,2.2,0,0,0,1.3-.4,4,4,0,0,0,1.3-1.3l1,.8a5,5,0,0,1-1.3,1.5,3.07,3.07,0,0,1-1.3.8,2.61,2.61,0,0,1-1.1.3C113.76,215.06,113.36,215.16,113.16,215.16Z"/><path class="cls-2" d="M124.16,215.16a6.75,6.75,0,0,1-1.4-.2,3.29,3.29,0,0,1-1.3-.7,3.54,3.54,0,0,1-.9-1.6,10.06,10.06,0,0,1-.3-2.7l.1-7.6h-2.1v-1.6a2.4,2.4,0,0,0,1.5-.6,6.2,6.2,0,0,0,1.4-1.4,4.55,4.55,0,0,0,.8-1.9h1.3v3.9h4.3v1.5l-4.3.1-.1,7.5a11.08,11.08,0,0,0,.2,1.9,2.28,2.28,0,0,0,.6,1.2,1.59,1.59,0,0,0,1.2.4,2.2,2.2,0,0,0,1.3-.4,4,4,0,0,0,1.3-1.3l1,.8a5,5,0,0,1-1.3,1.5,3.07,3.07,0,0,1-1.3.8,2.61,2.61,0,0,1-1.1.3C124.76,215.06,124.36,215.16,124.16,215.16Z"/><path class="cls-2" d="M136.66,215.16a6.76,6.76,0,0,1-3.5-.9,7,7,0,0,1-2.5-2.6,8.47,8.47,0,0,1,0-7.6,6.78,6.78,0,0,1,2.5-2.8,6.71,6.71,0,0,1,3.7-1.1,5.38,5.38,0,0,1,2.2.4,5.24,5.24,0,0,1,1.9,1.1,4.64,4.64,0,0,1,1.3,2,8.53,8.53,0,0,1,.5,3l-9.6.2a11.76,11.76,0,0,0,.4,3.4,4.75,4.75,0,0,0,1.4,2.3,3.94,3.94,0,0,0,2.5.8,5,5,0,0,0,1.6-.3,4.81,4.81,0,0,0,1.6-.8,4.89,4.89,0,0,0,1.3-1.2l.9.8a9.13,9.13,0,0,1-1.9,2,7.17,7.17,0,0,1-2.2,1A8.81,8.81,0,0,1,136.66,215.16Zm-3.4-9.8h6.5a5.82,5.82,0,0,0-.3-1.9,3.39,3.39,0,0,0-.9-1.4,2.54,2.54,0,0,0-1.6-.5,3.24,3.24,0,0,0-2.4.9A5.2,5.2,0,0,0,133.26,205.36Z"/><path class="cls-2" d="M145.06,213.56c.6,0,1-.1,1.2-.4a1.82,1.82,0,0,0,.4-1.1c0-.5.1-1,.1-1.6v-6.8a3.4,3.4,0,0,1,.1-1h-2v-1.5h1a4.18,4.18,0,0,0,1.8-.3,3.6,3.6,0,0,0,.9-.5h1c0,.3.1.6.1,1.1a9.15,9.15,0,0,0,.1,1.6,17.41,17.41,0,0,1,1.2-1.4,4.92,4.92,0,0,1,1.5-1,3.29,3.29,0,0,1,1.7-.4,2.46,2.46,0,0,1,1.5.5,1.75,1.75,0,0,1,.6,1.5,1.42,1.42,0,0,1-.2.6,1.47,1.47,0,0,1-.5.6,1.9,1.9,0,0,1-.9.3,1.78,1.78,0,0,1-1-.4,1.37,1.37,0,0,1-.4-1.1,2.2,2.2,0,0,0-1.3.4,4.15,4.15,0,0,0-1.2,1.1c-.3.5-.7.9-1,1.5v7.1a4.48,4.48,0,0,1-.1,1.1h1.8V215h-6.3l-.1-1.4Z"/></g></g></svg>