<svg xmlns="http://www.w3.org/2000/svg" viewBox="0 0 413.24 312.35"><defs><style>.cls-1{fill:#5f9bc3;}.cls-2{fill:#1a0f01;}</style></defs><g id="Layer_2" data-name="Layer 2"><g id="Layer_1-2" data-name="Layer 1"><path class="cls-1" d="M10.06,273.61c-1.3.1-2.6.2-3.9.2-2.4.1-2.7-.6-1.8-2.7,1.8-3.9,3.7-7.8,5.4-11.8,4.1-9.5,4-19.4,1.6-29.1-1.7-6.9-4.5-13.6-6.5-20.4a121.57,121.57,0,0,1-3.7-14.7c-2.4-13.4,2.3-24.5,11.4-34,3.2-3.3,3.3-3.3,0-6.4-11.9-11-14.7-24.7-11.1-39.9,2.3-9.5,5.2-18.9,7.8-28.3,3.5-12.5,2.9-24.6-3.9-36.1-1.2-2.1-2.2-4.3-3.2-6.5a3.66,3.66,0,0,1-.2-2.5c.3-.5,1.5-.4,2.4-.4,2.6-.1,5.3.2,7.9-.2,3-.5,3.7-1.8,3.2-4.8s-1.5-6-1.8-9a60.21,60.21,0,0,1-.3-12c.6-6.6,6.3-12.1,13.2-14.1,6.2-1.8,12-.8,17.5,1.9,5.2,2.5,10.3,5.3,15.3,8.2,1.8,1,3.2,1.2,4.8-.2,2.3-2.1,4.8-4,7-6.3,1.3-1.3,2.5-1.7,4-.8,11.8,6.8,24.9,8.3,38.2,9.8,14.4,1.6,28.6.7,42.8-1.5,6-.9,11.8-3.1,17.7-4.7,5.4-1.4,10.9-2.9,16.4-4.1a10,10,0,0,1,8.7,2.4c7.2,6,17,7,24.6,1.5,5.5-4,10.3-3.6,16.1-1.4a291.36,291.36,0,0,0,29.1,9.6c6.1,1.6,12.7,1.8,19.1,2.2,14,.9,28,.2,41.5-4.2A83.34,83.34,0,0,0,341.16,8c3.3-1.6,3.7-1.7,6.1,1.1,1.1,1.2,2.1,2.4,3.2,3.6,2.6,2.7,4.9,3,8.1.9s6.3-4.4,9.7-6.2c7.8-4.1,15.6-3.3,23.1.7,4.9,2.6,6.6,7.5,7.7,12.5,1.2,5.7.3,11.2-1.5,16.6-1.1,3.5-.1,5,3.6,5.1,2.3,0,4.7-.2,7-.2a3.7,3.7,0,0,1,2.1.6c.2.2-.2,1.3-.4,1.9-2.1,4.9-4.3,9.7-6.2,14.6-2.9,7.6-2.4,15.4-.5,23,2.3,9,5.1,17.8,7.7,26.6,2.4,7.9,3.3,15.9.8,24-2,6.6-6.3,11.7-10.7,16.7-2.5,2.8-2.7,2.8.1,5.6,12.1,12.3,14.8,26.8,9.8,42.9-2.4,7.8-5.2,15.6-7.6,23.4-3,9.9-1.8,19.6,2,29,1.4,3.5,3.2,6.8,4.8,10.3a3.34,3.34,0,0,1,.1,2.4c-.2.4-1.4.4-2.2.3-2.3-.1-4.6-.4-7-.4-2.9,0-4.1,1.4-3.7,4.3.3,2.3.8,4.6,1.3,6.9,2.3,10.2-1.4,19.4-10,24.2-7.4,4.1-14.6,2.5-21.6-1.1-2.7-1.4-5.1-3.3-7.7-5-3.6-2.3-6.9-1.7-9.6,1.6a17,17,0,0,0-1.5,2.2c-2.3,3.3-2.6,3.4-6,1.6a64.2,64.2,0,0,0-23.3-7.4c-13.6-1.5-27.4-2.1-40.9-.2-8.7,1.3-17.2,4.4-25.8,6.8-5.1,1.5-10,3.4-15.1,5.1a11.34,11.34,0,0,1-10.9-1.8c-7.7-5.4-19.3-4.7-26.4,1.4a8.47,8.47,0,0,1-7.8,2c-6.4-1.5-12.9-2.8-19.1-4.9a97.74,97.74,0,0,0-38.3-4.9c-10.3.7-20.7,1.4-30.9,3.1-9.7,1.6-19.1,4.5-27.2,10.5-1.3,1-2.2.6-3-.6a39.19,39.19,0,0,0-2.5-3.2c-4.1-4.4-8.2-4.5-13-1a74.78,74.78,0,0,1-11.4,7.1,26.79,26.79,0,0,1-9.2,2.5c-7.9.9-13.8-2.6-17.9-9.3a23.87,23.87,0,0,1-3.2-16.9c.4-2.5,1.1-5,1.7-7.5.7-3.1-.9-5.2-4.1-5.4-1.4-.1-2.9,0-4.3,0C10.06,273.51,10.06,273.51,10.06,273.61Zm141.4-227.8c-35.9-.6-71.7-.2-107.6.6-2.9.1-3.3.4-3.3,3.4,0,4.2.1,8.4.1,12.5.3,32.5.5,65,.8,97.5.3,34.7.6,69.3.9,104,0,3.1.2,3.3,3.3,3.2,13.6-.4,27.2-.7,40.7-1.2,42.7-1.3,85.3-2.8,128-4,36.9-1,73.8-1.7,110.7-2.5,15.6-.4,31.2-.8,46.8-1.1,2.2,0,3.1-.8,3-3a19.22,19.22,0,0,1,0-2.4V51.11c0-2.4-.8-3.4-3.2-3.3-2.2.1-4.3,0-6.5,0l-157.5-1.5Z"/><path class="cls-2" d="M102.26,119.31v-1.2c.6,0,1.1-.1,1.3-.4a1.6,1.6,0,0,0,.5-1,9.72,9.72,0,0,0,.1-1.8v-12.8a3.08,3.08,0,0,1,.1-1,3.4,3.4,0,0,0-1,.1,3.08,3.08,0,0,0-1,.1v-1.5h6.8a9.76,9.76,0,0,1,5.2,1.2,3.9,3.9,0,0,1,1.8,3.7,3.37,3.37,0,0,1-.5,1.7,3.61,3.61,0,0,1-1.5,1.5,8.66,8.66,0,0,1-2.4,1v.1a6.59,6.59,0,0,1,4.5,1.6,4.48,4.48,0,0,1,1.5,3.4,4.86,4.86,0,0,1-.9,3,5.66,5.66,0,0,1-2.4,1.9,9,9,0,0,1-3.4.6h-8.7v-.2Zm4.9-1.4h2.9a4.77,4.77,0,0,0,3.2-1.1,3.72,3.72,0,0,0,1.1-3,4.63,4.63,0,0,0-.6-2.5,3.11,3.11,0,0,0-1.6-1.2,7.8,7.8,0,0,0-2.2-.4h-2.7v7A6.82,6.82,0,0,0,107.16,117.91Zm.1-9.4,1.8-.1a3.92,3.92,0,0,0,2.3-.6,2.89,2.89,0,0,0,1.2-1.5,4.22,4.22,0,0,0,.3-1.9,3.28,3.28,0,0,0-.6-2.1,3.07,3.07,0,0,0-1.5-1,5.08,5.08,0,0,0-1.7-.3,3.73,3.73,0,0,0-1.2.2,1,1,0,0,0-.6.8,6.27,6.27,0,0,0-.2,1.6v4.9Z"/><path class="cls-2" d="M119.46,118.11c.6,0,1-.1,1.2-.4a1.82,1.82,0,0,0,.4-1.1c0-.5.1-1,.1-1.6v-13.7a3.4,3.4,0,0,1,.1-1h-2v-1.5a11.52,11.52,0,0,0,2-.1,5.31,5.31,0,0,0,1.1-.3.92.92,0,0,0,.6-.4h1.1v18.7a3.4,3.4,0,0,1-.1,1h1.8v1.5h-6.2l-.1-1.1Z"/><path class="cls-2" d="M136.06,119.31c0-.3-.1-.6-.1-.8a1.7,1.7,0,0,0-.1-.7,6.61,6.61,0,0,1-2,1.4,5.93,5.93,0,0,1-2.3.5,3.89,3.89,0,0,1-3-1,3.53,3.53,0,0,1-.2-4.7,6.42,6.42,0,0,1,2-1.6,10.71,10.71,0,0,1,2.7-.9,14.28,14.28,0,0,1,2.9-.3v-1.7a8.81,8.81,0,0,0-.2-1.7,2.39,2.39,0,0,0-.7-1.3,2.35,2.35,0,0,0-1.6-.5,4,4,0,0,0-1.5.3,1.82,1.82,0,0,0-1.1,1,2.19,2.19,0,0,1,.3.5,1.09,1.09,0,0,1,.1.5,1.61,1.61,0,0,1-.3.9,1.29,1.29,0,0,1-1.1.5,1.23,1.23,0,0,1-1-.5,2.1,2.1,0,0,1-.4-1.1,2.41,2.41,0,0,1,.7-1.8,5.61,5.61,0,0,1,2-1.2,8.85,8.85,0,0,1,2.9-.4,4.55,4.55,0,0,1,3.6,1.3,5.63,5.63,0,0,1,1.2,4v6.7a4.1,4.1,0,0,1-.1,1.1,3.75,3.75,0,0,0,1-.1,3.33,3.33,0,0,1,1,0v1.5h-4.7v.1Zm-.3-6.7a5.66,5.66,0,0,0-1.8.3,4.92,4.92,0,0,0-1.7.6,4,4,0,0,0-1.2,1,2.46,2.46,0,0,0-.5,1.5,1.68,1.68,0,0,0,.6,1.4,2.12,2.12,0,0,0,1.4.4,3.06,3.06,0,0,0,1.7-.4,13,13,0,0,0,1.5-1v-3.8Z"/><path class="cls-2" d="M149.06,119.71a6.4,6.4,0,0,1-3.4-.9,6.67,6.67,0,0,1-2.5-2.5,8,8,0,0,1-.9-3.9,9.29,9.29,0,0,1,.5-2.9,7.93,7.93,0,0,1,1.5-2.5,6.58,6.58,0,0,1,2.3-1.7,7.31,7.31,0,0,1,3-.6,7.78,7.78,0,0,1,2.8.5,4.2,4.2,0,0,1,1.8,1.3,2.79,2.79,0,0,1,.6,1.8,1.92,1.92,0,0,1-.4,1.2,1.43,1.43,0,0,1-1.1.5c-.5,0-.9-.1-1.1-.5a1.93,1.93,0,0,1-.3-1,1.27,1.27,0,0,1,.1-.6l.3-.6a1.6,1.6,0,0,0-.7-.9,4.18,4.18,0,0,0-1-.4,3.44,3.44,0,0,0-.9-.1,3.65,3.65,0,0,0-2.9,1.5,6.38,6.38,0,0,0-1.2,4.2,9.59,9.59,0,0,0,.5,3.1,5.74,5.74,0,0,0,1.5,2.2,4.07,4.07,0,0,0,2.4.8,4.2,4.2,0,0,0,2.4-.7,7.72,7.72,0,0,0,1.9-1.7l.9.8a7.28,7.28,0,0,1-1.9,2,6.7,6.7,0,0,1-2.1,1A9.65,9.65,0,0,1,149.06,119.71Z"/><path class="cls-2" d="M156.76,119.31v-1.2a1.46,1.46,0,0,0,1.2-.4,2.82,2.82,0,0,0,.4-1.1c0-.5.1-1,.1-1.6v-13.7a3.4,3.4,0,0,1,.1-1h-2v-1.5a11.52,11.52,0,0,0,2-.1,10.38,10.38,0,0,0,1.2-.3.92.92,0,0,0,.6-.4h1.1v13.2h1.2l2.9-3.2.8-.8a4.35,4.35,0,0,1,.7-.6l-1.8.1v-1.5h5.5v1.1a5.46,5.46,0,0,0-1.8.6,7.55,7.55,0,0,0-1.4,1.1l-1.1,1.1-2.1,2.2a3.49,3.49,0,0,1,.9.6,8.74,8.74,0,0,1,.8,1l2,2.5a7.37,7.37,0,0,0,.5.6,10.25,10.25,0,0,0,1.7,1.7,1.61,1.61,0,0,0,.9.3v1.2h-2.8a2.24,2.24,0,0,1-1.5-.8,14.28,14.28,0,0,1-1.5-1.8c-.4-.6-.9-1.2-1.2-1.7s-.7-1-1-1.4a11.49,11.49,0,0,0-.8-1l-1,.1v4.2a3.4,3.4,0,0,1-.1,1h1.8v1.5Z"/><path class="cls-2" d="M180.26,119.31v-1.2a2,2,0,0,0,1.3-.4,1.6,1.6,0,0,0,.5-1,8.12,8.12,0,0,0,.1-1.7v-12.8a3.08,3.08,0,0,1,.1-1,3.4,3.4,0,0,0-1,.1,3.08,3.08,0,0,0-1,.1v-1.5h6.9a12.69,12.69,0,0,1,4.3.6,5.54,5.54,0,0,1,2.6,1.8,4.82,4.82,0,0,1,.8,3,5.7,5.7,0,0,1-.4,2.2,4.89,4.89,0,0,1-1.6,2,7.43,7.43,0,0,1-3.1,1.3,2.84,2.84,0,0,1,1,.9,14.63,14.63,0,0,1,.9,1.3l1.7,2.6c.4.6.7,1,1,1.4a2.84,2.84,0,0,0,1,.9,2.77,2.77,0,0,0,1.3.3v1.2h-3.9a7.1,7.1,0,0,1-1.2-1.3c-.3-.5-.7-1-1.1-1.6l-1.9-3.1a8.34,8.34,0,0,0-.8-1.2,10.63,10.63,0,0,0-.9-1.1h-1.8v6a3.08,3.08,0,0,1-.1,1h2.2v1.5h-6.9v-.3Zm6.6-9.7a6.69,6.69,0,0,0,2.6-.5,3.91,3.91,0,0,0,1.7-1.4,4.63,4.63,0,0,0,.6-2.5,5,5,0,0,0-.3-1.9,3.05,3.05,0,0,0-1-1.3,3.48,3.48,0,0,0-1.5-.7,11,11,0,0,0-1.8-.2,2.27,2.27,0,0,0-1.3.3,1.6,1.6,0,0,0-.5,1,8.12,8.12,0,0,0-.1,1.7v5.5a2.2,2.2,0,0,1,.8.1A2,2,0,0,1,186.86,109.61Z"/><path class="cls-2" d="M206.36,119.31c0-.3-.1-.6-.1-.8a1.7,1.7,0,0,0-.1-.7,6.61,6.61,0,0,1-2,1.4,5.93,5.93,0,0,1-2.3.5,3.89,3.89,0,0,1-3-1,3.53,3.53,0,0,1-.2-4.7,6.42,6.42,0,0,1,2-1.6,10.71,10.71,0,0,1,2.7-.9,14.28,14.28,0,0,1,2.9-.3v-1.7a8.81,8.81,0,0,0-.2-1.7,2.39,2.39,0,0,0-.7-1.3,2.35,2.35,0,0,0-1.6-.5,4,4,0,0,0-1.5.3,1.82,1.82,0,0,0-1.1,1,2.19,2.19,0,0,1,.3.5,1.09,1.09,0,0,1,.1.5,1.61,1.61,0,0,1-.3.9,1.29,1.29,0,0,1-1.1.5,1.23,1.23,0,0,1-1-.5,2.1,2.1,0,0,1-.4-1.1,2.41,2.41,0,0,1,.7-1.8,5.61,5.61,0,0,1,2-1.2,8.85,8.85,0,0,1,2.9-.4A4.55,4.55,0,0,1,208,106a5.63,5.63,0,0,1,1.2,4v6.7a4.1,4.1,0,0,1-.1,1.1,3.75,3.75,0,0,0,1-.1,3.33,3.33,0,0,1,1,0v1.5h-4.7v.1Zm-.2-6.7a5.66,5.66,0,0,0-1.8.3,4.92,4.92,0,0,0-1.7.6,4,4,0,0,0-1.2,1,2.46,2.46,0,0,0-.5,1.5,1.68,1.68,0,0,0,.6,1.4,2.12,2.12,0,0,0,1.4.4,3.06,3.06,0,0,0,1.7-.4,13,13,0,0,0,1.5-1v-3.8Z"/><path class="cls-2" d="M218.56,119.71a6.05,6.05,0,0,1-2.4-.4,7.5,7.5,0,0,1-1.8-.8l.1.9H213l-.1-4.8h1.2a4.24,4.24,0,0,0,.6,1.9,3.74,3.74,0,0,0,1.5,1.3,4.55,4.55,0,0,0,2,.5,6.88,6.88,0,0,0,1.3-.2,2.42,2.42,0,0,0,1-.6,1.37,1.37,0,0,0,.4-1.1,1.59,1.59,0,0,0-.4-1.2,3.6,3.6,0,0,0-1.2-.8c-.5-.2-1.1-.5-1.7-.7s-1.1-.5-1.7-.7a5.07,5.07,0,0,1-1.6-.9,4,4,0,0,1-1.1-1.2,3.42,3.42,0,0,1-.4-1.8,4,4,0,0,1,2.6-3.8,7.46,7.46,0,0,1,2.4-.4,5.55,5.55,0,0,1,1.7.3,7.57,7.57,0,0,1,1.8.9v-1h1.5V110h-1.2a4.76,4.76,0,0,0-.5-1.8,4.07,4.07,0,0,0-1.2-1.4,3,3,0,0,0-1.9-.5,3.45,3.45,0,0,0-1.8.5,1.62,1.62,0,0,0-.7,1.4,1.9,1.9,0,0,0,.5,1.3,5.65,5.65,0,0,0,1.4.9c.6.2,1.2.5,1.8.7.8.3,1.5.7,2.2,1a5.79,5.79,0,0,1,1.7,1.4,3.7,3.7,0,0,1,.6,2.1,3.51,3.51,0,0,1-.7,2.3,4.89,4.89,0,0,1-1.8,1.4A7.83,7.83,0,0,1,218.56,119.71Z"/><path class="cls-2" d="M225.56,126.41v-1.2c.6,0,1-.1,1.2-.4a1.82,1.82,0,0,0,.4-1.1c0-.5.1-1,.1-1.6v-14a3.4,3.4,0,0,1,.1-1h-2v-1.5a11.52,11.52,0,0,0,2-.1,8.11,8.11,0,0,0,1.1-.3,1.27,1.27,0,0,0,.6-.4h1a2,2,0,0,0,.1.7,2.2,2.2,0,0,0,.1.8,8.17,8.17,0,0,1,2-1.2,5.7,5.7,0,0,1,2.2-.4,5.29,5.29,0,0,1,3,.9,6.73,6.73,0,0,1,3,6.1,8,8,0,0,1-1,4.1,7,7,0,0,1-2.6,2.8,6.53,6.53,0,0,1-3.6,1,9.85,9.85,0,0,1-1.7-.2,3.51,3.51,0,0,1-1.4-.6v5a3.4,3.4,0,0,1-.1,1h1.8v1.5h-6.3Zm7.4-8.1a3.29,3.29,0,0,0,2.2-.8,4.79,4.79,0,0,0,1.3-2.2,9.72,9.72,0,0,0,.4-3.1,7.66,7.66,0,0,0-.4-2.7,5.28,5.28,0,0,0-1.2-2.1,2.86,2.86,0,0,0-2.2-.8,3.53,3.53,0,0,0-1.7.4,4.49,4.49,0,0,0-1.3,1v9.4a5.39,5.39,0,0,0,1.3.7A10,10,0,0,0,233,118.31Z"/><path class="cls-2" d="M243.36,102.41v-1a3.4,3.4,0,0,1,.1-1h-2v-1.5a11.52,11.52,0,0,0,2-.1,10.38,10.38,0,0,0,1.2-.3.92.92,0,0,0,.6-.4h1v8.3a7.61,7.61,0,0,1,1.9-1.2,6,6,0,0,1,5.3.5,6,6,0,0,1,2.2,2.5,8.87,8.87,0,0,1,.8,3.8,8,8,0,0,1-1,4.1,6.18,6.18,0,0,1-2.6,2.7,6.92,6.92,0,0,1-5.6.7,4.58,4.58,0,0,1-2.1-1.4l-.7,1.3h-1.2Zm2.9,12.6a3.52,3.52,0,0,0,.4,2,2.13,2.13,0,0,0,1.1,1,3.19,3.19,0,0,0,1.4.3,3.23,3.23,0,0,0,2.2-.7,5.52,5.52,0,0,0,1.4-2.1,10.23,10.23,0,0,0,.1-6,4.44,4.44,0,0,0-1.3-2.1,3.29,3.29,0,0,0-2.2-.8,3.53,3.53,0,0,0-1.7.4,4.86,4.86,0,0,0-1.4,1.1Z"/><path class="cls-2" d="M265.46,119.71a6.76,6.76,0,0,1-3.5-.9,7,7,0,0,1-2.5-2.6,8.47,8.47,0,0,1,0-7.6,6.78,6.78,0,0,1,2.5-2.8,6.63,6.63,0,0,1,3.7-1,5.38,5.38,0,0,1,2.2.4,5.24,5.24,0,0,1,1.9,1.1,4.64,4.64,0,0,1,1.3,2,8.53,8.53,0,0,1,.5,3l-9.6.2a11.76,11.76,0,0,0,.4,3.4,4.75,4.75,0,0,0,1.4,2.3,4.15,4.15,0,0,0,2.5.8,5,5,0,0,0,1.6-.3,4.81,4.81,0,0,0,1.6-.8,4.89,4.89,0,0,0,1.3-1.2l.9.8a9.13,9.13,0,0,1-1.9,2,7.17,7.17,0,0,1-2.2,1A16.46,16.46,0,0,1,265.46,119.71Zm-3.4-9.7h6.5a5.82,5.82,0,0,0-.3-1.9,3.39,3.39,0,0,0-.9-1.4,2.54,2.54,0,0,0-1.6-.5,3.24,3.24,0,0,0-2.4.9A4.9,4.9,0,0,0,262.06,110Z"/><path class="cls-2" d="M273.86,118.11c.6,0,1-.1,1.2-.4a1.82,1.82,0,0,0,.4-1.1c0-.5.1-1,.1-1.6v-6.8a3.4,3.4,0,0,1,.1-1h-2v-1.5h1a4.18,4.18,0,0,0,1.8-.3,3.6,3.6,0,0,0,.9-.5h1c0,.3.1.6.1,1.1a9.15,9.15,0,0,0,.1,1.6,17.41,17.41,0,0,1,1.2-1.4,4.92,4.92,0,0,1,1.5-1,3.29,3.29,0,0,1,1.7-.4,2.46,2.46,0,0,1,1.5.5,1.75,1.75,0,0,1,.6,1.5,1.42,1.42,0,0,1-.2.6,1.47,1.47,0,0,1-.5.6,1.9,1.9,0,0,1-.9.3,1.78,1.78,0,0,1-1-.4,1.5,1.5,0,0,1-.4-1.1,2.2,2.2,0,0,0-1.3.4,4.15,4.15,0,0,0-1.2,1.1,5.6,5.6,0,0,0-1,1.5v7.1a3.4,3.4,0,0,1-.1,1h1.8v1.5H274l-.1-1.3Z"/><path class="cls-2" d="M286.46,118.11c.6,0,1-.1,1.2-.4a1.82,1.82,0,0,0,.4-1.1c0-.5.1-1,.1-1.6v-6.8a3.4,3.4,0,0,1,.1-1h-2v-1.5h1a4.18,4.18,0,0,0,1.8-.3,3.6,3.6,0,0,0,.9-.5h1c0,.3.1.6.1,1.1a9.15,9.15,0,0,0,.1,1.6,17.41,17.41,0,0,1,1.2-1.4,4.92,4.92,0,0,1,1.5-1,3.29,3.29,0,0,1,1.7-.4,2.46,2.46,0,0,1,1.5.5,1.75,1.75,0,0,1,.6,1.5,1.42,1.42,0,0,1-.2.6,1.47,1.47,0,0,1-.5.6,1.9,1.9,0,0,1-.9.3,1.78,1.78,0,0,1-1-.4,1.5,1.5,0,0,1-.4-1.1,2.2,2.2,0,0,0-1.3.4,4.15,4.15,0,0,0-1.2,1.1,5.6,5.6,0,0,0-1,1.5v7.1a3.4,3.4,0,0,1-.1,1h1.8v1.5h-6.3l-.1-1.3Z"/><path class="cls-2" d="M301.46,126.91a3,3,0,0,1-1.6-.5,1.75,1.75,0,0,1-.7-1.4,1.67,1.67,0,0,1,.4-1.1,1.11,1.11,0,0,1,1-.5,1.16,1.16,0,0,1,1,.4,1.61,1.61,0,0,1,.3.9v.4h.3a1.33,1.33,0,0,0,.7-.3,3.51,3.51,0,0,0,.7-.9c.2-.4.5-1,.8-1.7s.6-1.6.9-2.5l-4.4-9.2a12.37,12.37,0,0,1-1-2.4c-.2-.6-.3-1.1-.4-1.4l-1.3.1v-1.5h6.2v1.1h-.1q-1.2.15-1.2.9a5.15,5.15,0,0,0,.5,2.1l3.1,6.8c.4-1,.7-2,1.1-3.1s.7-2.3,1.1-3.4c.1-.4.3-.7.4-1.1s.3-.8.4-1.1.3-.6.5-.7l-1.8.1v-1.5H313v1.1a2.29,2.29,0,0,0-1.5,1.2,9.91,9.91,0,0,0-1,2.3l-3.5,9.9a32.23,32.23,0,0,1-1.5,3.9,9.1,9.1,0,0,1-1.6,2.4A3.28,3.28,0,0,1,301.46,126.91Z"/><path class="cls-2" d="M122.86,185.91a6.42,6.42,0,0,0-1.7-3.9,5.31,5.31,0,0,0-3.7-1.4,5.7,5.7,0,0,0-4.8,2.4,8.67,8.67,0,0,0-1.4,2.7,12.3,12.3,0,0,0-.5,3.5,10.63,10.63,0,0,0,.9,4.5,7.65,7.65,0,0,0,2.5,3.1,6.63,6.63,0,0,0,3.6,1.1,7.3,7.3,0,0,0,3.5-.9,8.49,8.49,0,0,0,2.9-2.4l.9.8a9.89,9.89,0,0,1-2.7,2.7,7.4,7.4,0,0,1-2.8,1.2,12.22,12.22,0,0,1-2.6.3,10.06,10.06,0,0,1-3.9-.8,8.13,8.13,0,0,1-3-2.1,11.56,11.56,0,0,1-2-3.2,10,10,0,0,1-.7-3.9,12.09,12.09,0,0,1,.6-3.8,11.12,11.12,0,0,1,1.8-3.4,8.86,8.86,0,0,1,3-2.4,9.42,9.42,0,0,1,4.3-.9,8.63,8.63,0,0,1,2.8.4,12.27,12.27,0,0,1,2.6,1.2l-.1-1.4h1.7v6.5l-1.2.1Z"/><path class="cls-2" d="M135.66,198.11c.6,0,1-.1,1.2-.4a1.82,1.82,0,0,0,.4-1.1c0-.5.1-1,.1-1.6v-3.9a5.79,5.79,0,0,0-.7-3.3,2.53,2.53,0,0,0-2.2-1.1,5.84,5.84,0,0,0-1.8.4,4.18,4.18,0,0,0-1.5,1.1v8.6a3.4,3.4,0,0,1-.1,1h1.8v1.5h-6.2v-1.2c.6,0,1-.1,1.2-.4a1.82,1.82,0,0,0,.4-1.1,8.08,8.08,0,0,0,.1-1.6v-13.7a3.4,3.4,0,0,1,.1-1h-2v-1.5a11.52,11.52,0,0,0,2-.1,10.38,10.38,0,0,0,1.2-.3.92.92,0,0,0,.6-.4h1v8.5c.4-.3.9-.6,1.4-.9a4.42,4.42,0,0,1,1.6-.6,3.89,3.89,0,0,1,1.5-.2,4.09,4.09,0,0,1,3.6,1.5,8.35,8.35,0,0,1,1.1,4.7v5.7a3.4,3.4,0,0,1-.1,1h1.8v1.5h-6.3v-1.1Z"/><path class="cls-2" d="M150.76,199.71a7.4,7.4,0,0,1-3.6-.9,6,6,0,0,1-2.5-2.5,7.51,7.51,0,0,1-.9-3.7,8.43,8.43,0,0,1,.9-4,7.55,7.55,0,0,1,2.5-2.8,6.3,6.3,0,0,1,3.6-1,7.4,7.4,0,0,1,3.6.9,6,6,0,0,1,2.5,2.5,7.51,7.51,0,0,1,.9,3.7,8.72,8.72,0,0,1-.9,4,7.55,7.55,0,0,1-2.5,2.8A6.09,6.09,0,0,1,150.76,199.71Zm.2-1.4a2.86,2.86,0,0,0,2.1-.8,4.22,4.22,0,0,0,1.1-2.1,10.9,10.9,0,0,0,.3-2.6,19.42,19.42,0,0,0-.2-2.4,6.49,6.49,0,0,0-.7-2.1,4.43,4.43,0,0,0-1.2-1.5,2.27,2.27,0,0,0-1.8-.5,2.86,2.86,0,0,0-2.1.8,3.67,3.67,0,0,0-1.2,2.1,12.59,12.59,0,0,0-.4,2.7,10.55,10.55,0,0,0,.4,3.1,5.53,5.53,0,0,0,1.3,2.4A3.78,3.78,0,0,0,151,198.31Z"/><path class="cls-2" d="M166.86,199.71a6.4,6.4,0,0,1-3.4-.9,6.67,6.67,0,0,1-2.5-2.5,8,8,0,0,1-.9-3.9,9.29,9.29,0,0,1,.5-2.9,7.93,7.93,0,0,1,1.5-2.5,6.58,6.58,0,0,1,2.3-1.7,7.31,7.31,0,0,1,3-.6,7.78,7.78,0,0,1,2.8.5,4.2,4.2,0,0,1,1.8,1.3,2.79,2.79,0,0,1,.6,1.8,1.92,1.92,0,0,1-.4,1.2,1.43,1.43,0,0,1-1.1.5c-.5,0-.9-.1-1.1-.5a1.93,1.93,0,0,1-.3-1,1.27,1.27,0,0,1,.1-.6l.3-.6a1.6,1.6,0,0,0-.7-.9,4.18,4.18,0,0,0-1-.4,3.44,3.44,0,0,0-.9-.1,3.65,3.65,0,0,0-2.9,1.5,6.38,6.38,0,0,0-1.2,4.2,9.59,9.59,0,0,0,.5,3.1,5.74,5.74,0,0,0,1.5,2.2,4.07,4.07,0,0,0,2.4.8,4.2,4.2,0,0,0,2.4-.7,7.72,7.72,0,0,0,1.9-1.7l.9.8a7.28,7.28,0,0,1-1.9,2,6.7,6.7,0,0,1-2.1,1A9.65,9.65,0,0,1,166.86,199.71Z"/><path class="cls-2" d="M181.76,199.71a7.4,7.4,0,0,1-3.6-.9,6,6,0,0,1-2.5-2.5,7.51,7.51,0,0,1-.9-3.7,8.43,8.43,0,0,1,.9-4,7.55,7.55,0,0,1,2.5-2.8,6.3,6.3,0,0,1,3.6-1,7.4,7.4,0,0,1,3.6.9,6,6,0,0,1,2.5,2.5,7.51,7.51,0,0,1,.9,3.7,8.72,8.72,0,0,1-.9,4,7.55,7.55,0,0,1-2.5,2.8A6.53,6.53,0,0,1,181.76,199.71Zm.2-1.4a2.86,2.86,0,0,0,2.1-.8,4.22,4.22,0,0,0,1.1-2.1,10.9,10.9,0,0,0,.3-2.6,19.42,19.42,0,0,0-.2-2.4,6.49,6.49,0,0,0-.7-2.1,4.43,4.43,0,0,0-1.2-1.5,2.27,2.27,0,0,0-1.8-.5,2.86,2.86,0,0,0-2.1.8,3.67,3.67,0,0,0-1.2,2.1,12.59,12.59,0,0,0-.4,2.7,10.55,10.55,0,0,0,.4,3.1,5.53,5.53,0,0,0,1.3,2.4A3.58,3.58,0,0,0,182,198.31Z"/><path class="cls-2" d="M190.76,198.11c.6,0,1-.1,1.2-.4a1.82,1.82,0,0,0,.4-1.1c0-.5.1-1,.1-1.6v-13.7a3.4,3.4,0,0,1,.1-1h-2v-1.5a11.52,11.52,0,0,0,2-.1,5.31,5.31,0,0,0,1.1-.3.92.92,0,0,0,.6-.4h1.1v18.7a3.4,3.4,0,0,1-.1,1h1.8v1.5h-6.2l-.1-1.1Z"/><path class="cls-2" d="M207.26,199.31c0-.3-.1-.6-.1-.8a1.7,1.7,0,0,0-.1-.7,6.61,6.61,0,0,1-2,1.4,5.93,5.93,0,0,1-2.3.5,3.89,3.89,0,0,1-3-1,3.53,3.53,0,0,1-.2-4.7,6.42,6.42,0,0,1,2-1.6,10.71,10.71,0,0,1,2.7-.9,14.28,14.28,0,0,1,2.9-.3v-1.7a8.81,8.81,0,0,0-.2-1.7,2.39,2.39,0,0,0-.7-1.3,2.35,2.35,0,0,0-1.6-.5,4,4,0,0,0-1.5.3,1.82,1.82,0,0,0-1.1,1,2.19,2.19,0,0,1,.3.5,1.09,1.09,0,0,1,.1.5,1.61,1.61,0,0,1-.3.9,1.29,1.29,0,0,1-1.1.5,1.23,1.23,0,0,1-1-.5,2.1,2.1,0,0,1-.4-1.1,2.41,2.41,0,0,1,.7-1.8,5.61,5.61,0,0,1,2-1.2,8.85,8.85,0,0,1,2.9-.4,4.55,4.55,0,0,1,3.6,1.3,5.63,5.63,0,0,1,1.2,4v6.7a4.1,4.1,0,0,1-.1,1.1,3.75,3.75,0,0,0,1-.1,3.33,3.33,0,0,1,1,0v1.5h-4.7v.1Zm-.2-6.7a5.66,5.66,0,0,0-1.8.3,4.92,4.92,0,0,0-1.7.6,4,4,0,0,0-1.2,1,2.46,2.46,0,0,0-.5,1.5,1.68,1.68,0,0,0,.6,1.4,2.12,2.12,0,0,0,1.4.4,3.06,3.06,0,0,0,1.7-.4,13,13,0,0,0,1.5-1v-3.8Z"/><path class="cls-2" d="M219,199.71a6.75,6.75,0,0,1-1.4-.2,3.29,3.29,0,0,1-1.3-.7,3.07,3.07,0,0,1-.9-1.6,10.06,10.06,0,0,1-.3-2.7l.1-7.6H213v-1.6a2.4,2.4,0,0,0,1.5-.6,6.2,6.2,0,0,0,1.4-1.4,4.55,4.55,0,0,0,.8-1.9H218v3.9h4.3v1.5l-4.3.1-.1,7.5a11.08,11.08,0,0,0,.2,1.9,2.28,2.28,0,0,0,.6,1.2,1.59,1.59,0,0,0,1.2.4,2.2,2.2,0,0,0,1.3-.4,4,4,0,0,0,1.3-1.3l1,.8a5,5,0,0,1-1.3,1.5,4.58,4.58,0,0,1-1.3.8,2.61,2.61,0,0,1-1.1.3C219.46,199.61,219.16,199.71,219,199.71Z"/><path class="cls-2" d="M231.36,199.71a6.76,6.76,0,0,1-3.5-.9,7,7,0,0,1-2.5-2.6,8.47,8.47,0,0,1,0-7.6,6.78,6.78,0,0,1,2.5-2.8,6.63,6.63,0,0,1,3.7-1,5.38,5.38,0,0,1,2.2.4,5.24,5.24,0,0,1,1.9,1.1,4.64,4.64,0,0,1,1.3,2,8.53,8.53,0,0,1,.5,3l-9.6.2a11.76,11.76,0,0,0,.4,3.4,4.75,4.75,0,0,0,1.4,2.3,4.15,4.15,0,0,0,2.5.8,5,5,0,0,0,1.6-.3,4.81,4.81,0,0,0,1.6-.8,4.89,4.89,0,0,0,1.3-1.2l.9.8a9.13,9.13,0,0,1-1.9,2,7.17,7.17,0,0,1-2.2,1A16.46,16.46,0,0,1,231.36,199.71ZM228,190h6.5a5.82,5.82,0,0,0-.3-1.9,3.39,3.39,0,0,0-.9-1.4,2.54,2.54,0,0,0-1.6-.5,3.24,3.24,0,0,0-2.4.9A4.9,4.9,0,0,0,228,190Z"/><path class="cls-2" d="M262.56,185.91a6.42,6.42,0,0,0-1.7-3.9,5.31,5.31,0,0,0-3.7-1.4,5.7,5.7,0,0,0-4.8,2.4,8.67,8.67,0,0,0-1.4,2.7,12.3,12.3,0,0,0-.5,3.5,10.63,10.63,0,0,0,.9,4.5,7.65,7.65,0,0,0,2.5,3.1,6.63,6.63,0,0,0,3.6,1.1,7.3,7.3,0,0,0,3.5-.9,8.49,8.49,0,0,0,2.9-2.4l.9.8a9.89,9.89,0,0,1-2.7,2.7,7.4,7.4,0,0,1-2.8,1.2,12.22,12.22,0,0,1-2.6.3,10.06,10.06,0,0,1-3.9-.8,8.13,8.13,0,0,1-3-2.1,11.56,11.56,0,0,1-2-3.2,10,10,0,0,1-.7-3.9,12.09,12.09,0,0,1,.6-3.8,11.12,11.12,0,0,1,1.8-3.4,8.86,8.86,0,0,1,3-2.4,9.42,9.42,0,0,1,4.3-.9,8.63,8.63,0,0,1,2.8.4,12.27,12.27,0,0,1,2.6,1.2l-.1-1.4h1.7v6.5l-1.2.1Z"/><path class="cls-2" d="M275.36,198.11c.6,0,1-.1,1.2-.4a1.82,1.82,0,0,0,.4-1.1c0-.5.1-1,.1-1.6v-3.9a5.79,5.79,0,0,0-.7-3.3,2.53,2.53,0,0,0-2.2-1.1,5.84,5.84,0,0,0-1.8.4,4.18,4.18,0,0,0-1.5,1.1v8.6a3.4,3.4,0,0,1-.1,1h1.8v1.5h-6.2v-1.2c.6,0,1-.1,1.2-.4a1.82,1.82,0,0,0,.4-1.1,8.08,8.08,0,0,0,.1-1.6v-13.7a3.4,3.4,0,0,1,.1-1h-2v-1.5a11.52,11.52,0,0,0,2-.1,10.38,10.38,0,0,0,1.2-.3.92.92,0,0,0,.6-.4h1v8.5c.4-.3.9-.6,1.4-.9a4.42,4.42,0,0,1,1.6-.6,3.89,3.89,0,0,1,1.5-.2,4.09,4.09,0,0,1,3.6,1.5,8.35,8.35,0,0,1,1.1,4.7v5.7a3.4,3.4,0,0,1-.1,1h1.8v1.5h-6.3v-1.1Z"/><path class="cls-2" d="M283.56,198.11c.6,0,1-.1,1.2-.4a1.82,1.82,0,0,0,.4-1.1c0-.5.1-1,.1-1.6v-6.8a3.4,3.4,0,0,1,.1-1h-2v-1.5a11.52,11.52,0,0,0,2-.1,5.31,5.31,0,0,0,1.1-.3c.2-.1.5-.2.6-.4h1.1v11.8a3.4,3.4,0,0,1-.1,1h1.8v1.5h-6.2l-.1-1.1Zm3-15.7a1.66,1.66,0,0,1-1.2-.5,2.11,2.11,0,0,1-.5-1.3,1.9,1.9,0,0,1,.5-1.3,1.58,1.58,0,0,1,1.2-.5,1.66,1.66,0,0,1,1.2.5,2.11,2.11,0,0,1,.5,1.3,1.9,1.9,0,0,1-.5,1.3A1.35,1.35,0,0,1,286.56,182.41Z"/><path class="cls-2" d="M291.66,206.41v-1.2c.6,0,1-.1,1.2-.4a1.82,1.82,0,0,0,.4-1.1c0-.5.1-1,.1-1.6v-14a3.4,3.4,0,0,1,.1-1h-2v-1.5a11.52,11.52,0,0,0,2-.1,8.11,8.11,0,0,0,1.1-.3,1.27,1.27,0,0,0,.6-.4h1a2,2,0,0,0,.1.7,2.2,2.2,0,0,0,.1.8,8.17,8.17,0,0,1,2-1.2,5.7,5.7,0,0,1,2.2-.4,5.29,5.29,0,0,1,3,.9,6.73,6.73,0,0,1,3,6.1,8,8,0,0,1-1,4.1,7,7,0,0,1-2.6,2.8,6.53,6.53,0,0,1-3.6,1,9.85,9.85,0,0,1-1.7-.2,3.51,3.51,0,0,1-1.4-.6v5a3.4,3.4,0,0,1-.1,1H298v1.5h-6.3Zm7.4-8.1a3.29,3.29,0,0,0,2.2-.8,4.79,4.79,0,0,0,1.3-2.2,9.72,9.72,0,0,0,.4-3.1,7.66,7.66,0,0,0-.4-2.7,5.28,5.28,0,0,0-1.2-2.1,2.86,2.86,0,0,0-2.2-.8,3.53,3.53,0,0,0-1.7.4,4.49,4.49,0,0,0-1.3,1v9.4a5.39,5.39,0,0,0,1.3.7A10,10,0,0,0,299.06,198.31Z"/></g></g></svg>