<svg xmlns="http://www.w3.org/2000/svg" viewBox="0 0 210.1 151.75"><defs><style>.cls-1{fill:#a5bc7b;}.cls-2{fill:#1a0f01;}</style></defs><g id="Layer_2" data-name="Layer 2"><g id="Layer_1-2" data-name="Layer 1"><path class="cls-1" d="M210.1,133.38h-2.7c-3.9.1-3.9.6-3.2,3.8a38.56,38.56,0,0,1,.9,4.9,8.53,8.53,0,0,1-9.6,9.6,20.17,20.17,0,0,1-9-4.2c-.6-.4-1.2-.9-1.9-1.3-1.7-1.1-2.6-1-4.1.4a20.28,20.28,0,0,0-1.8,2.3c-.4.6-.7.7-1.3.3a47.11,47.11,0,0,0-19.5-6.6,88.46,88.46,0,0,0-15.4-.9c-5.6.4-10.9,1.9-16.3,3.3-2,.6-4.1,1.1-6.1,1.5a5,5,0,0,1-4.2-1.2c-3.9-2.8-8.4-3.6-12.4-1.3-3.8,2.2-7.1,1.7-10.7.4-4.1-1.4-8.1-2.9-12.3-4-7.7-1.9-15.6-1.8-23.5-1.6a47.06,47.06,0,0,0-13.9,2.3,50,50,0,0,0-4.8,2.1c-1,.5-1.6.4-2.2-.6a10.92,10.92,0,0,0-1.3-1.7c-2.1-2.1-3.6-2.3-6.2-.7a22.89,22.89,0,0,1-8.2,3.5c-6.1.9-11.4-2.3-13.2-8.1-.9-2.8-.3-5.7.5-8.5.8-2.5.4-3.1-2.2-3.6a11.84,11.84,0,0,0-2.6-.2c-1.5-.1-1.7-.5-1.1-1.8.7-1.6,1.5-3.1,2.2-4.7,2.7-5.7,2.2-11.5.2-17.3C2.9,95.78,1.7,92,.7,88.18A17.82,17.82,0,0,1,2,75a12.69,12.69,0,0,1,4.5-4.7c1.4-1,1.4-1.2.2-2.4C3.1,64.38.5,60.28.1,55.08a18.78,18.78,0,0,1,1.2-7.8,87.8,87.8,0,0,1,3.3-8.5c2.7-6,2.1-11.7-.9-17.3-.6-1.2-1.2-2.3-1.8-3.5s-.3-1.4.9-1.4,2.6.1,3.9.2c1.8,0,2.2-.5,1.5-2.2a14.34,14.34,0,0,1-1-6.5c.6-5,6.3-9,11.2-7.9A26.75,26.75,0,0,1,29,5.28a3.29,3.29,0,0,0,4.6-.2,9.5,9.5,0,0,0,1.6-1.9c.6-1.1,1.2-1.1,2.3-.5,2.6,1.4,5.1,3,7.9,3.8a97.14,97.14,0,0,0,12,2.1c8,1.2,15.9,0,23.7-1.1,3.5-.5,7-1.3,10.5-2,2.7-.5,5.1-.4,7.4,1.3,3.6,2.6,7.6,2.5,11.5.7,3.3-1.6,6.2-1.2,9.4.1,7.3,2.9,14.9,5.2,22.8,5.7a84.31,84.31,0,0,0,20.7-.7c1.6-.3,3.1-1.4,4.6-2.3,1.7-1,2.6-1,3.9.5a8.35,8.35,0,0,1,1.2,1.6c1.4,2,2.7,2.4,4.9,1.5a49.87,49.87,0,0,0,5.3-2.3c7.4-3.8,13.6,1.9,14.8,7.7a15,15,0,0,1-.2,7c-.4,1.6-.1,2,1.5,2.2,1,.1,2,.2,3,.2,1.7,0,2,.4,1.4,2-.7,1.8-1.6,3.6-2.1,5.4-1.4,4.8-.8,9.5.9,14.2,1.6,4.3,3.2,8.6,4.5,12.9,1.7,5.8.2,10.8-4.2,15-.2.2-.3.4-.5.5-.9.7-.8,1.4,0,2.2a55.24,55.24,0,0,1,4.6,6.2c2.7,4.7,2.8,9.8,1.4,14.9-1,4-2.2,7.9-3.2,11.9-1.1,4.2-.1,8.2,1.5,12.1.9,2.1,1.9,4,2.9,6.1A8.93,8.93,0,0,0,210.1,133.38Zm-95.3-1.6a124.39,124.39,0,0,0,20.9-2,97,97,0,0,0,26.8-8.3,79.94,79.94,0,0,0,17.6-12.4c5-4.5,9.1-9.7,10.9-16.4a39.71,39.71,0,0,0-.2-22.4c-1.8-6.2-5.3-11.4-9.3-16.3a90.46,90.46,0,0,0-26.8-21.2,114,114,0,0,0-32.9-11.5,145.09,145.09,0,0,0-16.3-1.7,109.56,109.56,0,0,0-36.9,3.1,95,95,0,0,0-33.9,15.9,42.65,42.65,0,0,0-14.6,19c-4.7,12.6-2.9,24.6,4.6,35.7a62.59,62.59,0,0,0,14.2,14.4,125.43,125.43,0,0,0,12.1,8.5c7.3,4.5,15.4,7.4,23.6,9.8A134.44,134.44,0,0,0,114.8,131.78Z"/><path class="cls-2" d="M55.5,70.68a6.42,6.42,0,0,0-1.7-3.9,5.31,5.31,0,0,0-3.7-1.4,5.7,5.7,0,0,0-4.8,2.4,8.67,8.67,0,0,0-1.4,2.7,12.3,12.3,0,0,0-.5,3.5,10.63,10.63,0,0,0,.9,4.5,7.65,7.65,0,0,0,2.5,3.1,6.63,6.63,0,0,0,3.6,1.1,7.3,7.3,0,0,0,3.5-.9,8.49,8.49,0,0,0,2.9-2.4l.9.8a9.89,9.89,0,0,1-2.7,2.7,7.4,7.4,0,0,1-2.8,1.2,12.22,12.22,0,0,1-2.6.3,10.06,10.06,0,0,1-3.9-.8,8.13,8.13,0,0,1-3-2.1,11.56,11.56,0,0,1-2-3.2,10,10,0,0,1-.7-3.9,12.09,12.09,0,0,1,.6-3.8,11.12,11.12,0,0,1,1.8-3.4,8.86,8.86,0,0,1,3-2.4,9.42,9.42,0,0,1,4.3-.9,8.63,8.63,0,0,1,2.8.4,12.27,12.27,0,0,1,2.6,1.2l-.1-1.4h1.7v6.5l-1.2.1Z"/><path class="cls-2" d="M68.3,82.88c.6,0,1-.1,1.2-.4a1.82,1.82,0,0,0,.4-1.1c0-.5.1-1,.1-1.6v-3.9a5.79,5.79,0,0,0-.7-3.3,2.53,2.53,0,0,0-2.2-1.1,5.84,5.84,0,0,0-1.8.4A4.18,4.18,0,0,0,63.8,73v8.6a3.4,3.4,0,0,1-.1,1h1.8v1.5H59.3v-1.2c.6,0,1-.1,1.2-.4a1.82,1.82,0,0,0,.4-1.1,8.08,8.08,0,0,0,.1-1.6V66.08a3.4,3.4,0,0,1,.1-1h-2v-1.5a11.52,11.52,0,0,0,2-.1,10.38,10.38,0,0,0,1.2-.3.92.92,0,0,0,.6-.4h1v8.5c.4-.3.9-.6,1.4-.9a4.42,4.42,0,0,1,1.6-.6,3.89,3.89,0,0,1,1.5-.2,4.09,4.09,0,0,1,3.6,1.5,8.35,8.35,0,0,1,1.1,4.7v5.7a3.4,3.4,0,0,1-.1,1h1.8V84H68.5v-1.1Z"/><path class="cls-2" d="M83.4,84.48a7.4,7.4,0,0,1-3.6-.9,6,6,0,0,1-2.5-2.5,7.51,7.51,0,0,1-.9-3.7,8.43,8.43,0,0,1,.9-4,7.55,7.55,0,0,1,2.5-2.8,6.3,6.3,0,0,1,3.6-1,7.4,7.4,0,0,1,3.6.9A6,6,0,0,1,89.5,73a7.51,7.51,0,0,1,.9,3.7,8.72,8.72,0,0,1-.9,4,7.55,7.55,0,0,1-2.5,2.8A6.09,6.09,0,0,1,83.4,84.48Zm.2-1.4a2.86,2.86,0,0,0,2.1-.8,4.22,4.22,0,0,0,1.1-2.1,10.9,10.9,0,0,0,.3-2.6,19.42,19.42,0,0,0-.2-2.4,6.49,6.49,0,0,0-.7-2.1,4.43,4.43,0,0,0-1.2-1.5,2.27,2.27,0,0,0-1.8-.5,2.86,2.86,0,0,0-2.1.8A3.67,3.67,0,0,0,79.9,74a12.59,12.59,0,0,0-.4,2.7,10.55,10.55,0,0,0,.4,3.1,5.53,5.53,0,0,0,1.3,2.4A3.78,3.78,0,0,0,83.6,83.08Z"/><path class="cls-2" d="M99.5,84.48a6.4,6.4,0,0,1-3.4-.9,6.67,6.67,0,0,1-2.5-2.5,8,8,0,0,1-.9-3.9,9.29,9.29,0,0,1,.5-2.9,7.93,7.93,0,0,1,1.5-2.5,6.58,6.58,0,0,1,2.3-1.7,7.31,7.31,0,0,1,3-.6,7.78,7.78,0,0,1,2.8.5,4.2,4.2,0,0,1,1.8,1.3,2.79,2.79,0,0,1,.6,1.8,1.92,1.92,0,0,1-.4,1.2,1.43,1.43,0,0,1-1.1.5c-.5,0-.9-.1-1.1-.5a1.93,1.93,0,0,1-.3-1,1.27,1.27,0,0,1,.1-.6l.3-.6a1.6,1.6,0,0,0-.7-.9,4.18,4.18,0,0,0-1-.4,3.44,3.44,0,0,0-.9-.1,3.65,3.65,0,0,0-2.9,1.5,6.38,6.38,0,0,0-1.2,4.2,9.59,9.59,0,0,0,.5,3.1,5.74,5.74,0,0,0,1.5,2.2,4.07,4.07,0,0,0,2.4.8,4.2,4.2,0,0,0,2.4-.7,7.72,7.72,0,0,0,1.9-1.7l.9.8a7.28,7.28,0,0,1-1.9,2,6.7,6.7,0,0,1-2.1,1A9.65,9.65,0,0,1,99.5,84.48Z"/><path class="cls-2" d="M114.4,84.48a7.4,7.4,0,0,1-3.6-.9,6,6,0,0,1-2.5-2.5,7.51,7.51,0,0,1-.9-3.7,8.43,8.43,0,0,1,.9-4,7.55,7.55,0,0,1,2.5-2.8,6.3,6.3,0,0,1,3.6-1,7.4,7.4,0,0,1,3.6.9,6,6,0,0,1,2.5,2.5,7.51,7.51,0,0,1,.9,3.7,8.72,8.72,0,0,1-.9,4,7.55,7.55,0,0,1-2.5,2.8A6.09,6.09,0,0,1,114.4,84.48Zm.2-1.4a2.86,2.86,0,0,0,2.1-.8,4.22,4.22,0,0,0,1.1-2.1,10.9,10.9,0,0,0,.3-2.6,19.42,19.42,0,0,0-.2-2.4,6.49,6.49,0,0,0-.7-2.1,4.43,4.43,0,0,0-1.2-1.5,2.27,2.27,0,0,0-1.8-.5,2.86,2.86,0,0,0-2.1.8,3.67,3.67,0,0,0-1.2,2.1,12.59,12.59,0,0,0-.4,2.7,10.55,10.55,0,0,0,.4,3.1,5.53,5.53,0,0,0,1.3,2.4A3.58,3.58,0,0,0,114.6,83.08Z"/><path class="cls-2" d="M123.4,82.88c.6,0,1-.1,1.2-.4a1.82,1.82,0,0,0,.4-1.1c0-.5.1-1,.1-1.6V66.08a3.4,3.4,0,0,1,.1-1h-2v-1.5a11.52,11.52,0,0,0,2-.1,5.31,5.31,0,0,0,1.1-.3.92.92,0,0,0,.6-.4H128v18.7a3.4,3.4,0,0,1-.1,1h1.8V84h-6.2l-.1-1.1Z"/><path class="cls-2" d="M139.9,84.08c0-.3-.1-.6-.1-.8a1.7,1.7,0,0,0-.1-.7,6.61,6.61,0,0,1-2,1.4,5.93,5.93,0,0,1-2.3.5,3.89,3.89,0,0,1-3-1,3.53,3.53,0,0,1-.2-4.7,6.42,6.42,0,0,1,2-1.6,10.71,10.71,0,0,1,2.7-.9,14.28,14.28,0,0,1,2.9-.3v-1.7a8.81,8.81,0,0,0-.2-1.7,2.39,2.39,0,0,0-.7-1.3,2.35,2.35,0,0,0-1.6-.5,4,4,0,0,0-1.5.3,1.82,1.82,0,0,0-1.1,1,2.19,2.19,0,0,1,.3.5,1.09,1.09,0,0,1,.1.5,1.61,1.61,0,0,1-.3.9,1.29,1.29,0,0,1-1.1.5,1.23,1.23,0,0,1-1-.5,2.1,2.1,0,0,1-.4-1.1,2.41,2.41,0,0,1,.7-1.8,5.61,5.61,0,0,1,2-1.2,8.85,8.85,0,0,1,2.9-.4,4.55,4.55,0,0,1,3.6,1.3,5.63,5.63,0,0,1,1.2,4v6.7a4.1,4.1,0,0,1-.1,1.1,3.75,3.75,0,0,0,1-.1,3.33,3.33,0,0,1,1,0V84h-4.7v.1Zm-.2-6.8a5.66,5.66,0,0,0-1.8.3,4.92,4.92,0,0,0-1.7.6,4,4,0,0,0-1.2,1,2.46,2.46,0,0,0-.5,1.5,1.68,1.68,0,0,0,.6,1.4,2.12,2.12,0,0,0,1.4.4,3.06,3.06,0,0,0,1.7-.4,13,13,0,0,0,1.5-1v-3.8Z"/><path class="cls-2" d="M151.6,84.48a6.75,6.75,0,0,1-1.4-.2,3.29,3.29,0,0,1-1.3-.7A3.07,3.07,0,0,1,148,82a10.06,10.06,0,0,1-.3-2.7l.1-7.6h-2.1v-1.6a2.4,2.4,0,0,0,1.5-.6,6.2,6.2,0,0,0,1.4-1.4,4.55,4.55,0,0,0,.8-1.9h1.3v3.9H155v1.5l-4.3.1-.1,7.5a11.08,11.08,0,0,0,.2,1.9,2.28,2.28,0,0,0,.6,1.2,1.59,1.59,0,0,0,1.2.4,2.2,2.2,0,0,0,1.3-.4,4,4,0,0,0,1.3-1.3l1,.8a5,5,0,0,1-1.3,1.5,4.58,4.58,0,0,1-1.3.8,2.61,2.61,0,0,1-1.1.3C152.2,84.38,151.8,84.48,151.6,84.48Z"/><path class="cls-2" d="M164,84.48a6.76,6.76,0,0,1-3.5-.9A7,7,0,0,1,158,81a8.47,8.47,0,0,1,0-7.6,6.78,6.78,0,0,1,2.5-2.8,6.63,6.63,0,0,1,3.7-1,5.38,5.38,0,0,1,2.2.4,5.24,5.24,0,0,1,1.9,1.1,4.64,4.64,0,0,1,1.3,2,8.53,8.53,0,0,1,.5,3l-9.6.2a11.76,11.76,0,0,0,.4,3.4,4.75,4.75,0,0,0,1.4,2.3,4.15,4.15,0,0,0,2.5.8,5,5,0,0,0,1.6-.3,4.81,4.81,0,0,0,1.6-.8,4.89,4.89,0,0,0,1.3-1.2l.9.8a9.13,9.13,0,0,1-1.9,2,7.17,7.17,0,0,1-2.2,1A14.92,14.92,0,0,1,164,84.48Zm-3.4-9.7h6.5a5.82,5.82,0,0,0-.3-1.9,3.39,3.39,0,0,0-.9-1.4,2.54,2.54,0,0,0-1.6-.5,3.24,3.24,0,0,0-2.4.9A4.9,4.9,0,0,0,160.6,74.78Z"/></g></g></svg>