<svg xmlns="http://www.w3.org/2000/svg" viewBox="0 0 209.76 143.98"><defs><style>.cls-1{fill:#d97275;}.cls-2{fill:#1a0f01;}</style></defs><g id="Layer_2" data-name="Layer 2"><g id="Layer_1-2" data-name="Layer 1"><path class="cls-1" d="M204.6,60.13a15.45,15.45,0,0,1-.6,2.3,1.64,1.64,0,0,0,.7,2.2,40.08,40.08,0,0,1,3.9,3.3c1.6,1.5,1.5,2.3,0,3.7l-3.6,3.3c-1.5,1.3-1.6,1.3-.8,3.1a6.53,6.53,0,0,1-1,6.6,5.08,5.08,0,0,1-4,2.3c-1.3,0-1.8.7-2.1,1.9a19.27,19.27,0,0,1-4,8.1,14.31,14.31,0,0,1-3.1,2.4,2,2,0,0,1-2.3-.3,11.43,11.43,0,0,0-2.9-1.5c-1.7-.6-2.3-.3-3.4,1.2-2.1,2.5-4.1,5.2-6.3,7.6a78.31,78.31,0,0,1-24.2,17.3,106,106,0,0,1-22.6,7.8,4.23,4.23,0,0,0-2.8,1.9c-2.2,3.3-5,6-9.1,6.5a21.16,21.16,0,0,1-5.6-.4,3.84,3.84,0,0,0-4,1.2,23.87,23.87,0,0,1-3.5,2.8,2.05,2.05,0,0,1-2.9-.1,35.15,35.15,0,0,1-3.5-3.1,2.38,2.38,0,0,0-2.6-.7,11.51,11.51,0,0,1-6.1.5,13.61,13.61,0,0,1-9.2-6.8,2.86,2.86,0,0,0-2.1-1.6,95,95,0,0,1-31.1-12.3c-7.9-5-14.7-11-19.7-19a1.83,1.83,0,0,0-2.4-1,18,18,0,0,0-3.4,1.7,2.12,2.12,0,0,1-2.5.2c-2.3-1.2-3.5-3.3-4.5-5.6a56,56,0,0,1-1.7-5.4c-.2-.7-.5-1.1-1.3-1.1a5.73,5.73,0,0,1-5-8.4c1-1.8.9-1.8-.7-3a40.08,40.08,0,0,1-3.9-3.3c-1-.9-.9-1.4.1-2.3l4.6-4a1.57,1.57,0,0,0,.6-1.9c-1.2-4.4.4-7.6,4.8-8.9a3.07,3.07,0,0,0,2.4-2.6,16.27,16.27,0,0,1,5.7-9.2c1.8-1.4,2.2-1.4,4.1-.3a3.13,3.13,0,0,0,1,.5c2.3,1.1,2.8.9,4.3-1.1a73.48,73.48,0,0,1,27.3-22.5A117.52,117.52,0,0,1,76.2,14a10.94,10.94,0,0,0,6.5-4.4A12.71,12.71,0,0,1,93.2,4a11.33,11.33,0,0,1,3.6.6,2,2,0,0,0,2.1-.4c1.4-1.2,2.9-2.4,4.4-3.6a2.23,2.23,0,0,1,3.2.1c1,.9,2.1,1.6,3.1,2.6a2.77,2.77,0,0,0,3.1.8,10.76,10.76,0,0,1,10,1.2,29.56,29.56,0,0,1,5,5,4.43,4.43,0,0,0,2.6,1.7c7.5,1.7,15.1,3.5,22,6.9,11.3,5.6,21.6,12.7,29.2,23.1,1.3,1.8,2,1.9,3.9,1.1a9.8,9.8,0,0,0,2.2-1.3c1.6-1.1,2.5-1,4,.2a13.45,13.45,0,0,1,4.1,5.9c.6,1.5,1.1,3,1.6,4.6a1.81,1.81,0,0,0,1.8,1.4C202.4,54.13,204.5,56.43,204.6,60.13Zm-98.6-40c-3.3.1-6.6.2-9.8.5a104.33,104.33,0,0,0-20.7,4.3,78.27,78.27,0,0,0-28.1,14.8c-7.3,5.9-13.3,12.8-16.5,21.8a32.19,32.19,0,0,0-2.3,13.7,40.76,40.76,0,0,0,11.8,25c10.5,10.8,23.8,16.7,38.2,20a105.48,105.48,0,0,0,38,1.5c13.3-1.8,26-5.4,37.3-12.8,6.5-4.2,12.6-8.8,17.2-15.2a44.39,44.39,0,0,0,7.7-16.1,31.67,31.67,0,0,0-2.3-21.4c-3.3-6.7-7.2-12.9-13.2-17.7-10.3-8.1-22-13.1-34.6-16C121.2,20.73,113.6,20.33,106,20.13Z"/><path class="cls-2" d="M65.4,66.63a6.42,6.42,0,0,0-1.7-3.9,5.31,5.31,0,0,0-3.7-1.4,5.7,5.7,0,0,0-4.8,2.4,8.67,8.67,0,0,0-1.4,2.7,12.3,12.3,0,0,0-.5,3.5,10.63,10.63,0,0,0,.9,4.5,7.65,7.65,0,0,0,2.5,3.1,6.63,6.63,0,0,0,3.6,1.1,7.3,7.3,0,0,0,3.5-.9,8.49,8.49,0,0,0,2.9-2.4l.9.8a9.89,9.89,0,0,1-2.7,2.7A7.4,7.4,0,0,1,62.1,80a12.22,12.22,0,0,1-2.6.3,10.06,10.06,0,0,1-3.9-.8,8.13,8.13,0,0,1-3-2.1,11.56,11.56,0,0,1-2-3.2,10,10,0,0,1-.7-3.9,12.09,12.09,0,0,1,.6-3.8,11.12,11.12,0,0,1,1.8-3.4,8.86,8.86,0,0,1,3-2.4,9.42,9.42,0,0,1,4.3-.9,8.63,8.63,0,0,1,2.8.4,12.27,12.27,0,0,1,2.6,1.2L64.9,60h1.7v6.5H65.4v.1Z"/><path class="cls-2" d="M76.3,80.43a7.4,7.4,0,0,1-3.6-.9A6,6,0,0,1,70.2,77a7.51,7.51,0,0,1-.9-3.7,8.43,8.43,0,0,1,.9-4,7.55,7.55,0,0,1,2.5-2.8,6.3,6.3,0,0,1,3.6-1,7.4,7.4,0,0,1,3.6.9,6,6,0,0,1,2.5,2.5,7.51,7.51,0,0,1,.9,3.7,8.72,8.72,0,0,1-.9,4,7.55,7.55,0,0,1-2.5,2.8A6.09,6.09,0,0,1,76.3,80.43Zm.2-1.4a2.86,2.86,0,0,0,2.1-.8,4.22,4.22,0,0,0,1.1-2.1,10.9,10.9,0,0,0,.3-2.6,19.42,19.42,0,0,0-.2-2.4,6.49,6.49,0,0,0-.7-2.1,4.43,4.43,0,0,0-1.2-1.5,2.27,2.27,0,0,0-1.8-.5,2.86,2.86,0,0,0-2.1.8,3.67,3.67,0,0,0-1.2,2.1,12.59,12.59,0,0,0-.4,2.7,10.55,10.55,0,0,0,.4,3.1,5.53,5.53,0,0,0,1.3,2.4A3.78,3.78,0,0,0,76.5,79Z"/><path class="cls-2" d="M92.4,80.43a6.4,6.4,0,0,1-3.4-.9A6.67,6.67,0,0,1,86.5,77a8,8,0,0,1-.9-3.9,9.29,9.29,0,0,1,.5-2.9,7.93,7.93,0,0,1,1.5-2.5A6.58,6.58,0,0,1,89.9,66a7.31,7.31,0,0,1,3-.6,7.78,7.78,0,0,1,2.8.5,4.2,4.2,0,0,1,1.8,1.3,2.79,2.79,0,0,1,.6,1.8,1.92,1.92,0,0,1-.4,1.2,1.43,1.43,0,0,1-1.1.5c-.5,0-.9-.1-1.1-.5a1.93,1.93,0,0,1-.3-1,1.27,1.27,0,0,1,.1-.6l.3-.6a1.6,1.6,0,0,0-.7-.9,4.18,4.18,0,0,0-1-.4,3.44,3.44,0,0,0-.9-.1,3.65,3.65,0,0,0-2.9,1.5,6.38,6.38,0,0,0-1.2,4.2,9.59,9.59,0,0,0,.5,3.1,5.74,5.74,0,0,0,1.5,2.2,4.07,4.07,0,0,0,2.4.8,4.2,4.2,0,0,0,2.4-.7A7.72,7.72,0,0,0,97.6,76l.9.8a7.28,7.28,0,0,1-1.9,2,6.7,6.7,0,0,1-2.1,1A9.65,9.65,0,0,1,92.4,80.43Z"/><path class="cls-2" d="M107.3,80.43a7.4,7.4,0,0,1-3.6-.9,6,6,0,0,1-2.5-2.5,7.51,7.51,0,0,1-.9-3.7,8.43,8.43,0,0,1,.9-4,7.55,7.55,0,0,1,2.5-2.8,6.3,6.3,0,0,1,3.6-1,7.4,7.4,0,0,1,3.6.9,6,6,0,0,1,2.5,2.5,7.51,7.51,0,0,1,.9,3.7,8.72,8.72,0,0,1-.9,4,7.55,7.55,0,0,1-2.5,2.8A6.09,6.09,0,0,1,107.3,80.43Zm.2-1.4a2.86,2.86,0,0,0,2.1-.8,4.22,4.22,0,0,0,1.1-2.1,10.9,10.9,0,0,0,.3-2.6,19.42,19.42,0,0,0-.2-2.4,6.49,6.49,0,0,0-.7-2.1,4.43,4.43,0,0,0-1.2-1.5,2.27,2.27,0,0,0-1.8-.5,2.86,2.86,0,0,0-2.1.8,3.67,3.67,0,0,0-1.2,2.1,12.59,12.59,0,0,0-.4,2.7,10.55,10.55,0,0,0,.4,3.1,5.53,5.53,0,0,0,1.3,2.4A3.58,3.58,0,0,0,107.5,79Z"/><path class="cls-2" d="M116.6,79.93v-1.1c.6,0,1-.1,1.2-.4a1.82,1.82,0,0,0,.4-1.1c0-.5.1-1,.1-1.6v-6.8a3.4,3.4,0,0,1,.1-1h-2v-1.5a11.52,11.52,0,0,0,2-.1,8.11,8.11,0,0,0,1.1-.3,1.27,1.27,0,0,0,.6-.4h1v1.6c.4-.3.9-.6,1.3-.9a4.71,4.71,0,0,1,1.5-.6,3.89,3.89,0,0,1,1.5-.2A4.09,4.09,0,0,1,129,67a8.35,8.35,0,0,1,1.1,4.7v5.7a3.4,3.4,0,0,1-.1,1h1.8v1.5h-6.2v-1.1c.6,0,1-.1,1.2-.4a1.82,1.82,0,0,0,.4-1.1c0-.5.1-1,.1-1.6v-3.9a6.75,6.75,0,0,0-.7-3.3,2.53,2.53,0,0,0-2.2-1.1,3.92,3.92,0,0,0-1.8.4,5.83,5.83,0,0,0-1.5,1.1v8.7a3.4,3.4,0,0,1-.1,1h1.8v1.5h-6.2Z"/><path class="cls-2" d="M139.8,80.43a5.26,5.26,0,0,1-2.6-.6,3.24,3.24,0,0,1-1.5-1.9,11.52,11.52,0,0,1-.5-3.6v-5.4a3.4,3.4,0,0,1,.1-1h-2v-1.5h.7a5.84,5.84,0,0,0,2.1-.3,3,3,0,0,0,1-.5h1.1v8.5a6.91,6.91,0,0,0,.6,3.3,2.25,2.25,0,0,0,2.1,1.1,3.23,3.23,0,0,0,1.8-.6,4.42,4.42,0,0,0,1.4-1.3v-7.8c0-.4.1-.7.1-1h-2v-1.5h.8a4.7,4.7,0,0,0,1.9-.3,4.61,4.61,0,0,0,1-.5H147V77a6.15,6.15,0,0,1-.1,1.4,3.75,3.75,0,0,0,1-.1h1v1.5h-4.5c0-.3-.1-.6-.1-.8s-.1-.5-.1-.8a14.29,14.29,0,0,1-2,1.4A3.84,3.84,0,0,1,139.8,80.43Z"/><path class="cls-2" d="M156.1,80.43a6.75,6.75,0,0,1-1.4-.2,3.29,3.29,0,0,1-1.3-.7,3.07,3.07,0,0,1-.9-1.6,10.06,10.06,0,0,1-.3-2.7l.1-7.6h-2.1V66a2.4,2.4,0,0,0,1.5-.6,6.2,6.2,0,0,0,1.4-1.4,4.55,4.55,0,0,0,.8-1.9h1.3V66h4.3v1.5l-4.3.1-.1,7.5a11.08,11.08,0,0,0,.2,1.9,2.28,2.28,0,0,0,.6,1.2,1.59,1.59,0,0,0,1.2.4,2.2,2.2,0,0,0,1.3-.4,4,4,0,0,0,1.3-1.3l1,.8a5,5,0,0,1-1.3,1.5,4.58,4.58,0,0,1-1.3.8,2.61,2.61,0,0,1-1.1.3C156.7,80.33,156.3,80.43,156.1,80.43Z"/></g></g></svg>