<svg xmlns="http://www.w3.org/2000/svg" viewBox="0 0 206.82 302.03"><defs><style>.cls-1{fill:#d97275;}.cls-2{fill:#1a0f01;}</style></defs><g id="Layer_2" data-name="Layer 2"><g id="Layer_1-2" data-name="Layer 1"><path class="cls-1" d="M120.48,294.69c-1.1-.3-2.3-.4-3.4-.8-1.4-.6-2.2-.2-3.1.9a63.28,63.28,0,0,1-4.7,5.6c-2.2,2.2-3.3,2.2-5.4-.1-1.6-1.7-3.2-3.4-4.7-5.2-1.8-2.1-1.9-2.3-4.4-1.2-3.5,1.5-6.6.6-9.5-1.5a7.41,7.41,0,0,1-3.3-5.7c-.1-1.9-1-2.5-2.7-3-4.2-1.2-8.3-2.8-11.7-5.7a19.4,19.4,0,0,1-3.5-4.5c-.7-1.1-.3-2.2.5-3.4a16.23,16.23,0,0,0,2.2-4.1c.8-2.5.4-3.3-1.7-4.9-3.7-3-7.4-5.9-10.9-9.1-10.6-9.9-18.6-21.7-24.9-34.8a156.18,156.18,0,0,1-11.2-32.5,6,6,0,0,0-2.7-4c-4.8-3.1-8.6-7.2-9.4-13.1a24.67,24.67,0,0,1,.6-8.1c.5-2.4.2-4.1-1.7-5.8a33.09,33.09,0,0,1-4.1-5,3,3,0,0,1,.1-4.1c1.5-1.7,2.9-3.5,4.5-5.1a3.13,3.13,0,0,0,1-3.7,17.6,17.6,0,0,1-.8-8.8c1.1-6,4.7-10.2,9.7-13.3a4.88,4.88,0,0,0,2.3-3.1,138.23,138.23,0,0,1,17.6-44.7c7.1-11.3,15.9-21.2,27.4-28.3,1.4-.9,2-2,1.4-3.5a23.38,23.38,0,0,0-2.5-5,2.89,2.89,0,0,1-.3-3.5c1.7-3.3,4.8-5.1,8-6.5a70.78,70.78,0,0,1,7.8-2.5,1.85,1.85,0,0,0,1.6-1.9,8.18,8.18,0,0,1,12.1-7.1c2.6,1.4,2.6,1.3,4.3-1,1.5-1.9,3.1-3.8,4.7-5.6,1.4-1.4,2-1.3,3.3.2l5.7,6.6a2.52,2.52,0,0,0,2.8.9c6.3-1.7,10.9.6,12.9,6.9a4.46,4.46,0,0,0,3.8,3.4,24.08,24.08,0,0,1,13.3,8.3c2,2.5,2.1,3.1.4,5.9a6.11,6.11,0,0,0-.7,1.4c-1.5,3.4-1.3,4,1.6,6.2a105.62,105.62,0,0,1,32.4,39.3c4.6,9.6,8.8,19.3,11.6,29.6a15.4,15.4,0,0,0,6.3,9.3,18.13,18.13,0,0,1,8,15,14.81,14.81,0,0,1-.9,5.1,2.76,2.76,0,0,0,.6,3c1.8,2.1,3.5,4.2,5.2,6.3a3.29,3.29,0,0,1-.2,4.6,53.7,53.7,0,0,1-3.7,4.4,4,4,0,0,0-1.1,4.4c1.7,5.1,1.3,10.1-1.8,14.4-1.9,2.7-4.6,4.9-7.1,7.1a6.58,6.58,0,0,0-2.5,3.8c-2.5,10.8-5.1,21.7-10,31.6-8,16.3-18.3,31-33.3,41.9-2.5,1.8-2.8,2.8-1.5,5.6a20.16,20.16,0,0,0,1.8,3.2c1.6,2.4,1.5,3.6-.3,5.8a19.75,19.75,0,0,1-8.5,6c-2.2.8-4.4,1.6-6.6,2.3a2.53,2.53,0,0,0-2,2.7C129.08,291.49,125.78,294.49,120.48,294.69Zm57.4-141.9c-.2-4.7-.2-9.4-.7-14.1A150.83,150.83,0,0,0,171,109a115.66,115.66,0,0,0-21.2-40.5c-8.6-10.4-18.5-19.1-31.4-23.7-6.4-2.3-12.9-4-19.7-3.2a59.89,59.89,0,0,0-36,17c-15.5,15.1-24,34.2-28.7,54.9a154.19,154.19,0,0,0-2.2,54.6c2.6,19.1,7.7,37.3,18.4,53.7,6.1,9.3,12.7,18.2,21.9,24.7,7.1,5,14.7,9.1,23.2,11.1a45.23,45.23,0,0,0,30.7-3.3c9.7-4.7,18.6-10.4,25.4-19,11.7-14.8,18.8-31.6,23.1-49.7C177.08,174.79,177.68,163.79,177.88,152.79Z"/><path class="cls-2" d="M77.48,90.79a6.42,6.42,0,0,0-1.7-3.9,5.31,5.31,0,0,0-3.7-1.4,5.7,5.7,0,0,0-4.8,2.4,8.67,8.67,0,0,0-1.4,2.7,12.3,12.3,0,0,0-.5,3.5,10.63,10.63,0,0,0,.9,4.5,7.65,7.65,0,0,0,2.5,3.1,6.63,6.63,0,0,0,3.6,1.1,7.3,7.3,0,0,0,3.5-.9,8.49,8.49,0,0,0,2.9-2.4l.9.8A9.89,9.89,0,0,1,77,103a7.4,7.4,0,0,1-2.8,1.2,12.22,12.22,0,0,1-2.6.3,10.06,10.06,0,0,1-3.9-.8,8.13,8.13,0,0,1-3-2.1,11.56,11.56,0,0,1-2-3.2,10,10,0,0,1-.7-3.9,12.09,12.09,0,0,1,.6-3.8,11.12,11.12,0,0,1,1.8-3.4,8.86,8.86,0,0,1,3-2.4,9.42,9.42,0,0,1,4.3-.9,8.63,8.63,0,0,1,2.8.4,12.27,12.27,0,0,1,2.6,1.2l-.1-1.4h1.7v6.5l-1.2.1Z"/><path class="cls-2" d="M88.38,104.59a7.4,7.4,0,0,1-3.6-.9,6,6,0,0,1-2.5-2.5,7.51,7.51,0,0,1-.9-3.7,8.43,8.43,0,0,1,.9-4,7.55,7.55,0,0,1,2.5-2.8,6.3,6.3,0,0,1,3.6-1,7.4,7.4,0,0,1,3.6.9,6,6,0,0,1,2.5,2.5,7.51,7.51,0,0,1,.9,3.7,8.72,8.72,0,0,1-.9,4,7.55,7.55,0,0,1-2.5,2.8A6.91,6.91,0,0,1,88.38,104.59Zm.2-1.4a2.86,2.86,0,0,0,2.1-.8,4.22,4.22,0,0,0,1.1-2.1,10.9,10.9,0,0,0,.3-2.6,19.42,19.42,0,0,0-.2-2.4,6.49,6.49,0,0,0-.7-2.1,4.43,4.43,0,0,0-1.2-1.5,2.27,2.27,0,0,0-1.8-.5,2.86,2.86,0,0,0-2.1.8,3.67,3.67,0,0,0-1.2,2.1,12.59,12.59,0,0,0-.4,2.7,10.55,10.55,0,0,0,.4,3.1,5.53,5.53,0,0,0,1.3,2.4A3.58,3.58,0,0,0,88.58,103.19Z"/><path class="cls-2" d="M99.48,89.49a8.44,8.44,0,0,1,1.2-4.9,4.52,4.52,0,0,1,3.9-1.7,4.15,4.15,0,0,1,1.6.3,2.55,2.55,0,0,1,1.2.8,1.59,1.59,0,0,1,.4,1.2,1.49,1.49,0,0,1-.3,1,1.53,1.53,0,0,1-1,.4,1.05,1.05,0,0,1-1-.4,1.61,1.61,0,0,1-.3-.9V85a.37.37,0,0,1,.1-.3.85.85,0,0,0-.5-.3,1.09,1.09,0,0,0-.5-.1,1.25,1.25,0,0,0-1.1.4,2.87,2.87,0,0,0-.6,1.1,5.85,5.85,0,0,0-.2,1.3v3.1H106v1.5l-3.6.1v10a4.48,4.48,0,0,1-.1,1.1h1.8v1.5h-6.3v-1.2c.6,0,1-.1,1.2-.4a1.82,1.82,0,0,0,.4-1.1c0-.5.1-1,.1-1.6V92l-2.2.1v-2h2.2v-.6Z"/><path class="cls-2" d="M109.18,89.49a8.44,8.44,0,0,1,1.2-4.9,4.52,4.52,0,0,1,3.9-1.7,4.15,4.15,0,0,1,1.6.3,2.55,2.55,0,0,1,1.2.8,1.59,1.59,0,0,1,.4,1.2,1.49,1.49,0,0,1-.3,1,1.53,1.53,0,0,1-1,.4,1.05,1.05,0,0,1-1-.4,1.61,1.61,0,0,1-.3-.9V85a.37.37,0,0,1,.1-.3.85.85,0,0,0-.5-.3,1.09,1.09,0,0,0-.5-.1,1.25,1.25,0,0,0-1.1.4,2.87,2.87,0,0,0-.6,1.1,5.85,5.85,0,0,0-.2,1.3v3.1h3.6v1.5l-3.6.1v10a4.48,4.48,0,0,1-.1,1.1h1.8v1.5h-6.3v-1.2c.6,0,1-.1,1.2-.4a1.82,1.82,0,0,0,.4-1.1c0-.5.1-1,.1-1.6V92l-2.2.1v-2h2.2v-.6Z"/><path class="cls-2" d="M123.88,104.59a6.76,6.76,0,0,1-3.5-.9,7,7,0,0,1-2.5-2.6,8.47,8.47,0,0,1,0-7.6,6.78,6.78,0,0,1,2.5-2.8,6.63,6.63,0,0,1,3.7-1,5.38,5.38,0,0,1,2.2.4,5.24,5.24,0,0,1,1.9,1.1,4.64,4.64,0,0,1,1.3,2,8.53,8.53,0,0,1,.5,3l-9.6.2a11.76,11.76,0,0,0,.4,3.4,4.75,4.75,0,0,0,1.4,2.3,4.15,4.15,0,0,0,2.5.8,5,5,0,0,0,1.6-.3,4.81,4.81,0,0,0,1.6-.8,4.89,4.89,0,0,0,1.3-1.2l.9.8a9.13,9.13,0,0,1-1.9,2,7.17,7.17,0,0,1-2.2,1A14.92,14.92,0,0,1,123.88,104.59Zm-3.4-9.8H127a5.82,5.82,0,0,0-.3-1.9,3.39,3.39,0,0,0-.9-1.4,2.54,2.54,0,0,0-1.6-.5,3.24,3.24,0,0,0-2.4.9A5.2,5.2,0,0,0,120.48,94.79Z"/><path class="cls-2" d="M139.08,104.59a6.76,6.76,0,0,1-3.5-.9,7,7,0,0,1-2.5-2.6,8.47,8.47,0,0,1,0-7.6,6.78,6.78,0,0,1,2.5-2.8,6.63,6.63,0,0,1,3.7-1,5.38,5.38,0,0,1,2.2.4,5.24,5.24,0,0,1,1.9,1.1,4.64,4.64,0,0,1,1.3,2,8.53,8.53,0,0,1,.5,3l-9.6.2a11.76,11.76,0,0,0,.4,3.4,4.75,4.75,0,0,0,1.4,2.3,4.15,4.15,0,0,0,2.5.8,5,5,0,0,0,1.6-.3,4.81,4.81,0,0,0,1.6-.8,4.89,4.89,0,0,0,1.3-1.2l.9.8a9.13,9.13,0,0,1-1.9,2,7.17,7.17,0,0,1-2.2,1A18.32,18.32,0,0,1,139.08,104.59Zm-3.5-9.8h6.5a5.82,5.82,0,0,0-.3-1.9,3.39,3.39,0,0,0-.9-1.4,2.54,2.54,0,0,0-1.6-.5,3.24,3.24,0,0,0-2.4.9A5.2,5.2,0,0,0,135.58,94.79Z"/><path class="cls-2" d="M62.78,184.09v-1.2c.6,0,1.1-.1,1.3-.4a1.6,1.6,0,0,0,.5-1,9.72,9.72,0,0,0,.1-1.8v-12.8a3.08,3.08,0,0,1,.1-1,3.4,3.4,0,0,0-1,.1,3.08,3.08,0,0,0-1,.1v-1.5h6.8a9.76,9.76,0,0,1,5.2,1.2,3.9,3.9,0,0,1,1.8,3.7,3.37,3.37,0,0,1-.5,1.7,3.61,3.61,0,0,1-1.5,1.5,8.66,8.66,0,0,1-2.4,1v.1a6.59,6.59,0,0,1,4.5,1.6,4.48,4.48,0,0,1,1.5,3.4,4.86,4.86,0,0,1-.9,3,5.66,5.66,0,0,1-2.4,1.9,9,9,0,0,1-3.4.6h-8.7Zm4.8-1.4h2.9a4.77,4.77,0,0,0,3.2-1.1,3.72,3.72,0,0,0,1.1-3,4.63,4.63,0,0,0-.6-2.5,3.11,3.11,0,0,0-1.6-1.2,7.8,7.8,0,0,0-2.2-.4h-2.7v7A10.53,10.53,0,0,1,67.58,182.69Zm.1-9.4,1.8-.1a3.92,3.92,0,0,0,2.3-.6,2.89,2.89,0,0,0,1.2-1.5,4.22,4.22,0,0,0,.3-1.9,3.28,3.28,0,0,0-.6-2.1,3.07,3.07,0,0,0-1.5-1,5.08,5.08,0,0,0-1.7-.3,3.73,3.73,0,0,0-1.2.2,1,1,0,0,0-.6.8,6.27,6.27,0,0,0-.2,1.6v4.9Z"/><path class="cls-2" d="M86.08,184.59a5.26,5.26,0,0,1-2.6-.6,3.24,3.24,0,0,1-1.5-1.9,11.52,11.52,0,0,1-.5-3.6v-5.4a3.4,3.4,0,0,1,.1-1h-2v-1.5h.7a5.84,5.84,0,0,0,2.1-.3,3,3,0,0,0,1-.5h1.1v8.5a6.91,6.91,0,0,0,.6,3.3,2.25,2.25,0,0,0,2.1,1.1,3.23,3.23,0,0,0,1.8-.6,4.42,4.42,0,0,0,1.4-1.3V173c0-.4.1-.7.1-1h-2v-1.5h.8a4.7,4.7,0,0,0,1.9-.3,4.61,4.61,0,0,0,1-.5h1.1v11.5a6.15,6.15,0,0,1-.1,1.4,3.75,3.75,0,0,0,1-.1h1V184h-4.5c0-.3-.1-.6-.1-.8s-.1-.5-.1-.8a14.29,14.29,0,0,1-2,1.4A3.49,3.49,0,0,1,86.08,184.59Z"/><path class="cls-2" d="M102.48,184.59a6.75,6.75,0,0,1-1.4-.2,3.29,3.29,0,0,1-1.3-.7,3.07,3.07,0,0,1-.9-1.6,10.06,10.06,0,0,1-.3-2.7l.1-7.6h-2.1v-1.7a2.4,2.4,0,0,0,1.5-.6,6.2,6.2,0,0,0,1.4-1.4,4.55,4.55,0,0,0,.8-1.9h1.3v3.9h4.3v1.5l-4.3.1-.1,7.5a11.08,11.08,0,0,0,.2,1.9,2.28,2.28,0,0,0,.6,1.2,1.59,1.59,0,0,0,1.2.4,2.2,2.2,0,0,0,1.3-.4,4,4,0,0,0,1.3-1.3l1,.8a5,5,0,0,1-1.3,1.5,4.58,4.58,0,0,1-1.3.8,2.61,2.61,0,0,1-1.1.3C103.08,184.39,102.68,184.59,102.48,184.59Z"/><path class="cls-2" d="M113.58,184.59a6.75,6.75,0,0,1-1.4-.2,3.29,3.29,0,0,1-1.3-.7,3.07,3.07,0,0,1-.9-1.6,10.06,10.06,0,0,1-.3-2.7l.1-7.6h-2.1v-1.7a2.4,2.4,0,0,0,1.5-.6,6.2,6.2,0,0,0,1.4-1.4,4.55,4.55,0,0,0,.8-1.9h1.3v3.9H117v1.5l-4.3.1-.1,7.5a11.08,11.08,0,0,0,.2,1.9,2.28,2.28,0,0,0,.6,1.2,1.59,1.59,0,0,0,1.2.4,2.2,2.2,0,0,0,1.3-.4,4,4,0,0,0,1.3-1.3l1,.8a5,5,0,0,1-1.3,1.5,4.58,4.58,0,0,1-1.3.8,2.61,2.61,0,0,1-1.1.3C114.18,184.39,113.78,184.59,113.58,184.59Z"/><path class="cls-2" d="M126.08,184.59a6.76,6.76,0,0,1-3.5-.9,7,7,0,0,1-2.5-2.6,8.47,8.47,0,0,1,0-7.6,6.78,6.78,0,0,1,2.5-2.8,6.63,6.63,0,0,1,3.7-1,5.38,5.38,0,0,1,2.2.4,5.24,5.24,0,0,1,1.9,1.1,4.64,4.64,0,0,1,1.3,2,8.53,8.53,0,0,1,.5,3l-9.6.2a11.76,11.76,0,0,0,.4,3.4,4.75,4.75,0,0,0,1.4,2.3,4.15,4.15,0,0,0,2.5.8,5,5,0,0,0,1.6-.3,4.81,4.81,0,0,0,1.6-.8,4.89,4.89,0,0,0,1.3-1.2l.9.8a9.13,9.13,0,0,1-1.9,2,7.17,7.17,0,0,1-2.2,1A18.32,18.32,0,0,1,126.08,184.59Zm-3.5-9.8h6.5a5.82,5.82,0,0,0-.3-1.9,3.39,3.39,0,0,0-.9-1.4,2.54,2.54,0,0,0-1.6-.5,3.24,3.24,0,0,0-2.4.9A5.2,5.2,0,0,0,122.58,174.79Z"/><path class="cls-2" d="M134.48,183c.6,0,1-.1,1.2-.4a1.82,1.82,0,0,0,.4-1.1c0-.5.1-1,.1-1.6v-6.8a3.4,3.4,0,0,1,.1-1h-2v-1.5h1a4.18,4.18,0,0,0,1.8-.3,3.6,3.6,0,0,0,.9-.5h1c0,.3.1.6.1,1.1a9.15,9.15,0,0,0,.1,1.6,17.41,17.41,0,0,1,1.2-1.4,4.92,4.92,0,0,1,1.5-1,3.29,3.29,0,0,1,1.7-.4,2.46,2.46,0,0,1,1.5.5,1.75,1.75,0,0,1,.6,1.5,1.42,1.42,0,0,1-.2.6,1.47,1.47,0,0,1-.5.6,1.9,1.9,0,0,1-.9.3,1.78,1.78,0,0,1-1-.4,1.5,1.5,0,0,1-.4-1.1,2.2,2.2,0,0,0-1.3.4,4.15,4.15,0,0,0-1.2,1.1,5.6,5.6,0,0,0-1,1.5v7.1a3.4,3.4,0,0,1-.1,1h1.8v1.5h-6.3l-.1-1.3Z"/><path class="cls-2" d="M65.58,212.89a2,2,0,0,0,1.3-.4,1.6,1.6,0,0,0,.5-1,8.12,8.12,0,0,0,.1-1.7v-12.9a3.08,3.08,0,0,1,.1-1,3.4,3.4,0,0,0-1,.1,3.08,3.08,0,0,0-1,.1v-1.5h6.9a14.86,14.86,0,0,1,4.5.6,5.82,5.82,0,0,1,2.8,1.9,4.72,4.72,0,0,1,1,3.2,6.56,6.56,0,0,1-.4,2.3,7.44,7.44,0,0,1-1.4,2.2,7.18,7.18,0,0,1-2.7,1.6,13.09,13.09,0,0,1-4.3.6h-1.3v4.9a3.08,3.08,0,0,1-.1,1,2.2,2.2,0,0,0,.8-.1h1.7v1.6h-7.4l-.1-1.5Zm4.9-7.5c.3,0,.6.1.8.1h.8a6.39,6.39,0,0,0,2.8-.6,5.19,5.19,0,0,0,1.9-1.7,5.38,5.38,0,0,0,.7-2.7,5.56,5.56,0,0,0-.4-2.3,2.67,2.67,0,0,0-1.1-1.4,4.59,4.59,0,0,0-1.6-.7,12.31,12.31,0,0,0-2-.2,1.74,1.74,0,0,0-1.2.3,1.6,1.6,0,0,0-.5,1,8.12,8.12,0,0,0-.1,1.7l-.1,6.5Z"/><path class="cls-2" d="M89.28,214.59a6.76,6.76,0,0,1-3.5-.9,7,7,0,0,1-2.5-2.6,8.47,8.47,0,0,1,0-7.6,6.78,6.78,0,0,1,2.5-2.8,6.63,6.63,0,0,1,3.7-1,5.38,5.38,0,0,1,2.2.4,5.24,5.24,0,0,1,1.9,1.1,4.64,4.64,0,0,1,1.3,2,8.53,8.53,0,0,1,.5,3l-9.6.2a11.76,11.76,0,0,0,.4,3.4,4.75,4.75,0,0,0,1.4,2.3,4.15,4.15,0,0,0,2.5.8,5,5,0,0,0,1.6-.3,4.81,4.81,0,0,0,1.6-.8,4.89,4.89,0,0,0,1.3-1.2l.9.8a9.13,9.13,0,0,1-1.9,2,7.17,7.17,0,0,1-2.2,1A18.32,18.32,0,0,1,89.28,214.59Zm-3.5-9.8h6.5a5.82,5.82,0,0,0-.3-1.9,3.39,3.39,0,0,0-.9-1.4,2.54,2.54,0,0,0-1.6-.5,3.24,3.24,0,0,0-2.4.9A6,6,0,0,0,85.78,204.79Z"/><path class="cls-2" d="M104.38,214.59a6.4,6.4,0,0,1-3.4-.9,6.67,6.67,0,0,1-2.5-2.5,8,8,0,0,1-.9-3.9,9.29,9.29,0,0,1,.5-2.9,7.93,7.93,0,0,1,1.5-2.5,6.58,6.58,0,0,1,2.3-1.7,7.31,7.31,0,0,1,3-.6,7.78,7.78,0,0,1,2.8.5,4.2,4.2,0,0,1,1.8,1.3,2.79,2.79,0,0,1,.6,1.8,1.92,1.92,0,0,1-.4,1.2,1.43,1.43,0,0,1-1.1.5c-.5,0-.9-.1-1.1-.5a1.93,1.93,0,0,1-.3-1,1.27,1.27,0,0,1,.1-.6l.3-.6a1.6,1.6,0,0,0-.7-.9,4.18,4.18,0,0,0-1-.4,3.44,3.44,0,0,0-.9-.1,3.65,3.65,0,0,0-2.9,1.5,6.38,6.38,0,0,0-1.2,4.2,9.59,9.59,0,0,0,.5,3.1,5.74,5.74,0,0,0,1.5,2.2,4.07,4.07,0,0,0,2.4.8,4.2,4.2,0,0,0,2.4-.7,7.72,7.72,0,0,0,1.9-1.7l.9.8a7.28,7.28,0,0,1-1.9,2,6.7,6.7,0,0,1-2.1,1A8.3,8.3,0,0,1,104.38,214.59Z"/><path class="cls-2" d="M120.68,214.09c0-.3-.1-.6-.1-.8a1.7,1.7,0,0,0-.1-.7,6.61,6.61,0,0,1-2,1.4,5.93,5.93,0,0,1-2.3.5,3.89,3.89,0,0,1-3-1,3.53,3.53,0,0,1-.2-4.7,6.42,6.42,0,0,1,2-1.6,10.71,10.71,0,0,1,2.7-.9,14.28,14.28,0,0,1,2.9-.3v-1.7a8.81,8.81,0,0,0-.2-1.7,2.39,2.39,0,0,0-.7-1.3,2.35,2.35,0,0,0-1.6-.5,4,4,0,0,0-1.5.3,1.82,1.82,0,0,0-1.1,1,2.19,2.19,0,0,1,.3.5,1.09,1.09,0,0,1,.1.5,1.61,1.61,0,0,1-.3.9,1.29,1.29,0,0,1-1.1.5,1.23,1.23,0,0,1-1-.5,2.1,2.1,0,0,1-.4-1.1,2.41,2.41,0,0,1,.7-1.8,5.61,5.61,0,0,1,2-1.2,8.85,8.85,0,0,1,2.9-.4,4.55,4.55,0,0,1,3.6,1.3,5.63,5.63,0,0,1,1.2,4v6.7a4.1,4.1,0,0,1-.1,1.1,3.75,3.75,0,0,0,1-.1,3.33,3.33,0,0,1,1,0V214h-4.7v.1Zm-.2-6.7a5.66,5.66,0,0,0-1.8.3,4.92,4.92,0,0,0-1.7.6,4,4,0,0,0-1.2,1,2.46,2.46,0,0,0-.5,1.5,1.68,1.68,0,0,0,.6,1.4,2.12,2.12,0,0,0,1.4.4,3.06,3.06,0,0,0,1.7-.4,13,13,0,0,0,1.5-1v-3.8Z"/><path class="cls-2" d="M127,214.09v-1.2c.6,0,1-.1,1.2-.4a1.82,1.82,0,0,0,.4-1.1c0-.5.1-1,.1-1.6V203a3.4,3.4,0,0,1,.1-1h-2v-1.5a11.52,11.52,0,0,0,2-.1,8.11,8.11,0,0,0,1.1-.3,1.27,1.27,0,0,0,.6-.4h1v1.6c.4-.3.9-.6,1.3-.9a4.71,4.71,0,0,1,1.5-.6,3.89,3.89,0,0,1,1.5-.2,4.09,4.09,0,0,1,3.6,1.5,8.35,8.35,0,0,1,1.1,4.7v5.7a3.4,3.4,0,0,1-.1,1h1.8V214H136v-1.2c.6,0,1-.1,1.2-.4a1.82,1.82,0,0,0,.4-1.1c0-.5.1-1,.1-1.6v-3.9a6.75,6.75,0,0,0-.7-3.3,2.53,2.53,0,0,0-2.2-1.1,3.92,3.92,0,0,0-1.8.4,5.83,5.83,0,0,0-1.5,1.1v8.7a3.4,3.4,0,0,1-.1,1h1.8v1.5Z"/></g></g></svg>