<svg xmlns="http://www.w3.org/2000/svg" viewBox="0 0 408.77 151.32"><defs><style>.cls-1{fill:#a5bc7b;}.cls-2{fill:#1a0f01;}</style></defs><g id="Layer_2" data-name="Layer 2"><g id="Layer_1-2" data-name="Layer 1"><path class="cls-1" d="M398.76,63.33a13.61,13.61,0,0,1-1.1,2.5c-.8,1-.3,1.6,1.3,2.3,2.6,1.1,5.2,2.2,7.6,3.5,3,1.6,2.9,2.4-.1,3.9-2.3,1.2-4.7,2.3-7,3.4-2.9,1.3-3.1,1.4-1.6,3.2,2,2.6.8,4.8-2,7a13.54,13.54,0,0,1-7.7,2.4c-2.6,0-3.4.8-4,2a19.83,19.83,0,0,1-7.7,8.5,38.57,38.57,0,0,1-6.1,2.6,6.73,6.73,0,0,1-4.6-.4,30.53,30.53,0,0,0-5.6-1.6c-3.4-.6-4.4-.3-6.7,1.2-4,2.7-7.9,5.4-12.3,7.9-13.4,7.8-29.4,13.6-47.1,18.2a356.85,356.85,0,0,1-44,8.2,10.21,10.21,0,0,0-5.4,2A30.52,30.52,0,0,1,227,147a57.93,57.93,0,0,1-11-.5c-3.2-.3-5.5-.1-7.8,1.2a72.76,72.76,0,0,1-6.8,3,6.46,6.46,0,0,1-5.6-.1c-2.3-1.1-4.8-2.1-6.9-3.3a6.68,6.68,0,0,0-5.1-.7,43.09,43.09,0,0,1-11.9.6c-8.1-.8-13.7-3.4-17.9-7.1a7.43,7.43,0,0,0-4.2-1.7c-21.5-2.5-41.8-6.6-60.5-12.9-15.3-5.2-28.7-11.6-38.3-20a5.13,5.13,0,0,0-4.8-1,43.69,43.69,0,0,0-6.7,1.8,7.21,7.21,0,0,1-4.8.2,15.45,15.45,0,0,1-8.7-5.9,37.26,37.26,0,0,1-3.4-5.7c-.4-.8-1-1.1-2.6-1.1-8.4-.1-13.6-4.8-9.7-8.8,1.9-1.9,1.8-1.9-1.3-3.2-2.6-1.1-5.2-2.2-7.6-3.5-1.9-1-1.8-1.4.2-2.4,3-1.4,5.9-2.8,9-4.2,1.2-.6,1.7-1.2,1.2-2-2.4-4.6.8-8,9.3-9.4,2.9-.5,4-1.3,4.6-2.8,1.7-3.9,5.4-7.2,11.2-9.7,3.4-1.5,4.3-1.5,8-.3a10.55,10.55,0,0,0,1.9.5c4.6,1.1,5.4.9,8.4-1.2,14.3-10.2,31.8-18.2,53.2-23.7a360.16,360.16,0,0,1,40.1-8.5c5.5-.8,9.3-2.1,12.6-4.6,4.8-3.7,11.8-5.8,20.4-5.9a39.37,39.37,0,0,1,6.9.7,6.49,6.49,0,0,0,4-.4c2.8-1.3,5.7-2.6,8.6-3.8a7.45,7.45,0,0,1,6.2.1c2,.9,4.1,1.7,6,2.7a8.5,8.5,0,0,0,6,.8,35.53,35.53,0,0,1,19.5,1.3,54.3,54.3,0,0,1,9.6,5.2,12.31,12.31,0,0,0,5.1,1.8c14.6,1.8,29.3,3.7,42.8,7.3,22.1,5.9,42,13.4,56.8,24.3,2.5,1.8,3.9,2,7.6,1.1,1.5-.4,2.9-.8,4.3-1.3,3.2-1.1,4.9-1.1,7.8.2,3.8,1.7,6.4,3.7,8.1,6.2,1.1,1.6,2.2,3.2,3.1,4.8.6,1,1.7,1.4,3.6,1.5C394.46,57,398.66,59.43,398.76,63.33Zm-192-42c-6.4.2-12.8.2-19.1.5a354.76,354.76,0,0,0-40.3,4.5c-20.2,3.2-38.5,8.3-54.8,15.5-14.1,6.3-25.9,13.5-32.1,23-3.1,4.7-5.3,9.4-4.4,14.4,2,10.2,9.8,19,23,26.3,20.5,11.4,46.3,17.5,74.3,21a379.56,379.56,0,0,0,73.9,1.6c25.8-1.9,50.5-5.7,72.6-13.5,12.6-4.4,24.6-9.3,33.5-16,6.8-5.2,12.4-10.7,15-17,3.3-7.7,2-15.3-4.4-22.5a70.31,70.31,0,0,0-25.7-18.6c-20-8.5-42.8-13.7-67.3-16.9A403.71,403.71,0,0,0,206.76,21.33Z"/><path class="cls-2" d="M81.76,83.83v-1.2a2,2,0,0,0,1.3-.4,1.6,1.6,0,0,0,.5-1,8.12,8.12,0,0,0,.1-1.7V66.73a3.08,3.08,0,0,1,.1-1,3.4,3.4,0,0,0-1,.1,3.08,3.08,0,0,0-1,.1v-1.5h13.3l.2,5.1h-1.2a4.77,4.77,0,0,0-.5-2.4,2.49,2.49,0,0,0-1.4-1.1,5.66,5.66,0,0,0-1.8-.3l-1.7.1a1.7,1.7,0,0,0-1.3.4,1.6,1.6,0,0,0-.5,1,8.12,8.12,0,0,0-.1,1.7v4.8H91l-.2-2.4h1.5v6.2h-1.2a3,3,0,0,0-.4-1.8,1.1,1.1,0,0,0-1-.6c-.4,0-1-.1-1.7-.1l-1.2.1v6.6a3.08,3.08,0,0,1-.1,1h2.8v1.5h-7.7v-.4Z"/><path class="cls-2" d="M97.06,82.63c.6,0,1-.1,1.2-.4a1.82,1.82,0,0,0,.4-1.1c0-.5.1-1,.1-1.6v-6.8a3.4,3.4,0,0,1,.1-1h-2v-1.5h1a4.18,4.18,0,0,0,1.8-.3,3.6,3.6,0,0,0,.9-.5h1c0,.3.1.6.1,1.1a9.15,9.15,0,0,0,.1,1.6,17.41,17.41,0,0,1,1.2-1.4,4.92,4.92,0,0,1,1.5-1,3.29,3.29,0,0,1,1.7-.4,2.46,2.46,0,0,1,1.5.5,1.75,1.75,0,0,1,.6,1.5,1.42,1.42,0,0,1-.2.6,1.47,1.47,0,0,1-.5.6,1.9,1.9,0,0,1-.9.3,1.78,1.78,0,0,1-1-.4,1.5,1.5,0,0,1-.4-1.1,2.2,2.2,0,0,0-1.3.4,4.15,4.15,0,0,0-1.2,1.1,5.6,5.6,0,0,0-1,1.5v7.1a3.4,3.4,0,0,1-.1,1h1.8v1.5h-6.3l-.1-1.3Z"/><path class="cls-2" d="M118,83.83c0-.3-.1-.6-.1-.8a1.7,1.7,0,0,0-.1-.7,6.61,6.61,0,0,1-2,1.4,5.93,5.93,0,0,1-2.3.5,3.89,3.89,0,0,1-3-1,3.53,3.53,0,0,1-.2-4.7,6.42,6.42,0,0,1,2-1.6A10.71,10.71,0,0,1,115,76a14.28,14.28,0,0,1,2.9-.3v-1.6a8.81,8.81,0,0,0-.2-1.7,2.39,2.39,0,0,0-.7-1.3,2.35,2.35,0,0,0-1.6-.5,4,4,0,0,0-1.5.3,1.82,1.82,0,0,0-1.1,1c.1.2.2.3.3.5a4.33,4.33,0,0,0,.1.5,1.61,1.61,0,0,1-.3.9,1.29,1.29,0,0,1-1.1.5,1.23,1.23,0,0,1-1-.5,2.1,2.1,0,0,1-.4-1.1,2.41,2.41,0,0,1,.7-1.8,5.61,5.61,0,0,1,2-1.2,8.85,8.85,0,0,1,2.9-.4,4.55,4.55,0,0,1,3.6,1.3,5.63,5.63,0,0,1,1.2,4v6.7a4.1,4.1,0,0,1-.1,1.1,3.75,3.75,0,0,0,1-.1h1v1.5Zm-.3-6.8a5.66,5.66,0,0,0-1.8.3,4.92,4.92,0,0,0-1.7.6,4,4,0,0,0-1.2,1,2.46,2.46,0,0,0-.5,1.5,1.68,1.68,0,0,0,.6,1.4,2.12,2.12,0,0,0,1.4.4,3.06,3.06,0,0,0,1.7-.4,13,13,0,0,0,1.5-1V77Z"/><path class="cls-2" d="M124.16,83.83v-1.2c.6,0,1-.1,1.2-.4a1.82,1.82,0,0,0,.4-1.1c0-.5.1-1,.1-1.6v-6.8a3.4,3.4,0,0,1,.1-1h-2v-1.5a11.52,11.52,0,0,0,2-.1,8.11,8.11,0,0,0,1.1-.3,1.27,1.27,0,0,0,.6-.4h1V71c.4-.3.9-.6,1.3-.9a4.71,4.71,0,0,1,1.5-.6,3.89,3.89,0,0,1,1.5-.2,4.09,4.09,0,0,1,3.6,1.5,8.35,8.35,0,0,1,1.1,4.7v5.7a3.4,3.4,0,0,1-.1,1h1.8v1.5h-6.2v-1.2c.6,0,1-.1,1.2-.4a1.82,1.82,0,0,0,.4-1.1c0-.5.1-1,.1-1.6v-3.9a6.75,6.75,0,0,0-.7-3.3,2.41,2.41,0,0,0-2.2-1.1,3.92,3.92,0,0,0-1.8.4,5.83,5.83,0,0,0-1.5,1.1v8.7a3.4,3.4,0,0,1-.1,1h1.8v1.5Z"/><path class="cls-2" d="M141.16,83.83v-1.2a1.46,1.46,0,0,0,1.2-.4,2.82,2.82,0,0,0,.4-1.1c0-.5.1-1,.1-1.6V65.83a3.4,3.4,0,0,1,.1-1h-2v-1.5a11.52,11.52,0,0,0,2-.1,10.38,10.38,0,0,0,1.2-.3.92.92,0,0,0,.6-.4h1.1v13.1h1.2l2.9-3.2.8-.8a4.35,4.35,0,0,1,.7-.6l-1.8.1v-1.5h5.5v1.1a5.46,5.46,0,0,0-1.8.6,5.26,5.26,0,0,0-1.4,1.1l-1.1,1.1-2.1,2.2a3.49,3.49,0,0,1,.9.6,8.74,8.74,0,0,1,.8,1l2,2.5a7.37,7.37,0,0,0,.5.6,10.25,10.25,0,0,0,1.7,1.7,1.61,1.61,0,0,0,.9.3v1.2h-2.8a2.24,2.24,0,0,1-1.5-.8,14.28,14.28,0,0,1-1.5-1.8c-.4-.6-.9-1.2-1.2-1.7a17,17,0,0,0-1-1.4,11.49,11.49,0,0,0-.8-1l-1,.1v4.2a3.4,3.4,0,0,1-.1,1h1.8v1.5l-6.3.1Z"/><path class="cls-2" d="M156.66,82.63c.6,0,1-.1,1.2-.4a1.82,1.82,0,0,0,.4-1.1c0-.5.1-1,.1-1.6V65.83a3.4,3.4,0,0,1,.1-1h-2v-1.5a11.52,11.52,0,0,0,2-.1,5.31,5.31,0,0,0,1.1-.3c.2-.1.5-.2.6-.4h1.1v18.7a3.4,3.4,0,0,1-.1,1H163v1.5h-6.3v-1.1Z"/><path class="cls-2" d="M165.06,82.63c.6,0,1-.1,1.2-.4a1.82,1.82,0,0,0,.4-1.1c0-.5.1-1,.1-1.6v-6.8a4.1,4.1,0,0,1,.1-1.1h-2v-1.5a11.52,11.52,0,0,0,2-.1,5.31,5.31,0,0,0,1.1-.3.92.92,0,0,0,.6-.4h1.1v11.8a3.4,3.4,0,0,1-.1,1h1.8v1.5h-6.2l-.1-1Zm2.9-15.7a1.66,1.66,0,0,1-1.2-.5,2.11,2.11,0,0,1-.5-1.3,1.9,1.9,0,0,1,.5-1.3,1.58,1.58,0,0,1,1.2-.5,1.66,1.66,0,0,1,1.2.5,2.11,2.11,0,0,1,.5,1.3,1.9,1.9,0,0,1-.5,1.3A1.66,1.66,0,0,1,168,66.93Z"/><path class="cls-2" d="M173.26,83.83v-1.2c.6,0,1-.1,1.2-.4a1.82,1.82,0,0,0,.4-1.1c0-.5.1-1,.1-1.6v-6.8a3.4,3.4,0,0,1,.1-1h-2v-1.5a11.52,11.52,0,0,0,2-.1,8.11,8.11,0,0,0,1.1-.3,1.27,1.27,0,0,0,.6-.4h1V71c.4-.3.9-.6,1.3-.9a4.71,4.71,0,0,1,1.5-.6,3.89,3.89,0,0,1,1.5-.2,4.09,4.09,0,0,1,3.6,1.5,8.35,8.35,0,0,1,1.1,4.7v5.7a3.4,3.4,0,0,1-.1,1h1.8v1.5h-6.2v-1.2c.6,0,1-.1,1.2-.4a1.82,1.82,0,0,0,.4-1.1c0-.5.1-1,.1-1.6v-3.9a6.75,6.75,0,0,0-.7-3.3,2.41,2.41,0,0,0-2.2-1.1,3.92,3.92,0,0,0-1.8.4,5.83,5.83,0,0,0-1.5,1.1v8.7a3.4,3.4,0,0,1-.1,1h1.8v1.5Z"/><path class="cls-2" d="M208.56,84c-.8-1.8-1.5-3.5-2.3-5.3s-1.5-3.5-2.3-5.3c-.2-.5-.5-1.1-.7-1.7s-.5-1.3-.7-2-.5-1.4-.7-2.1v2.7a14.08,14.08,0,0,1-.1,2,21.75,21.75,0,0,1-.1,2.5,22.6,22.6,0,0,1-.1,2.6v3.8a3.75,3.75,0,0,1-.1,1.1c.3,0,.7-.1,1.1-.1h1v1.5h-5.7v-1.2a2.13,2.13,0,0,0,1.2-.3,1.56,1.56,0,0,0,.6-.8,4.64,4.64,0,0,0,.2-1.4l.4-12.1a4.87,4.87,0,0,1,.1-1.2,3.75,3.75,0,0,1,.1-1.1h-2.1v-1.5h4.9l4.6,11c.2.5.4,1,.7,1.6s.5,1.1.7,1.7.4,1.1.6,1.6h.1a13.36,13.36,0,0,1,.7-1.8c.3-.7.5-1.3.7-1.8.8-2,1.6-4,2.5-6s1.6-4.1,2.4-6.2h4.9v1.2a3.59,3.59,0,0,0-1.1.2,1.68,1.68,0,0,0-.7.9,7.45,7.45,0,0,0-.2,1.8l.6,12.1a4.05,4.05,0,0,1,0,1.1v.9h2.1v1.5h-6.8v-1.2a1.92,1.92,0,0,0,1.2-.3,1.44,1.44,0,0,0,.6-1,8.62,8.62,0,0,0,.1-1.7l-.4-8.1a3.75,3.75,0,0,0-.1-1,4.87,4.87,0,0,0-.1-1.2c0-.4-.1-.8-.1-1.2-.1.1-.1.3-.2.4s-.1.3-.2.5l-6,15.2h-1.3V84Z"/><path class="cls-2" d="M224.16,82.63c.6,0,1-.1,1.2-.4a1.82,1.82,0,0,0,.4-1.1c0-.5.1-1,.1-1.6v-6.8a4.1,4.1,0,0,1,.1-1.1h-2v-1.5a11.52,11.52,0,0,0,2-.1,5.31,5.31,0,0,0,1.1-.3.92.92,0,0,0,.6-.4h1.1v11.8a3.4,3.4,0,0,1-.1,1h1.8v1.5h-6.2l-.1-1Zm3-15.7a1.66,1.66,0,0,1-1.2-.5,2.11,2.11,0,0,1-.5-1.3,1.9,1.9,0,0,1,.5-1.3,1.58,1.58,0,0,1,1.2-.5,1.66,1.66,0,0,1,1.2.5,2.11,2.11,0,0,1,.5,1.3,1.9,1.9,0,0,1-.5,1.3A1.66,1.66,0,0,1,227.16,66.93Z"/><path class="cls-2" d="M232.46,83.83v-1.2c.6,0,1-.1,1.2-.4a1.82,1.82,0,0,0,.4-1.1c0-.5.1-1,.1-1.6v-6.8a3.4,3.4,0,0,1,.1-1h-2v-1.5a11.52,11.52,0,0,0,2-.1,8.11,8.11,0,0,0,1.1-.3,1.27,1.27,0,0,0,.6-.4h1V71c.4-.3.9-.6,1.3-.9a4.71,4.71,0,0,1,1.5-.6,3.89,3.89,0,0,1,1.5-.2,4.09,4.09,0,0,1,3.6,1.5,8.35,8.35,0,0,1,1.1,4.7v5.7a3.4,3.4,0,0,1-.1,1h1.8v1.5h-6.2v-1.2c.6,0,1-.1,1.2-.4a1.82,1.82,0,0,0,.4-1.1c0-.5.1-1,.1-1.6v-3.9a6.75,6.75,0,0,0-.7-3.3,2.41,2.41,0,0,0-2.2-1.1,3.92,3.92,0,0,0-1.8.4,5.83,5.83,0,0,0-1.5,1.1v8.7a3.4,3.4,0,0,1-.1,1h1.8v1.5Z"/><path class="cls-2" d="M255.06,84.23a6.75,6.75,0,0,1-1.4-.2,3.29,3.29,0,0,1-1.3-.7,3.54,3.54,0,0,1-.9-1.6,10.06,10.06,0,0,1-.3-2.7l.1-7.6h-2.1v-1.6a2.4,2.4,0,0,0,1.5-.6,6.2,6.2,0,0,0,1.4-1.4,4.55,4.55,0,0,0,.8-1.9h1.3v3.9h4.3v1.5l-4.3.1-.1,7.5a11.08,11.08,0,0,0,.2,1.9,2.28,2.28,0,0,0,.6,1.2,1.59,1.59,0,0,0,1.2.4,2.2,2.2,0,0,0,1.3-.4,4,4,0,0,0,1.3-1.3l1,.8a5,5,0,0,1-1.3,1.5,4.58,4.58,0,0,1-1.3.8,2.61,2.61,0,0,1-1.1.3C255.66,84.13,255.26,84.23,255.06,84.23Z"/><path class="cls-2" d="M283.56,70.43a6.42,6.42,0,0,0-1.7-3.9,5.31,5.31,0,0,0-3.7-1.4,5.7,5.7,0,0,0-4.8,2.4,8.67,8.67,0,0,0-1.4,2.7,12.3,12.3,0,0,0-.5,3.5,10.63,10.63,0,0,0,.9,4.5,7.65,7.65,0,0,0,2.5,3.1,6.63,6.63,0,0,0,3.6,1.1,7.3,7.3,0,0,0,3.5-.9,8.49,8.49,0,0,0,2.9-2.4l.9.8a9.89,9.89,0,0,1-2.7,2.7,9.45,9.45,0,0,1-2.8,1.2,12.22,12.22,0,0,1-2.6.3,10.06,10.06,0,0,1-3.9-.8,8.13,8.13,0,0,1-3-2.1,11.56,11.56,0,0,1-2-3.2,10,10,0,0,1-.7-3.9,12.09,12.09,0,0,1,.6-3.8,11.12,11.12,0,0,1,1.8-3.4,8.86,8.86,0,0,1,3-2.4,9.42,9.42,0,0,1,4.3-.9,8.63,8.63,0,0,1,2.8.4,12.27,12.27,0,0,1,2.6,1.2l-.1-1.4h1.7v6.5l-1.2.1Z"/><path class="cls-2" d="M296.36,82.63c.6,0,1-.1,1.2-.4a1.82,1.82,0,0,0,.4-1.1c0-.5.1-1,.1-1.6v-3.9a5.79,5.79,0,0,0-.7-3.3,2.53,2.53,0,0,0-2.2-1.1,5.84,5.84,0,0,0-1.8.4,4.18,4.18,0,0,0-1.5,1.1v8.6a3.4,3.4,0,0,1-.1,1h1.8v1.5h-6.2v-1.2c.6,0,1-.1,1.2-.4a1.82,1.82,0,0,0,.4-1.1,8.08,8.08,0,0,0,.1-1.6V65.83a3.4,3.4,0,0,1,.1-1h-2v-1.5a11.52,11.52,0,0,0,2-.1,10.38,10.38,0,0,0,1.2-.3.92.92,0,0,0,.6-.4h1V71c.4-.3.9-.6,1.4-.9a4.42,4.42,0,0,1,1.6-.6,8.87,8.87,0,0,1,1.5-.2,4.09,4.09,0,0,1,3.6,1.5,8.35,8.35,0,0,1,1.1,4.7v5.7a3.4,3.4,0,0,1-.1,1h1.8v1.5h-6.3v-1.1Z"/><path class="cls-2" d="M304.56,82.63c.6,0,1-.1,1.2-.4a1.82,1.82,0,0,0,.4-1.1c0-.5.1-1,.1-1.6v-6.8a4.1,4.1,0,0,1,.1-1.1h-2v-1.5a11.52,11.52,0,0,0,2-.1,5.31,5.31,0,0,0,1.1-.3.92.92,0,0,0,.6-.4h1.1v11.8a3.4,3.4,0,0,1-.1,1h1.8v1.5h-6.2l-.1-1Zm3-15.7a1.66,1.66,0,0,1-1.2-.5,2.11,2.11,0,0,1-.5-1.3,1.9,1.9,0,0,1,.5-1.3,1.58,1.58,0,0,1,1.2-.5,1.66,1.66,0,0,1,1.2.5,2.11,2.11,0,0,1,.5,1.3,1.9,1.9,0,0,1-.5,1.3A1.66,1.66,0,0,1,307.56,66.93Z"/><path class="cls-2" d="M312.66,90.93v-1.2c.6,0,1-.1,1.2-.4a1.82,1.82,0,0,0,.4-1.1c0-.5.1-1,.1-1.6v-14a3.4,3.4,0,0,1,.1-1h-2v-1.5a11.52,11.52,0,0,0,2-.1,8.11,8.11,0,0,0,1.1-.3,1.27,1.27,0,0,0,.6-.4h1a2,2,0,0,0,.1.7c.1.3,0,.5.1.8a8.17,8.17,0,0,1,2-1.2,5.7,5.7,0,0,1,2.2-.4,5.29,5.29,0,0,1,3,.9,6.73,6.73,0,0,1,3,6.1,8,8,0,0,1-1,4.1,7,7,0,0,1-2.6,2.8,6.53,6.53,0,0,1-3.6,1,9.85,9.85,0,0,1-1.7-.2,3,3,0,0,1-1.4-.6v5a3.4,3.4,0,0,1-.1,1H319v1.5h-6.3Zm7.4-8.1a3.29,3.29,0,0,0,2.2-.8,4.79,4.79,0,0,0,1.3-2.2,9.72,9.72,0,0,0,.4-3.1,7.66,7.66,0,0,0-.4-2.7,5.28,5.28,0,0,0-1.2-2.1,2.86,2.86,0,0,0-2.2-.8,3.53,3.53,0,0,0-1.7.4,4.49,4.49,0,0,0-1.3,1v9.4a5.39,5.39,0,0,0,1.3.7A10,10,0,0,0,320.06,82.83Z"/></g></g></svg>