<svg xmlns="http://www.w3.org/2000/svg" viewBox="0 0 237.45 330.1"><defs><style>.cls-1{fill:#68aea7;}.cls-2{fill:#1a0f01;}</style></defs><g id="Layer_2" data-name="Layer 2"><g id="Layer_1-2" data-name="Layer 1"><path class="cls-1" d="M28.71,330.1v-4.3c-.2-6.2-.9-6.2-5.9-5a67.53,67.53,0,0,1-7.6,1.4A13.44,13.44,0,0,1,.11,307.1c.7-5.4,3.5-9.8,6.5-14.1.7-1,1.4-1.9,2.1-2.9,1.7-2.6,1.6-4.1-.6-6.4a31.66,31.66,0,0,0-3.6-2.8c-.9-.6-1.1-1.2-.5-2.1,6-9.4,9-19.7,10.3-30.7,1-8,1.9-16.1,1.3-24.2-.6-8.7-2.9-17.1-5.2-25.5-.9-3.2-1.7-6.4-2.4-9.7-.5-2.5.4-4.6,1.9-6.7,4.4-6.1,5.7-13.2,2-19.5-3.4-6-2.6-11.1-.6-16.8,2.2-6.4,4.6-12.8,6.2-19.3,3-12.1,2.9-24.5,2.5-36.9a72.56,72.56,0,0,0-3.6-21.7,62.6,62.6,0,0,0-3.2-7.5c-.8-1.6-.6-2.5.9-3.4a13.29,13.29,0,0,0,2.6-2.1c3.3-3.4,3.6-5.7,1.1-9.7S13,37,12.31,32.2c-1.3-9.5,3.6-17.8,12.6-20.7,4.5-1.4,8.9-.5,13.3.8,4,1.2,4.9.7,5.6-3.5a29.84,29.84,0,0,0,.4-4.2c.1-2.3.7-2.7,2.8-1.7,2.5,1.1,4.9,2.3,7.4,3.4,9,4.2,18,3.5,27.1.3,5.8-2,11.7-3.9,17.7-5.5,7.1-1.8,14.1-1.5,20.7,2.1a20.71,20.71,0,0,1,7.4,7c1.5,2.3,1.9,2.2,3.7.3,5.6-5.6,12-9.7,20.1-10.4A28.87,28.87,0,0,1,163.41,2c4.5,1.6,9,3.2,13.4,5.2,9.4,4.2,18.3,3.3,27.1-1.4,1.8-1,3.6-1.9,5.5-2.8,1.7-.8,2.2-.4,2.1,1.4,0,2.1-.2,4.1-.2,6.2,0,2.8.8,3.4,3.4,2.4a20.63,20.63,0,0,1,10.1-1.5c7.9.9,14.2,9.8,12.3,17.5a43.17,43.17,0,0,1-7.9,16.6,5.26,5.26,0,0,0,.2,7.2,12.2,12.2,0,0,0,3,2.6c1.7,1,1.7,1.9.8,3.6-2.1,4-4.7,8-5.9,12.3-1.7,6.1-2.4,12.5-3.3,18.8-1.9,12.5,0,24.9,1.7,37.3.8,5.5,2.1,11,3.1,16.4.8,4.2.7,8-2.1,11.7-4.1,5.6-3.9,12-1.1,18,2.4,5.1,1.8,9.7-.2,14.7-4.5,11.5-8.1,23.3-9,35.8-.8,10.9-.8,21.8,1.1,32.6.5,2.5,2.2,4.9,3.5,7.2,1.5,2.6,1.5,4-.8,6.1-.8.7-1.6,1.3-2.5,2-3.1,2.2-3.7,4.2-2.3,7.7,1.1,2.8,2.3,5.7,3.6,8.4,5.9,11.6-3,21.3-12.1,23.3a24.5,24.5,0,0,1-11.1-.3c-2.5-.6-3.1-.2-3.5,2.3a38.66,38.66,0,0,0-.3,4.8c.1,2.7-.6,3.2-3.2,2.2a87.8,87.8,0,0,0-8.5-3.3c-7.6-2.3-15-1.2-22.2,1.5-6.7,2.4-13.4,5-20.3,7.1-9.1,2.7-17,.3-23.6-6.6a3.45,3.45,0,0,1-.8-.9c-1.1-1.4-2.1-1.2-3.5-.1a67.68,67.68,0,0,1-9.7,7.2c-7.4,4.3-15.3,4.4-23.4,2.3-6.2-1.6-12.4-3.4-18.6-5-6.6-1.7-12.9-.2-19,2.3-3.2,1.3-6.4,3-9.5,4.5C29.91,329.7,29.41,329.8,28.71,330.1Zm2.5-149.6c-.1,8.4,1.1,20.7,3.1,32.8,2.5,14.6,6.4,28.8,13.1,42a123.2,123.2,0,0,0,19.5,27.6c7.1,7.8,15.2,14.2,25.7,17.1a63.46,63.46,0,0,0,35.1-.2c9.7-2.9,18-8.2,25.6-14.6,14-11.7,24.7-26,33.3-42.1a176.58,176.58,0,0,0,18-51.7c1.5-8.4,2-17,2.7-25.5a174,174,0,0,0-4.8-57.9c-5-19.3-12.9-37.2-25-53.2-7.8-10.3-17.7-18.4-29.8-23C128,24.4,109,27.2,91.61,39c-8.9,6-16.2,13.8-22.7,22.2a209.63,209.63,0,0,0-13.4,19c-7,11.5-11.6,24.1-15.3,37.1A216.67,216.67,0,0,0,31.21,180.5Z"/><path class="cls-2" d="M46.71,213v-1.2a2,2,0,0,0,1.3-.4,1.6,1.6,0,0,0,.5-1,8.12,8.12,0,0,0,.1-1.7V195.9a3.08,3.08,0,0,1,.1-1,3.4,3.4,0,0,0-1,.1,3.08,3.08,0,0,0-1,.1v-1.5h6.9a12.69,12.69,0,0,1,4.3.6,5.54,5.54,0,0,1,2.6,1.8,4.82,4.82,0,0,1,.8,3,5.7,5.7,0,0,1-.4,2.2,4.89,4.89,0,0,1-1.6,2,7.43,7.43,0,0,1-3.1,1.3,2.84,2.84,0,0,1,1,.9,14.63,14.63,0,0,1,.9,1.3l1.7,2.6c.4.6.7,1,1,1.4a2.84,2.84,0,0,0,1,.9,2.77,2.77,0,0,0,1.3.3v1.2h-3.9a7.1,7.1,0,0,1-1.2-1.3c-.3-.5-.7-1-1.1-1.6L55,207.1a8.34,8.34,0,0,0-.8-1.2,10.63,10.63,0,0,0-.9-1.1h-1.8v6a3.08,3.08,0,0,1-.1,1h2.2v1.5h-6.9Zm6.5-9.8a6.69,6.69,0,0,0,2.6-.5,3.91,3.91,0,0,0,1.7-1.4,4.63,4.63,0,0,0,.6-2.5,5,5,0,0,0-.3-1.9,3.05,3.05,0,0,0-1-1.3,3.48,3.48,0,0,0-1.5-.7,11,11,0,0,0-1.8-.2,2.27,2.27,0,0,0-1.3.3,1.6,1.6,0,0,0-.5,1,8.12,8.12,0,0,0-.1,1.7v5.5a2.2,2.2,0,0,1,.8.1A2.2,2.2,0,0,1,53.21,203.2Z"/><path class="cls-2" d="M70.41,213.4a5.26,5.26,0,0,1-2.6-.6,3.24,3.24,0,0,1-1.5-1.9,11.52,11.52,0,0,1-.5-3.6v-5.4a3.4,3.4,0,0,1,.1-1h-2v-1.4h.7a5.84,5.84,0,0,0,2.1-.3,3,3,0,0,0,1-.5h1.1v8.5a6.91,6.91,0,0,0,.6,3.3,2.25,2.25,0,0,0,2.1,1.1,3.23,3.23,0,0,0,1.8-.6,4.42,4.42,0,0,0,1.4-1.3v-7.8c0-.4.1-.7.1-1h-2v-1.4h.8a4.7,4.7,0,0,0,1.9-.3,4.61,4.61,0,0,0,1-.5h1.1v11.5a6.15,6.15,0,0,1-.1,1.4,3.75,3.75,0,0,0,1-.1h1V213H75c0-.3-.1-.6-.1-.8s-.1-.5-.1-.8a14.29,14.29,0,0,1-2,1.4A5.33,5.33,0,0,1,70.41,213.4Z"/><path class="cls-2" d="M81.41,213v-1.2c.6,0,1-.1,1.2-.4a1.82,1.82,0,0,0,.4-1.1c0-.5.1-1,.1-1.6v-6.8a3.4,3.4,0,0,1,.1-1h-2v-1.4a11.52,11.52,0,0,0,2-.1,8.11,8.11,0,0,0,1.1-.3,1.27,1.27,0,0,0,.6-.4h1c0,.2.1.4.1.7v.8a6.66,6.66,0,0,1,2-1.2,5.92,5.92,0,0,1,2.1-.4,5.21,5.21,0,0,1,2.3.5,3.16,3.16,0,0,1,1.4,1.4,9.8,9.8,0,0,1,2.2-1.3,6.87,6.87,0,0,1,2.4-.5,4.23,4.23,0,0,1,3.5,1.4c.8.9,1.1,2.5,1.1,4.7v5.8a3.4,3.4,0,0,1-.1,1h1.8v1.5h-6.2v-1.2a1.25,1.25,0,0,0,1.1-.4,2.82,2.82,0,0,0,.4-1.1c0-.5.1-1,.1-1.6v-4a6,6,0,0,0-.7-3.2,2.39,2.39,0,0,0-2.1-1,4.53,4.53,0,0,0-1.6.3,4.19,4.19,0,0,0-1.4.9,3.55,3.55,0,0,1,.2,1c0,.4.1.8.1,1.2v6.6a3.4,3.4,0,0,1-.1,1h1.8v1.5h-6.2v-1.2a1.46,1.46,0,0,0,1.2-.4,2.82,2.82,0,0,0,.4-1.1c0-.5.1-1,.1-1.6v-4.1a6.91,6.91,0,0,0-.6-3.3,2.18,2.18,0,0,0-2.1-1,4.53,4.53,0,0,0-1.6.3,3.81,3.81,0,0,0-1.3.9v8.9a3.4,3.4,0,0,1-.1,1h1.7V213Z"/><path class="cls-2" d="M114.41,213v-1.2a2,2,0,0,0,1.3-.4,1.6,1.6,0,0,0,.5-1,8.12,8.12,0,0,0,.1-1.7V195.9a3.08,3.08,0,0,1,.1-1,3.4,3.4,0,0,0-1,.1,3.08,3.08,0,0,0-1,.1v-1.5h6.9a12.69,12.69,0,0,1,4.3.6,5.54,5.54,0,0,1,2.6,1.8,4.82,4.82,0,0,1,.8,3,5.7,5.7,0,0,1-.4,2.2,4.89,4.89,0,0,1-1.6,2,7.43,7.43,0,0,1-3.1,1.3,2.84,2.84,0,0,1,1,.9,14.63,14.63,0,0,1,.9,1.3l1.7,2.6c.4.6.7,1,1,1.4a2.84,2.84,0,0,0,1,.9,2.77,2.77,0,0,0,1.3.3v1.2h-3.9a7.1,7.1,0,0,1-1.2-1.3c-.3-.5-.7-1-1.1-1.6l-1.9-3.1a8.34,8.34,0,0,0-.8-1.2,10.63,10.63,0,0,0-.9-1.1h-1.8v6a3.08,3.08,0,0,1-.1,1h2.2v1.5h-6.9Zm6.5-9.8a6.69,6.69,0,0,0,2.6-.5,3.91,3.91,0,0,0,1.7-1.4,4.63,4.63,0,0,0,.6-2.5,5,5,0,0,0-.3-1.9,3.05,3.05,0,0,0-1-1.3,3.48,3.48,0,0,0-1.5-.7,11,11,0,0,0-1.8-.2,2.27,2.27,0,0,0-1.3.3,1.6,1.6,0,0,0-.5,1,8.12,8.12,0,0,0-.1,1.7v5.5a2.2,2.2,0,0,1,.8.1A2,2,0,0,1,120.91,203.2Z"/><path class="cls-2" d="M140.51,213c0-.3-.1-.6-.1-.8a1.7,1.7,0,0,0-.1-.7,6.61,6.61,0,0,1-2,1.4,5.93,5.93,0,0,1-2.3.5,3.89,3.89,0,0,1-3-1,3.53,3.53,0,0,1-.2-4.7,6.42,6.42,0,0,1,2-1.6,10.71,10.71,0,0,1,2.7-.9,14.28,14.28,0,0,1,2.9-.3v-1.7a8.81,8.81,0,0,0-.2-1.7,2.39,2.39,0,0,0-.7-1.3,2.35,2.35,0,0,0-1.6-.5,4,4,0,0,0-1.5.3,1.82,1.82,0,0,0-1.1,1,2.19,2.19,0,0,1,.3.5,1.09,1.09,0,0,1,.1.5,1.61,1.61,0,0,1-.3.9,1.29,1.29,0,0,1-1.1.5,1.23,1.23,0,0,1-1-.5,2.1,2.1,0,0,1-.4-1.1,2.41,2.41,0,0,1,.7-1.8,5.61,5.61,0,0,1,2-1.2,8.85,8.85,0,0,1,2.9-.4,4.55,4.55,0,0,1,3.6,1.3,5.63,5.63,0,0,1,1.2,4v6.7a4.1,4.1,0,0,1-.1,1.1,3.75,3.75,0,0,0,1-.1,3.33,3.33,0,0,1,1,0v1.5l-4.7.1Zm-.3-6.7a5.66,5.66,0,0,0-1.8.3,4.92,4.92,0,0,0-1.7.6,4,4,0,0,0-1.2,1,2.46,2.46,0,0,0-.5,1.5,1.68,1.68,0,0,0,.6,1.4,2.12,2.12,0,0,0,1.4.4,3.06,3.06,0,0,0,1.7-.4,13,13,0,0,0,1.5-1v-3.8Z"/><path class="cls-2" d="M146.71,211.8c.6,0,1-.1,1.2-.4a1.82,1.82,0,0,0,.4-1.1c0-.5.1-1,.1-1.6v-6.8a3.4,3.4,0,0,1,.1-1h-2v-1.4a11.52,11.52,0,0,0,2-.1,5.31,5.31,0,0,0,1.1-.3c.2-.1.5-.2.6-.4h1.1v11.8a3.4,3.4,0,0,1-.1,1H153V213h-6.2l-.1-1.2Zm3-15.7a1.66,1.66,0,0,1-1.2-.5,2.11,2.11,0,0,1-.5-1.3,1.9,1.9,0,0,1,.5-1.3,1.58,1.58,0,0,1,1.2-.5,1.66,1.66,0,0,1,1.2.5,2.11,2.11,0,0,1,.5,1.3,1.9,1.9,0,0,1-.5,1.3A1.66,1.66,0,0,1,149.71,196.1Z"/><path class="cls-2" d="M161,213.4a6.05,6.05,0,0,1-2.4-.4,7.5,7.5,0,0,1-1.8-.8l.1.9h-1.5l-.1-4.8h1.2a4.24,4.24,0,0,0,.6,1.9,3.74,3.74,0,0,0,1.5,1.3,4.55,4.55,0,0,0,2,.5,6.88,6.88,0,0,0,1.3-.2,2.42,2.42,0,0,0,1-.6,1.37,1.37,0,0,0,.4-1.1,1.59,1.59,0,0,0-.4-1.2,3.6,3.6,0,0,0-1.2-.8c-.5-.2-1.1-.5-1.7-.7s-1.1-.5-1.7-.7a5.07,5.07,0,0,1-1.6-.9,4,4,0,0,1-1.1-1.2,3.42,3.42,0,0,1-.4-1.8,4,4,0,0,1,2.6-3.8,7.46,7.46,0,0,1,2.4-.4,5.55,5.55,0,0,1,1.7.3,7.57,7.57,0,0,1,1.8.9v-1h1.5v4.9H164a4.76,4.76,0,0,0-.5-1.8,4.07,4.07,0,0,0-1.2-1.4,3,3,0,0,0-1.9-.5,3.45,3.45,0,0,0-1.8.5,1.62,1.62,0,0,0-.7,1.4,1.9,1.9,0,0,0,.5,1.3,5.65,5.65,0,0,0,1.4.9c.6.2,1.2.5,1.8.7.8.3,1.5.7,2.2,1a5.79,5.79,0,0,1,1.7,1.4,3.7,3.7,0,0,1,.6,2.1,3.51,3.51,0,0,1-.7,2.3,4.89,4.89,0,0,1-1.8,1.4A8.68,8.68,0,0,1,161,213.4Z"/><path class="cls-2" d="M168.21,211.8c.6,0,1-.1,1.2-.4a1.82,1.82,0,0,0,.4-1.1c0-.5.1-1,.1-1.6v-6.8a3.4,3.4,0,0,1,.1-1h-2v-1.4a11.52,11.52,0,0,0,2-.1,5.31,5.31,0,0,0,1.1-.3c.2-.1.5-.2.6-.4h1.1v11.8a3.4,3.4,0,0,1-.1,1h1.8V213h-6.2l-.1-1.2Zm3-15.7a1.66,1.66,0,0,1-1.2-.5,2.11,2.11,0,0,1-.5-1.3,1.9,1.9,0,0,1,.5-1.3,1.58,1.58,0,0,1,1.2-.5,1.66,1.66,0,0,1,1.2.5,2.11,2.11,0,0,1,.5,1.3,1.9,1.9,0,0,1-.5,1.3A1.66,1.66,0,0,1,171.21,196.1Z"/><path class="cls-2" d="M176.51,213v-1.2c.6,0,1-.1,1.2-.4a1.82,1.82,0,0,0,.4-1.1c0-.5.1-1,.1-1.6v-6.8a3.4,3.4,0,0,1,.1-1h-2v-1.4a11.52,11.52,0,0,0,2-.1,8.11,8.11,0,0,0,1.1-.3,1.27,1.27,0,0,0,.6-.4h1v1.6c.4-.3.9-.6,1.3-.9a4.71,4.71,0,0,1,1.5-.6,3.89,3.89,0,0,1,1.5-.2,4.09,4.09,0,0,1,3.6,1.5,8.35,8.35,0,0,1,1.1,4.7v5.7a3.4,3.4,0,0,1-.1,1h1.8V213h-6.2v-1.2c.6,0,1-.1,1.2-.4a1.82,1.82,0,0,0,.4-1.1c0-.5.1-1,.1-1.6v-3.9a6.75,6.75,0,0,0-.7-3.3,2.53,2.53,0,0,0-2.2-1.1,3.92,3.92,0,0,0-1.8.4,5.83,5.83,0,0,0-1.5,1.1v8.7a3.4,3.4,0,0,1-.1,1h1.8v1.5h-6.2V213Z"/><path class="cls-2" d="M61.41,133.9a10,10,0,0,1-5-1.2,8.58,8.58,0,0,1-3.3-3.5,10.79,10.79,0,0,1-1.2-5.2,12.09,12.09,0,0,1,.6-3.8,11.12,11.12,0,0,1,1.8-3.4,8.34,8.34,0,0,1,3.1-2.4,9.72,9.72,0,0,1,4.3-.9,12.25,12.25,0,0,1,1.9.2,19.45,19.45,0,0,1,2,.5,14.17,14.17,0,0,1,1.8.8l-.1-1.3H69v6.4h-1.3a5.41,5.41,0,0,0-2.9-4.6,6.39,6.39,0,0,0-2.8-.6,5,5,0,0,0-2.7.7,6,6,0,0,0-2.1,1.8,8.67,8.67,0,0,0-1.4,2.7,12.13,12.13,0,0,0-.5,3.4,11.44,11.44,0,0,0,.9,4.6,7.61,7.61,0,0,0,2.4,3.1,5.8,5.8,0,0,0,3.7,1.1,8.64,8.64,0,0,0,1.5-.1,7.49,7.49,0,0,0,1.6-.4,6.11,6.11,0,0,0,1.4-.7v-5.8a3.75,3.75,0,0,0-1,.1,3.08,3.08,0,0,0-1,.1V124h6.7v1.2a2,2,0,0,0-1.1.3,1.56,1.56,0,0,0-.6.8,3,3,0,0,0-.2,1c0,.3-.1.7-.1,1v4.4h-.7a9.32,9.32,0,0,0-1.4.2,16.69,16.69,0,0,0-1.8.5,9.73,9.73,0,0,1-2,.5Z"/><path class="cls-2" d="M73.11,132.3c.6,0,1-.1,1.2-.4a1.82,1.82,0,0,0,.4-1.1c0-.5.1-1,.1-1.6v-6.8a3.4,3.4,0,0,1,.1-1h-2V120h1a4.18,4.18,0,0,0,1.8-.3,3.6,3.6,0,0,0,.9-.5h1c0,.3.1.6.1,1.1a9.15,9.15,0,0,0,.1,1.6,17.41,17.41,0,0,1,1.2-1.4,4.92,4.92,0,0,1,1.5-1,3.29,3.29,0,0,1,1.7-.4,2.46,2.46,0,0,1,1.5.5,1.75,1.75,0,0,1,.6,1.5,1.42,1.42,0,0,1-.2.6,1.47,1.47,0,0,1-.5.6,1.9,1.9,0,0,1-.9.3,1.78,1.78,0,0,1-1-.4,1.5,1.5,0,0,1-.4-1.1,2.2,2.2,0,0,0-1.3.4,4.15,4.15,0,0,0-1.2,1.1,5.6,5.6,0,0,0-1,1.5v7.1a3.4,3.4,0,0,1-.1,1h1.8v1.5h-6.3l-.1-1.4Z"/><path class="cls-2" d="M92.41,133.9a6.76,6.76,0,0,1-3.5-.9,7,7,0,0,1-2.5-2.6,8.47,8.47,0,0,1,0-7.6,6.78,6.78,0,0,1,2.5-2.8,6.63,6.63,0,0,1,3.7-1,5.38,5.38,0,0,1,2.2.4,5.24,5.24,0,0,1,1.9,1.1,4.64,4.64,0,0,1,1.3,2,8.53,8.53,0,0,1,.5,3l-9.6.2a11.76,11.76,0,0,0,.4,3.4,4.75,4.75,0,0,0,1.4,2.3,4.15,4.15,0,0,0,2.5.8,5,5,0,0,0,1.6-.3,4.81,4.81,0,0,0,1.6-.8,4.89,4.89,0,0,0,1.3-1.2l.9.8a9.13,9.13,0,0,1-1.9,2,7.17,7.17,0,0,1-2.2,1A18.32,18.32,0,0,1,92.41,133.9Zm-3.5-9.7h6.5a5.82,5.82,0,0,0-.3-1.9,3.39,3.39,0,0,0-.9-1.4,2.54,2.54,0,0,0-1.6-.5,3.24,3.24,0,0,0-2.4.9A6.52,6.52,0,0,0,88.91,124.2Z"/><path class="cls-2" d="M107.51,133.9a6.76,6.76,0,0,1-3.5-.9,7,7,0,0,1-2.5-2.6,8.47,8.47,0,0,1,0-7.6A6.78,6.78,0,0,1,104,120a6.63,6.63,0,0,1,3.7-1,5.38,5.38,0,0,1,2.2.4,5.24,5.24,0,0,1,1.9,1.1,4.64,4.64,0,0,1,1.3,2,8.53,8.53,0,0,1,.5,3l-9.6.2a11.76,11.76,0,0,0,.4,3.4,4.75,4.75,0,0,0,1.4,2.3,4.15,4.15,0,0,0,2.5.8,5,5,0,0,0,1.6-.3,4.81,4.81,0,0,0,1.6-.8,4.89,4.89,0,0,0,1.3-1.2l.9.8a9.13,9.13,0,0,1-1.9,2,7.17,7.17,0,0,1-2.2,1A14.92,14.92,0,0,1,107.51,133.9Zm-3.4-9.7h6.5a5.82,5.82,0,0,0-.3-1.9,3.39,3.39,0,0,0-.9-1.4,2.54,2.54,0,0,0-1.6-.5,3.24,3.24,0,0,0-2.4.9A4.9,4.9,0,0,0,104.11,124.2Z"/><path class="cls-2" d="M116,133.5v-1.2c.6,0,1-.1,1.2-.4a1.82,1.82,0,0,0,.4-1.1c0-.5.1-1,.1-1.6v-6.8a3.4,3.4,0,0,1,.1-1h-2V120a11.52,11.52,0,0,0,2-.1,8.11,8.11,0,0,0,1.1-.3,1.27,1.27,0,0,0,.6-.4h1v1.6c.4-.3.9-.6,1.3-.9a4.71,4.71,0,0,1,1.5-.6,3.89,3.89,0,0,1,1.5-.2,4.09,4.09,0,0,1,3.6,1.5,8.35,8.35,0,0,1,1.1,4.7V131a3.4,3.4,0,0,1-.1,1h1.8v1.5H125v-1.2c.6,0,1-.1,1.2-.4a1.82,1.82,0,0,0,.4-1.1c0-.5.1-1,.1-1.6v-3.9a6.75,6.75,0,0,0-.7-3.3,2.53,2.53,0,0,0-2.2-1.1,3.92,3.92,0,0,0-1.8.4,5.83,5.83,0,0,0-1.5,1.1v8.7a3.4,3.4,0,0,1-.1,1h1.8v1.5H116v-.1Z"/><path class="cls-2" d="M155.51,119.9a7,7,0,0,0-.4-2.7,3.09,3.09,0,0,0-1.1-1.6,3.28,3.28,0,0,0-2.1-.5h-2v16a3.08,3.08,0,0,1-.1,1c.4,0,.7-.1,1.2-.1h1.1v1.5H145v-1.2a2,2,0,0,0,1.3-.4,2.34,2.34,0,0,0,.5-1,8.62,8.62,0,0,0,.1-1.7V115.3h-2.4a3,3,0,0,0-2.5,1.1,6.85,6.85,0,0,0-.8,3.6h-1.3l.2-6h16.5l.2,6-1.3-.1Z"/><path class="cls-2" d="M165.31,133.9a6.76,6.76,0,0,1-3.5-.9,7,7,0,0,1-2.5-2.6,8.47,8.47,0,0,1,0-7.6,6.78,6.78,0,0,1,2.5-2.8,6.63,6.63,0,0,1,3.7-1,5.38,5.38,0,0,1,2.2.4,5.24,5.24,0,0,1,1.9,1.1,4.64,4.64,0,0,1,1.3,2,8.53,8.53,0,0,1,.5,3l-9.6.2a11.76,11.76,0,0,0,.4,3.4,4.75,4.75,0,0,0,1.4,2.3,4.15,4.15,0,0,0,2.5.8,5,5,0,0,0,1.6-.3,4.81,4.81,0,0,0,1.6-.8,4.89,4.89,0,0,0,1.3-1.2l.9.8a9.13,9.13,0,0,1-1.9,2,7.17,7.17,0,0,1-2.2,1A14.92,14.92,0,0,1,165.31,133.9Zm-3.4-9.7h6.5a5.82,5.82,0,0,0-.3-1.9,3.39,3.39,0,0,0-.9-1.4,2.54,2.54,0,0,0-1.6-.5,3.24,3.24,0,0,0-2.4.9A4.9,4.9,0,0,0,161.91,124.2Z"/><path class="cls-2" d="M182,133.5c0-.3-.1-.6-.1-.8a1.7,1.7,0,0,0-.1-.7,6.61,6.61,0,0,1-2,1.4,5.93,5.93,0,0,1-2.3.5,3.89,3.89,0,0,1-3-1,3.53,3.53,0,0,1-.2-4.7,6.42,6.42,0,0,1,2-1.6,10.71,10.71,0,0,1,2.7-.9,14.28,14.28,0,0,1,2.9-.3v-1.7a8.81,8.81,0,0,0-.2-1.7,2.39,2.39,0,0,0-.7-1.3,2.35,2.35,0,0,0-1.6-.5,4,4,0,0,0-1.5.3,1.82,1.82,0,0,0-1.1,1,2.19,2.19,0,0,1,.3.5,1.09,1.09,0,0,1,.1.5,1.61,1.61,0,0,1-.3.9,1.29,1.29,0,0,1-1.1.5,1.23,1.23,0,0,1-1-.5,2.1,2.1,0,0,1-.4-1.1,2.41,2.41,0,0,1,.7-1.8,5.61,5.61,0,0,1,2-1.2,8.85,8.85,0,0,1,2.9-.4,4.55,4.55,0,0,1,3.6,1.3,5.63,5.63,0,0,1,1.2,4v6.7a4.1,4.1,0,0,1-.1,1.1,3.75,3.75,0,0,0,1-.1,3.33,3.33,0,0,1,1,0v1.5l-4.7.1Zm-.2-6.7a5.66,5.66,0,0,0-1.8.3,4.92,4.92,0,0,0-1.7.6,4,4,0,0,0-1.2,1,2.46,2.46,0,0,0-.5,1.5,1.68,1.68,0,0,0,.6,1.4,2.12,2.12,0,0,0,1.4.4,3.06,3.06,0,0,0,1.7-.4,13,13,0,0,0,1.5-1v-3.8Z"/></g></g></svg>