<svg xmlns="http://www.w3.org/2000/svg" viewBox="0 0 209.49 159.04"><defs><style>.cls-1{fill:#68aea7;}.cls-2{fill:#1a0f01;}</style></defs><g id="Layer_2" data-name="Layer 2"><g id="Layer_1-2" data-name="Layer 1"><path class="cls-1" d="M5.09,139.16c-.7,0-1.3.1-2,.1-1.2,0-1.4-.3-.9-1.4.9-2,1.9-4,2.8-6,2.1-4.8,2-9.8.8-14.8-.8-3.5-2.3-6.9-3.3-10.4-.7-2.5-1.4-5-1.9-7.5-1.2-6.8,1.1-12.4,5.8-17.3,1.6-1.7,1.7-1.7,0-3.2-6.1-5.6-7.5-12.5-5.6-20.3,1.2-4.8,2.7-9.6,4-14.4,1.8-6.4,1.5-12.5-2-18.3-.6-1.1-1.1-2.2-1.6-3.3-.2-.4-.3-1-.1-1.2s.8-.2,1.2-.2a26.73,26.73,0,0,0,4-.1c1.5-.3,1.9-.9,1.6-2.5s-.7-3-.9-4.6a31.13,31.13,0,0,1-.2-6.1c.3-3.4,3.2-6.1,6.7-7.2a12.44,12.44,0,0,1,8.9.9q3.9,2,7.8,4.2a1.82,1.82,0,0,0,2.4-.1c1.2-1.1,2.4-2.1,3.5-3.2.7-.7,1.3-.9,2-.4,6,3.5,12.7,4.2,19.4,5a87.52,87.52,0,0,0,21.7-.7c3-.5,6-1.6,9-2.4,2.8-.7,5.5-1.5,8.3-2.1a4.83,4.83,0,0,1,4.4,1.2c3.6,3,8.7,3.6,12.5.8,2.8-2,5.2-1.8,8.2-.7a150.82,150.82,0,0,0,14.8,4.9,52.41,52.41,0,0,0,9.7,1.1,55.88,55.88,0,0,0,21.1-2.1,45.92,45.92,0,0,0,6-2.7c1.7-.8,1.9-.9,3.1.6.5.6,1.1,1.2,1.6,1.8,1.3,1.4,2.5,1.5,4.1.5a51.44,51.44,0,0,1,4.9-3.2c3.9-2.1,7.9-1.7,11.7.4,2.5,1.3,3.4,3.8,3.9,6.4a16,16,0,0,1-.8,8.4c-.6,1.8-.1,2.5,1.8,2.6,1.2,0,2.4-.1,3.5-.1a2,2,0,0,1,1.1.3c.1.1-.1.7-.2,1-1,2.5-2.2,4.9-3.2,7.4-1.5,3.9-1.2,7.8-.3,11.7,1.1,4.5,2.6,9,3.9,13.5,1.2,4,1.7,8.1.4,12.2-1,3.3-3.2,5.9-5.4,8.5-1.3,1.4-1.3,1.4,0,2.8,6.2,6.2,7.5,13.6,5,21.8-1.2,4-2.6,7.9-3.9,11.9a21.89,21.89,0,0,0,1,14.7c.7,1.8,1.6,3.5,2.4,5.2a1.71,1.71,0,0,1,.1,1.2c-.1.2-.7.2-1.1.2-1.2-.1-2.4-.2-3.5-.2-1.5,0-2.1.7-1.9,2.2.2,1.2.4,2.3.7,3.5,1.1,5.2-.7,9.9-5.1,12.3-3.7,2.1-7.4,1.3-11-.6-1.4-.7-2.6-1.7-3.9-2.5a3.44,3.44,0,0,0-4.9.8,10.47,10.47,0,0,0-.8,1.1c-1.1,1.7-1.3,1.7-3,.8a31.27,31.27,0,0,0-11.8-3.7,80.46,80.46,0,0,0-20.8-.1c-4.4.6-8.8,2.2-13.1,3.5-2.6.8-5.1,1.7-7.6,2.6a6,6,0,0,1-5.6-.9,11.42,11.42,0,0,0-13.4.7,4.29,4.29,0,0,1-4,1,76.57,76.57,0,0,1-9.7-2.5,49.22,49.22,0,0,0-19.4-2.5,139.19,139.19,0,0,0-15.7,1.6,30.54,30.54,0,0,0-13.8,5.4c-.6.5-1.1.3-1.5-.3a10.1,10.1,0,0,0-1.3-1.6c-2.1-2.2-4.2-2.3-6.6-.5a43.17,43.17,0,0,1-5.8,3.6,14.91,14.91,0,0,1-4.7,1.3c-4,.5-7-1.3-9.1-4.7a12.33,12.33,0,0,1-1.6-8.6c.2-1.3.6-2.6.8-3.8a2,2,0,0,0-2.1-2.7H4.39C5.09,139.06,5.09,139.16,5.09,139.16Zm71.8-115.7c-18.2-.3-36.4-.1-54.6.3-1.5,0-1.7.2-1.7,1.7,0,2.1.1,4.2.1,6.4.1,16.5.3,33,.4,49.5.1,17.6.3,35.2.4,52.8,0,1.6.1,1.7,1.7,1.6l20.7-.6c21.7-.7,43.3-1.4,65-2,18.7-.5,37.5-.9,56.2-1.3,7.9-.2,15.8-.4,23.8-.5,1.1,0,1.6-.4,1.5-1.5V26.16c0-1.2-.4-1.7-1.6-1.7h-3.3c-26.7-.3-53.3-.5-80-.8Z"/><path class="cls-2" d="M57.69,73.66v-1.2a2,2,0,0,0,1.3-.4,1.6,1.6,0,0,0,.5-1,8.12,8.12,0,0,0,.1-1.7V56.56a3.08,3.08,0,0,1,.1-1,3.4,3.4,0,0,0-1,.1,3.08,3.08,0,0,0-1,.1v-1.5h6.9v1.2a1.7,1.7,0,0,0-1.3.4,1.23,1.23,0,0,0-.5,1,8.12,8.12,0,0,0-.1,1.7v4.6H72v-6.5a3.08,3.08,0,0,1,.1-1,3.4,3.4,0,0,0-1,.1,3.08,3.08,0,0,0-1,.1v-1.5H77v1.2a1.7,1.7,0,0,0-1.3.4,1.23,1.23,0,0,0-.5,1,8.12,8.12,0,0,0-.1,1.7v12.9a3.08,3.08,0,0,1-.1,1c.3,0,.7-.1,1-.1h1V74h-6.9v-1.2a2,2,0,0,0,1.3-.4,1.6,1.6,0,0,0,.5-1,8.12,8.12,0,0,0,.1-1.7v-4.9l-9.3.1v6.8a3.08,3.08,0,0,1-.1,1c.3,0,.7-.1,1-.1h1v1.5h-6.9Z"/><path class="cls-2" d="M82,81.26a3,3,0,0,1-1.6-.5,1.75,1.75,0,0,1-.7-1.4,1.67,1.67,0,0,1,.4-1.1,1.39,1.39,0,0,1,1-.5,1.16,1.16,0,0,1,1,.4,1.61,1.61,0,0,1,.3.9v.4h.3a1.33,1.33,0,0,0,.7-.3,3.51,3.51,0,0,0,.7-.9c.2-.4.5-1,.8-1.7s.6-1.6.9-2.5l-4.4-9.2a12.37,12.37,0,0,1-1-2.4,12.75,12.75,0,0,0-.4-1.4l-1.3.1v-1.5h6.2v1.1h-.1q-1.2.15-1.2.9a5.15,5.15,0,0,0,.5,2.1l3.1,6.8c.4-1,.7-2,1.1-3.1s.7-2.3,1.1-3.4c.1-.4.3-.7.4-1.1s.3-.8.4-1.1.3-.6.5-.7l-1.8.1v-1.5h4.6v1.1a2.29,2.29,0,0,0-1.5,1.2,17.43,17.43,0,0,0-1,2.3l-3.5,9.9a32.23,32.23,0,0,1-1.5,3.9,9.1,9.1,0,0,1-1.6,2.4A4.67,4.67,0,0,1,82,81.26Z"/><path class="cls-2" d="M100.29,74.16a5.07,5.07,0,0,1-3-.9,6.11,6.11,0,0,1-2.1-2.4,8.87,8.87,0,0,1-.8-3.8,9.15,9.15,0,0,1,.9-4.1,6.78,6.78,0,0,1,2.5-2.8,6.63,6.63,0,0,1,3.7-1,9.85,9.85,0,0,1,1.7.2,3.92,3.92,0,0,1,1.3.5v-4.1a4.48,4.48,0,0,1,.1-1.1,3.4,3.4,0,0,0-1,.1h-1v-1.5a11.52,11.52,0,0,0,2-.1,5.31,5.31,0,0,0,1.1-.3c.2-.1.5-.2.6-.4h1v18.8a4.1,4.1,0,0,1-.1,1.1,3.4,3.4,0,0,0,1-.1h.9v1.5h-4.3c0-.3-.1-.5-.1-.7s-.1-.4-.1-.7a6.22,6.22,0,0,1-1.9,1.4A8.6,8.6,0,0,1,100.29,74.16Zm1.2-1.8a3.69,3.69,0,0,0,1.7-.5,4.07,4.07,0,0,0,1.4-1.2v-9.2a3.38,3.38,0,0,0-1.2-.6,7.72,7.72,0,0,0-1.5-.2,3.57,3.57,0,0,0-2.3.8,4.92,4.92,0,0,0-1.4,2.2,10.12,10.12,0,0,0-.4,3.1,8.68,8.68,0,0,0,.5,2.8,4.85,4.85,0,0,0,1.2,2A2.79,2.79,0,0,0,101.49,72.36Z"/><path class="cls-2" d="M111.19,72.56c.6,0,1-.1,1.2-.4a1.82,1.82,0,0,0,.4-1.1c0-.5.1-1,.1-1.6v-6.8a3.4,3.4,0,0,1,.1-1h-2v-1.5h1a4.18,4.18,0,0,0,1.8-.3,3.6,3.6,0,0,0,.9-.5h1c0,.3.1.6.1,1.1a9.15,9.15,0,0,0,.1,1.6,17.41,17.41,0,0,1,1.2-1.4,4.92,4.92,0,0,1,1.5-1,3.29,3.29,0,0,1,1.7-.4,2.46,2.46,0,0,1,1.5.5,1.75,1.75,0,0,1,.6,1.5,1.42,1.42,0,0,1-.2.6,1.47,1.47,0,0,1-.5.6,1.9,1.9,0,0,1-.9.3,1.78,1.78,0,0,1-1-.4,1.5,1.5,0,0,1-.4-1.1,2.2,2.2,0,0,0-1.3.4,4.15,4.15,0,0,0-1.2,1.1,5.6,5.6,0,0,0-1,1.5v7.1a3.4,3.4,0,0,1-.1,1h1.8v1.5h-6.3l-.1-1.3Z"/><path class="cls-2" d="M130.69,74.16a7.4,7.4,0,0,1-3.6-.9,6,6,0,0,1-2.5-2.5,7.51,7.51,0,0,1-.9-3.7,8.43,8.43,0,0,1,.9-4,7.55,7.55,0,0,1,2.5-2.8,6.3,6.3,0,0,1,3.6-1,7.4,7.4,0,0,1,3.6.9,6,6,0,0,1,2.5,2.5,7.51,7.51,0,0,1,.9,3.7,8.72,8.72,0,0,1-.9,4,7.55,7.55,0,0,1-2.5,2.8A6.09,6.09,0,0,1,130.69,74.16Zm.2-1.4A2.86,2.86,0,0,0,133,72a4.22,4.22,0,0,0,1.1-2.1,10.9,10.9,0,0,0,.3-2.6,19.42,19.42,0,0,0-.2-2.4,6.49,6.49,0,0,0-.7-2.1,4.43,4.43,0,0,0-1.2-1.5,2.27,2.27,0,0,0-1.8-.5,2.86,2.86,0,0,0-2.1.8,4.32,4.32,0,0,0-1.2,2.1,12.59,12.59,0,0,0-.4,2.7,10.55,10.55,0,0,0,.4,3.1,5.53,5.53,0,0,0,1.3,2.4A3.78,3.78,0,0,0,130.89,72.76Z"/><path class="cls-2" d="M139.59,73.66v-1.1a2.73,2.73,0,0,0,1.3-.7c.3-.3.7-.8,1.2-1.4l2.7-3.4a10.59,10.59,0,0,0-1-1.2,11.32,11.32,0,0,1-1-1.3,11.49,11.49,0,0,0-.8-1,5.51,5.51,0,0,1-.9-1.4,8.92,8.92,0,0,0-.5-1l-1.1.1v-1.5h5.9v1.1c-.7,0-1.1.2-1.2.5s.2.9.8,1.7l1.5,2,2.1-2.5c.3-.3.5-.6.7-.8s.4-.5.6-.7l-1.7.1v-1.5h4.7v1.1a3.37,3.37,0,0,0-1.2.6,4.06,4.06,0,0,0-1,.9c-.3.3-.7.8-1.1,1.3l-2,2.5,3.6,4.5a2.7,2.7,0,0,0,.7.8l.6.9,1.1-.1v1.5h-5.8v-1.1c.5,0,.8-.1.9-.4s0-.6-.4-1l-2.5-3-2,2.7a5.55,5.55,0,0,1-.6.8,4.62,4.62,0,0,1-.7.7l1.9-.1v1.5h-4.8Z"/><path class="cls-2" d="M76.19,92.36a6.42,6.42,0,0,0-1.7-3.9,5.31,5.31,0,0,0-3.7-1.4,5.7,5.7,0,0,0-4.8,2.4,8.67,8.67,0,0,0-1.4,2.7,12.3,12.3,0,0,0-.5,3.5,10.63,10.63,0,0,0,.9,4.5,7.65,7.65,0,0,0,2.5,3.1,6.63,6.63,0,0,0,3.6,1.1,7.3,7.3,0,0,0,3.5-.9,8.49,8.49,0,0,0,2.9-2.4l.9.8a9.89,9.89,0,0,1-2.7,2.7,9.45,9.45,0,0,1-2.8,1.2,12.22,12.22,0,0,1-2.6.3,10.06,10.06,0,0,1-3.9-.8,8.13,8.13,0,0,1-3-2.1,11.56,11.56,0,0,1-2-3.2,10,10,0,0,1-.7-3.9,12.09,12.09,0,0,1,.6-3.8,11.12,11.12,0,0,1,1.8-3.4,8.86,8.86,0,0,1,3-2.4,9.42,9.42,0,0,1,4.3-.9,8.63,8.63,0,0,1,2.8.4,12.27,12.27,0,0,1,2.6,1.2l-.1-1.4h1.7v6.5l-1.2.1Z"/><path class="cls-2" d="M87.19,106.16a7.4,7.4,0,0,1-3.6-.9,6,6,0,0,1-2.5-2.5,7.51,7.51,0,0,1-.9-3.7,8.43,8.43,0,0,1,.9-4,7.55,7.55,0,0,1,2.5-2.8,6.3,6.3,0,0,1,3.6-1,7.4,7.4,0,0,1,3.6.9,6,6,0,0,1,2.5,2.5,7.51,7.51,0,0,1,.9,3.7,8.72,8.72,0,0,1-.9,4,7.55,7.55,0,0,1-2.5,2.8A6.53,6.53,0,0,1,87.19,106.16Zm.2-1.4a2.86,2.86,0,0,0,2.1-.8,4.22,4.22,0,0,0,1.1-2.1,10.9,10.9,0,0,0,.3-2.6,19.42,19.42,0,0,0-.2-2.4,6.49,6.49,0,0,0-.7-2.1,4.43,4.43,0,0,0-1.2-1.5,2.27,2.27,0,0,0-1.8-.5,2.86,2.86,0,0,0-2.1.8,4.32,4.32,0,0,0-1.2,2.1,12.59,12.59,0,0,0-.4,2.7,10.55,10.55,0,0,0,.4,3.1,5.53,5.53,0,0,0,1.3,2.4A3.58,3.58,0,0,0,87.39,104.76Z"/><path class="cls-2" d="M103.39,106.16a7.4,7.4,0,0,1-3.6-.9,6,6,0,0,1-2.5-2.5,7.51,7.51,0,0,1-.9-3.7,8.43,8.43,0,0,1,.9-4,7.55,7.55,0,0,1,2.5-2.8,6.3,6.3,0,0,1,3.6-1,7.4,7.4,0,0,1,3.6.9,6,6,0,0,1,2.5,2.5,7.51,7.51,0,0,1,.9,3.7,8.72,8.72,0,0,1-.9,4,7.55,7.55,0,0,1-2.5,2.8A6.53,6.53,0,0,1,103.39,106.16Zm.2-1.4a2.86,2.86,0,0,0,2.1-.8,4.22,4.22,0,0,0,1.1-2.1,10.9,10.9,0,0,0,.3-2.6,19.42,19.42,0,0,0-.2-2.4,6.49,6.49,0,0,0-.7-2.1,4.43,4.43,0,0,0-1.2-1.5,2.27,2.27,0,0,0-1.8-.5,2.86,2.86,0,0,0-2.1.8,4.32,4.32,0,0,0-1.2,2.1,12.59,12.59,0,0,0-.4,2.7,10.55,10.55,0,0,0,.4,3.1,5.53,5.53,0,0,0,1.3,2.4A3.58,3.58,0,0,0,103.59,104.76Z"/><path class="cls-2" d="M112.39,105.66v-1.2a1.46,1.46,0,0,0,1.2-.4,2.82,2.82,0,0,0,.4-1.1c0-.5.1-1,.1-1.6V87.66a3.4,3.4,0,0,1,.1-1h-2v-1.5a11.52,11.52,0,0,0,2-.1,10.38,10.38,0,0,0,1.2-.3.92.92,0,0,0,.6-.4h1.1v13.1h1.2l2.9-3.2.8-.8a4.35,4.35,0,0,1,.7-.6l-1.8.1v-1.5h5.5v1.1a5.46,5.46,0,0,0-1.8.6,5.26,5.26,0,0,0-1.4,1.1l-1.1,1.1-2.1,2.2a3.49,3.49,0,0,1,.9.6,8.74,8.74,0,0,1,.8,1l2,2.5a7.37,7.37,0,0,0,.5.6,10.25,10.25,0,0,0,1.7,1.7,1.61,1.61,0,0,0,.9.3v1.2H124a2.24,2.24,0,0,1-1.5-.8,14.28,14.28,0,0,1-1.5-1.8c-.4-.6-.9-1.2-1.2-1.7a17,17,0,0,0-1-1.4,11.49,11.49,0,0,0-.8-1l-1,.1v4.2a3.4,3.4,0,0,1-.1,1h1.8v1.5l-6.3.1Z"/><path class="cls-2" d="M128.19,104.56c.6,0,1-.1,1.2-.4a1.82,1.82,0,0,0,.4-1.1c0-.5.1-1,.1-1.6v-6.8a4.1,4.1,0,0,1,.1-1.1h-2v-1.5a11.52,11.52,0,0,0,2-.1,5.31,5.31,0,0,0,1.1-.3.92.92,0,0,0,.6-.4h1.1v12a3.4,3.4,0,0,1-.1,1h1.8v1.5h-6.2l-.1-1.2Zm3-15.7a1.66,1.66,0,0,1-1.2-.5,2.11,2.11,0,0,1-.5-1.3,1.9,1.9,0,0,1,.5-1.3,1.58,1.58,0,0,1,1.2-.5,1.66,1.66,0,0,1,1.2.5,2.11,2.11,0,0,1,.5,1.3,1.9,1.9,0,0,1-.5,1.3A1.66,1.66,0,0,1,131.19,88.86Z"/><path class="cls-2" d="M143.29,106.16a6.76,6.76,0,0,1-3.5-.9,7,7,0,0,1-2.5-2.6,8.47,8.47,0,0,1,0-7.6,6.78,6.78,0,0,1,2.5-2.8,6.63,6.63,0,0,1,3.7-1,5.38,5.38,0,0,1,2.2.4,5.24,5.24,0,0,1,1.9,1.1,4.64,4.64,0,0,1,1.3,2,8.53,8.53,0,0,1,.5,3l-9.6.2a11.76,11.76,0,0,0,.4,3.4,4.75,4.75,0,0,0,1.4,2.3,4.15,4.15,0,0,0,2.5.8,5,5,0,0,0,1.6-.3,4.81,4.81,0,0,0,1.6-.8,4.89,4.89,0,0,0,1.3-1.2l.9.8a9.13,9.13,0,0,1-1.9,2,7.17,7.17,0,0,1-2.2,1A7.84,7.84,0,0,1,143.29,106.16Zm-3.5-9.7h6.5a5.82,5.82,0,0,0-.3-1.9,3.39,3.39,0,0,0-.9-1.4,2.54,2.54,0,0,0-1.6-.5,3.24,3.24,0,0,0-2.4.9A4.63,4.63,0,0,0,139.79,96.46Z"/></g></g></svg>