<svg xmlns="http://www.w3.org/2000/svg" viewBox="0 0 426.87 307.95"><defs><style>.cls-1{fill:#d97275;}.cls-2{fill:#1a0f01;}</style></defs><g id="Layer_2" data-name="Layer 2"><g id="Layer_1-2" data-name="Layer 1"><path class="cls-1" d="M426.87,270.79h-5.6c-8,.2-8,1.2-6.5,7.6.8,3.3,1.4,6.6,1.9,9.9a17.32,17.32,0,0,1-19.5,19.5c-7-.9-12.7-4.5-18.3-8.5-1.3-.9-2.5-1.9-3.8-2.7-3.4-2.2-5.3-2-8.2.8a27.86,27.86,0,0,0-3.6,4.7c-.8,1.2-1.5,1.4-2.7.6-12.1-7.8-25.6-11.6-39.7-13.3-10.4-1.2-20.8-2.5-31.4-1.7-11.3.8-22.2,3.8-33,6.8-4.1,1.1-8.3,2.2-12.5,3.1-3.2.7-6-.5-8.6-2.4-7.9-5.8-17-7.3-25.2-2.6-7.7,4.5-14.4,3.4-21.8.8-8.3-2.9-16.5-6-25-8-15.7-3.8-31.7-3.7-47.7-3.3a96.76,96.76,0,0,0-28.2,4.6,69.29,69.29,0,0,0-9.7,4.2c-2.1,1.1-3.3.8-4.5-1.2a17.55,17.55,0,0,0-2.7-3.4c-4.4-4.3-7.4-4.7-12.6-1.4s-10.5,6.2-16.7,7.1c-12.3,1.7-23.1-4.6-26.8-16.4-1.8-5.8-.6-11.6,1.1-17.3,1.5-5.1.9-6.3-4.5-7.3a49.26,49.26,0,0,0-5.4-.5c-3-.1-3.5-.9-2.2-3.7l4.5-9.6c5.5-11.7,4.5-23.3.5-35.2-2.6-7.6-5.1-15.2-7.1-22.9-2.3-9.2-1.9-18.2,2.7-26.8a27,27,0,0,1,9.1-9.6c2.9-2,2.8-2.4.4-4.8-7.3-7.2-12.5-15.5-13.4-26A36,36,0,0,1,2.67,96c2.1-5.8,4.2-11.7,6.7-17.3,5.5-12.1,4.3-23.7-1.9-35.2-1.3-2.3-2.5-4.7-3.6-7.1-1-2.2-.6-2.8,1.8-2.8,2.7.1,5.3.3,8,.3,3.6.1,4.4-1,3.1-4.4a28,28,0,0,1-2-13.1c1.1-10.2,12.7-18.3,22.7-16A55.66,55.66,0,0,1,59,10.69a6.71,6.71,0,0,0,9.3-.3,18,18,0,0,0,3.4-3.9c1.3-2.2,2.5-2.2,4.6-1.1,5.2,2.8,10.4,6.1,16,7.7,7.9,2.2,16.2,3.1,24.3,4.3,16.2,2.5,32.3.1,48.3-2.2,7.1-1,14.2-2.7,21.3-4,5.4-1,10.3-.9,15.1,2.7,7.2,5.3,15.5,5.1,23.3,1.4,6.6-3.2,12.5-2.3,19,.2,14.9,5.9,30.2,10.5,46.4,11.6,14.1,1,28.2,1,42.2-1.5,3.3-.6,6.4-2.8,9.4-4.6,3.4-2,5.2-1.9,7.9,1a28.53,28.53,0,0,1,2.5,3.3c2.9,4,5.4,4.8,10,3,3.7-1.5,7.4-2.9,10.9-4.7,15-7.6,27.6,3.9,30.1,15.6a31.39,31.39,0,0,1-.4,14.3c-.8,3.2-.3,4,3,4.5a31.83,31.83,0,0,0,6.2.3c3.5-.1,4.1.8,2.8,4.1-1.5,3.7-3.2,7.3-4.3,11-2.9,9.8-1.5,19.4,1.9,28.8,3.2,8.7,6.5,17.4,9.2,26.3,3.5,11.8.4,22.1-8.5,30.5a11.41,11.41,0,0,1-1.1,1.1c-1.8,1.5-1.5,2.7-.1,4.5,3.3,4,6.8,8,9.4,12.5,5.5,9.5,5.7,19.8,2.9,30.3-2.1,8.1-4.5,16.1-6.5,24.1-2.2,8.6-.3,16.8,3,24.7,1.7,4.2,3.9,8.2,5.9,12.3A6.82,6.82,0,0,0,426.87,270.79Zm-193.7-3.2c10.9.1,26.8-1.4,42.5-4,18.9-3.2,37.3-8.2,54.5-16.9a159,159,0,0,0,35.7-25.2c10.1-9.2,18.4-19.7,22.1-33.3a81,81,0,0,0-.3-45.5c-3.7-12.5-10.7-23.3-18.9-33.1-15.2-18.1-33.7-32-54.5-43.1a225.21,225.21,0,0,0-67-23.3c-10.9-2-22-2.6-33.1-3.5a223.16,223.16,0,0,0-75,6.2c-25,6.5-48.2,16.7-68.9,32.3-13.4,10.1-23.9,22.9-29.7,38.6-9.6,25.6-6,50.1,9.4,72.7,7.8,11.5,17.9,20.9,28.8,29.3,8,6.1,16.1,12.1,24.6,17.4,14.9,9.1,31.3,15.1,48,19.9C176.47,263.09,201.87,267.69,233.17,267.59Z"/><path class="cls-2" d="M133.37,122.39c-.8-1.8-1.5-3.5-2.3-5.3s-1.5-3.5-2.3-5.3c-.2-.5-.5-1.1-.7-1.7s-.5-1.3-.7-2-.5-1.4-.7-2.1v2.7a14.08,14.08,0,0,1-.1,2,21.75,21.75,0,0,1-.1,2.5,22.6,22.6,0,0,1-.1,2.6v3.8a3.75,3.75,0,0,1-.1,1.1c.3,0,.7-.1,1.1-.1h1v1.5h-5.7v-1.2a2.13,2.13,0,0,0,1.2-.3,1.56,1.56,0,0,0,.6-.8,4.64,4.64,0,0,0,.2-1.4l.4-12.1a4.87,4.87,0,0,1,.1-1.2,3.75,3.75,0,0,1,.1-1.1h-2.1v-1.5h4.9l4.6,11c.2.5.4,1,.7,1.6a12.2,12.2,0,0,1,.7,1.7c.2.6.4,1.1.6,1.6h.1a13.36,13.36,0,0,1,.7-1.8c.3-.7.5-1.3.7-1.8.8-2,1.6-4,2.5-6s1.6-4.1,2.4-6.2H146v1.2a3.59,3.59,0,0,0-1.1.2,1.68,1.68,0,0,0-.7.9,7.45,7.45,0,0,0-.2,1.8l.6,12.1a4.05,4.05,0,0,1,0,1.1v.9h2.1v1.5h-6.8v-1.4a1.92,1.92,0,0,0,1.2-.3,1.44,1.44,0,0,0,.6-1,8.12,8.12,0,0,0,.1-1.7l-.4-8.1a3.75,3.75,0,0,0-.1-1,4.87,4.87,0,0,0-.1-1.2c0-.4-.1-.8-.1-1.2-.1.1-.1.3-.2.4s-.1.3-.2.5l-6,15.2h-1.3v-.1Z"/><path class="cls-2" d="M157.17,122.09c0-.3-.1-.6-.1-.8a1.7,1.7,0,0,0-.1-.7,6.61,6.61,0,0,1-2,1.4,5.93,5.93,0,0,1-2.3.5,3.89,3.89,0,0,1-3-1,3.53,3.53,0,0,1-.2-4.7,6.42,6.42,0,0,1,2-1.6,10.71,10.71,0,0,1,2.7-.9,14.28,14.28,0,0,1,2.9-.3v-1.7a8.81,8.81,0,0,0-.2-1.7,2.39,2.39,0,0,0-.7-1.3,2.35,2.35,0,0,0-1.6-.5,4,4,0,0,0-1.5.3,1.82,1.82,0,0,0-1.1,1,2.19,2.19,0,0,1,.3.5,1.09,1.09,0,0,1,.1.5,1.61,1.61,0,0,1-.3.9,1.29,1.29,0,0,1-1.1.5,1.23,1.23,0,0,1-1-.5,2.1,2.1,0,0,1-.4-1.1,2.41,2.41,0,0,1,.7-1.8,5.61,5.61,0,0,1,2-1.2,8.85,8.85,0,0,1,2.9-.4,4.55,4.55,0,0,1,3.6,1.3,5.63,5.63,0,0,1,1.2,4v6.7a4.1,4.1,0,0,1-.1,1.1,3.75,3.75,0,0,0,1-.1,3.33,3.33,0,0,1,1,0V122l-4.7.1Zm-.3-6.7a5.66,5.66,0,0,0-1.8.3,4.92,4.92,0,0,0-1.7.6,4,4,0,0,0-1.2,1,2.46,2.46,0,0,0-.5,1.5,1.68,1.68,0,0,0,.6,1.4,2.12,2.12,0,0,0,1.4.4,3.06,3.06,0,0,0,1.7-.4,13,13,0,0,0,1.5-1v-3.8Z"/><path class="cls-2" d="M163.17,129.19V128c.6,0,1-.1,1.2-.4a1.82,1.82,0,0,0,.4-1.1c0-.5.1-1,.1-1.6v-14a3.4,3.4,0,0,1,.1-1h-2v-1.5a11.52,11.52,0,0,0,2-.1,8.11,8.11,0,0,0,1.1-.3,1.27,1.27,0,0,0,.6-.4h1a2,2,0,0,0,.1.7,2.2,2.2,0,0,0,.1.8,8.17,8.17,0,0,1,2-1.2,5.7,5.7,0,0,1,2.2-.4,5.29,5.29,0,0,1,3,.9,6.73,6.73,0,0,1,3,6.1,8,8,0,0,1-1,4.1,7,7,0,0,1-2.6,2.8,6.53,6.53,0,0,1-3.6,1,9.85,9.85,0,0,1-1.7-.2,3.51,3.51,0,0,1-1.4-.6v5a3.4,3.4,0,0,1-.1,1h1.8v1.5l-6.3.1Zm7.4-8.1a3.29,3.29,0,0,0,2.2-.8,4.79,4.79,0,0,0,1.3-2.2,9.72,9.72,0,0,0,.4-3.1,7.66,7.66,0,0,0-.4-2.7,5.28,5.28,0,0,0-1.2-2.1,2.86,2.86,0,0,0-2.2-.8,3.53,3.53,0,0,0-1.7.4,4.49,4.49,0,0,0-1.3,1v9.4a5.39,5.39,0,0,0,1.3.7A10,10,0,0,0,170.57,121.09Z"/><path class="cls-2" d="M179.77,120.89c.6,0,1-.1,1.2-.4a1.82,1.82,0,0,0,.4-1.1c0-.5.1-1,.1-1.6v-13.7a3.4,3.4,0,0,1,.1-1h-2v-1.5a11.52,11.52,0,0,0,2-.1,5.31,5.31,0,0,0,1.1-.3.92.92,0,0,0,.6-.4h1.1v18.7a3.4,3.4,0,0,1-.1,1h1.8V122h-6.2l-.1-1.1Z"/><path class="cls-2" d="M194.87,122.49a6.76,6.76,0,0,1-3.5-.9,7,7,0,0,1-2.5-2.6,8.47,8.47,0,0,1,0-7.6,6.78,6.78,0,0,1,2.5-2.8,6.63,6.63,0,0,1,3.7-1,5.38,5.38,0,0,1,2.2.4,5.24,5.24,0,0,1,1.9,1.1,4.64,4.64,0,0,1,1.3,2,8.53,8.53,0,0,1,.5,3l-9.6.2a11.76,11.76,0,0,0,.4,3.4,4.75,4.75,0,0,0,1.4,2.3,4.15,4.15,0,0,0,2.5.8,5,5,0,0,0,1.6-.3,4.81,4.81,0,0,0,1.6-.8,4.89,4.89,0,0,0,1.3-1.2l.9.8a9.13,9.13,0,0,1-1.9,2,7.17,7.17,0,0,1-2.2,1A18.32,18.32,0,0,1,194.87,122.49Zm-3.5-9.7h6.5a5.82,5.82,0,0,0-.3-1.9,3.39,3.39,0,0,0-.9-1.4,2.54,2.54,0,0,0-1.6-.5,3.24,3.24,0,0,0-2.4.9A5.59,5.59,0,0,0,191.37,112.79Z"/><path class="cls-2" d="M217.27,122.29l-5-15c-.3-.8-.5-1.5-.7-2a3.92,3.92,0,0,1-.3-1.3h-1.6v-1.5H217v1.2q-1.5,0-1.8.6c-.3.4-.2,1.1,0,2.1a25.78,25.78,0,0,0,1,3.3c.3,1,.7,2.1,1,3.2.2.8.5,1.5.7,2.1s.5,1.4.7,2.3h0c.1-.3.2-.7.3-1.1a9.29,9.29,0,0,1,.4-1.3,8.4,8.4,0,0,0,.4-1.2,3.39,3.39,0,0,1,.3-.8c.4-1.4.9-2.8,1.3-4.2s.8-2.6,1.2-3.7.6-2,.8-2.7h1.5c.2.7.4,1.5.7,2.4s.6,1.9.9,2.9.6,1.9.9,2.8.6,1.7.8,2.4.5,1.5.7,2.3.5,1.6.7,2.4h.1a12.09,12.09,0,0,0,.5-1.8c.2-.6.4-1.3.6-1.9a29,29,0,0,0,.9-2.8c.2-.8.5-1.5.6-2s.3-1.1.5-1.6.3-.9.4-1.4a4.87,4.87,0,0,1,.4-1.1,2.38,2.38,0,0,1,.6-1.1h-2.2v-1.5h5.9v1.2a4.67,4.67,0,0,0-1.4.4,2.71,2.71,0,0,0-1,1.1,19.06,19.06,0,0,0-1,2.3l-2.4,7.5c-.8,2.5-1.6,4.9-2.5,7.4h-1.4l-3.9-11.5a10.93,10.93,0,0,1-.5-1.7c-.2-.5-.3-1.1-.5-1.6-.1.5-.3,1-.4,1.6a9.83,9.83,0,0,1-.5,1.6l-3.7,11.6-1.3.1Z"/><path class="cls-2" d="M247,122.09c0-.3-.1-.6-.1-.8a1.7,1.7,0,0,0-.1-.7,6.61,6.61,0,0,1-2,1.4,5.93,5.93,0,0,1-2.3.5,3.89,3.89,0,0,1-3-1,3.53,3.53,0,0,1-.2-4.7,6.42,6.42,0,0,1,2-1.6,10.71,10.71,0,0,1,2.7-.9,14.28,14.28,0,0,1,2.9-.3v-1.7a8.81,8.81,0,0,0-.2-1.7,2.39,2.39,0,0,0-.7-1.3,2.35,2.35,0,0,0-1.6-.5,4,4,0,0,0-1.5.3,1.82,1.82,0,0,0-1.1,1,2.19,2.19,0,0,1,.3.5,1.09,1.09,0,0,1,.1.5,1.61,1.61,0,0,1-.3.9,1.29,1.29,0,0,1-1.1.5,1.23,1.23,0,0,1-1-.5,2.1,2.1,0,0,1-.4-1.1,2.41,2.41,0,0,1,.7-1.8,5.61,5.61,0,0,1,2-1.2,8.85,8.85,0,0,1,2.9-.4,4.55,4.55,0,0,1,3.6,1.3,5.63,5.63,0,0,1,1.2,4v6.7a4.1,4.1,0,0,1-.1,1.1,3.75,3.75,0,0,0,1-.1,3.33,3.33,0,0,1,1,0V122l-4.7.1Zm-.3-6.7a5.66,5.66,0,0,0-1.8.3,4.92,4.92,0,0,0-1.7.6,4,4,0,0,0-1.2,1,2.46,2.46,0,0,0-.5,1.5,1.68,1.68,0,0,0,.6,1.4,2.12,2.12,0,0,0,1.4.4,3.06,3.06,0,0,0,1.7-.4,13,13,0,0,0,1.5-1v-3.8Z"/><path class="cls-2" d="M252.87,120.89c.6,0,1-.1,1.2-.4a1.82,1.82,0,0,0,.4-1.1c0-.5.1-1,.1-1.6v-13.7a3.4,3.4,0,0,1,.1-1h-2v-1.5a11.52,11.52,0,0,0,2-.1,5.31,5.31,0,0,0,1.1-.3.92.92,0,0,0,.6-.4h1.1v18.7a3.4,3.4,0,0,1-.1,1h1.8V122H253l-.1-1.1Z"/><path class="cls-2" d="M261.17,122.09v-1.2c.6,0,1-.1,1.2-.4a1.82,1.82,0,0,0,.4-1.1c0-.5.1-1,.1-1.6V111a3.4,3.4,0,0,1,.1-1h-2v-1.5a11.52,11.52,0,0,0,2-.1,8.11,8.11,0,0,0,1.1-.3,1.27,1.27,0,0,0,.6-.4h1v1.6c.4-.3.9-.6,1.3-.9a4.71,4.71,0,0,1,1.5-.6,3.89,3.89,0,0,1,1.5-.2,4.09,4.09,0,0,1,3.6,1.5,8.35,8.35,0,0,1,1.1,4.7v5.7a3.4,3.4,0,0,1-.1,1h1.8V122h-6.2v-1.1c.6,0,1-.1,1.2-.4a1.82,1.82,0,0,0,.4-1.1c0-.5.1-1,.1-1.6v-3.9a6.75,6.75,0,0,0-.7-3.3,2.53,2.53,0,0,0-2.2-1.1,3.92,3.92,0,0,0-1.8.4,5.83,5.83,0,0,0-1.5,1.1v8.7a3.4,3.4,0,0,1-.1,1h1.8v1.5h-6.2v-.1Z"/><path class="cls-2" d="M284.37,122.49a5.26,5.26,0,0,1-2.6-.6,3.24,3.24,0,0,1-1.5-1.9,11.52,11.52,0,0,1-.5-3.6V111a3.4,3.4,0,0,1,.1-1h-2v-1.5h.7a5.84,5.84,0,0,0,2.1-.3,3,3,0,0,0,1-.5h1.1v8.5a6.91,6.91,0,0,0,.6,3.3,2.25,2.25,0,0,0,2.1,1.1,3.23,3.23,0,0,0,1.8-.6,4.42,4.42,0,0,0,1.4-1.3v-7.8c0-.4.1-.7.1-1h-2v-1.5h.8a4.7,4.7,0,0,0,1.9-.3,4.61,4.61,0,0,0,1-.5h1.1v11.5a6.15,6.15,0,0,1-.1,1.4,3.75,3.75,0,0,0,1-.1h1v1.5H289c0-.3-.1-.6-.1-.8s-.1-.5-.1-.8a14.29,14.29,0,0,1-2,1.4A3.84,3.84,0,0,1,284.37,122.49Z"/><path class="cls-2" d="M300.77,122.49a6.75,6.75,0,0,1-1.4-.2,3.29,3.29,0,0,1-1.3-.7,3.07,3.07,0,0,1-.9-1.6,10.06,10.06,0,0,1-.3-2.7l.1-7.6h-2.1v-1.6a2.4,2.4,0,0,0,1.5-.6,6.2,6.2,0,0,0,1.4-1.4,4.55,4.55,0,0,0,.8-1.9h1.3v3.9h4.3v1.5l-4.3.1-.1,7.5a11.08,11.08,0,0,0,.2,1.9,2.28,2.28,0,0,0,.6,1.2,1.59,1.59,0,0,0,1.2.4,2.2,2.2,0,0,0,1.3-.4,4,4,0,0,0,1.3-1.3l1,.8a5,5,0,0,1-1.3,1.5,4.58,4.58,0,0,1-1.3.8,2.61,2.61,0,0,1-1.1.3C301.37,122.39,301,122.49,300.77,122.49Z"/><path class="cls-2" d="M134.47,188.49a7,7,0,0,0-.4-2.7,3.09,3.09,0,0,0-1.1-1.6,3.28,3.28,0,0,0-2.1-.5h-2v16a3.08,3.08,0,0,1-.1,1c.4,0,.7-.1,1.2-.1h1.1v1.5H124v-1.2a2,2,0,0,0,1.3-.4,2.34,2.34,0,0,0,.5-1,8.62,8.62,0,0,0,.1-1.7v-13.9h-2.4A3,3,0,0,0,121,185a6.85,6.85,0,0,0-.8,3.6h-1.3l.2-6h16.5l.2,6-1.3-.1Z"/><path class="cls-2" d="M144.27,202.49a6.76,6.76,0,0,1-3.5-.9,7,7,0,0,1-2.5-2.6,8.47,8.47,0,0,1,0-7.6,6.78,6.78,0,0,1,2.5-2.8,6.63,6.63,0,0,1,3.7-1,5.38,5.38,0,0,1,2.2.4,5.24,5.24,0,0,1,1.9,1.1,4.64,4.64,0,0,1,1.3,2,8.53,8.53,0,0,1,.5,3l-9.6.2a11.76,11.76,0,0,0,.4,3.4,4.75,4.75,0,0,0,1.4,2.3,4.15,4.15,0,0,0,2.5.8,5,5,0,0,0,1.6-.3,4.81,4.81,0,0,0,1.6-.8,4.89,4.89,0,0,0,1.3-1.2l.9.8a9.13,9.13,0,0,1-1.9,2,7.17,7.17,0,0,1-2.2,1A16.46,16.46,0,0,1,144.27,202.49Zm-3.4-9.7h6.5a5.82,5.82,0,0,0-.3-1.9,3.39,3.39,0,0,0-.9-1.4,2.54,2.54,0,0,0-1.6-.5,3.24,3.24,0,0,0-2.4.9A4.9,4.9,0,0,0,140.87,192.79Z"/><path class="cls-2" d="M161,202.09c0-.3-.1-.6-.1-.8a1.7,1.7,0,0,0-.1-.7,6.61,6.61,0,0,1-2,1.4,5.93,5.93,0,0,1-2.3.5,3.89,3.89,0,0,1-3-1,3.53,3.53,0,0,1-.2-4.7,6.42,6.42,0,0,1,2-1.6,10.71,10.71,0,0,1,2.7-.9,14.28,14.28,0,0,1,2.9-.3v-1.7a8.81,8.81,0,0,0-.2-1.7,2.39,2.39,0,0,0-.7-1.3,2.35,2.35,0,0,0-1.6-.5,4,4,0,0,0-1.5.3,1.82,1.82,0,0,0-1.1,1,2.19,2.19,0,0,1,.3.5,1.09,1.09,0,0,1,.1.5,1.61,1.61,0,0,1-.3.9,1.29,1.29,0,0,1-1.1.5,1.23,1.23,0,0,1-1-.5,2.1,2.1,0,0,1-.4-1.1,2.41,2.41,0,0,1,.7-1.8,5.61,5.61,0,0,1,2-1.2,8.85,8.85,0,0,1,2.9-.4,4.55,4.55,0,0,1,3.6,1.3,5.63,5.63,0,0,1,1.2,4v6.7a4.1,4.1,0,0,1-.1,1.1,3.75,3.75,0,0,0,1-.1,3.33,3.33,0,0,1,1,0V202l-4.7.1Zm-.2-6.7a5.66,5.66,0,0,0-1.8.3,4.92,4.92,0,0,0-1.7.6,4,4,0,0,0-1.2,1,2.46,2.46,0,0,0-.5,1.5,1.68,1.68,0,0,0,.6,1.4,2.12,2.12,0,0,0,1.4.4,3.06,3.06,0,0,0,1.7-.4,13,13,0,0,0,1.5-1V197A8.53,8.53,0,0,1,160.77,195.39Z"/><path class="cls-2" d="M168.07,185.19v-1a3.4,3.4,0,0,1,.1-1h-2v-1.5a11.52,11.52,0,0,0,2-.1,10.38,10.38,0,0,0,1.2-.3.92.92,0,0,0,.6-.4h1v8.3a7.61,7.61,0,0,1,1.9-1.2,6,6,0,0,1,5.3.5,6,6,0,0,1,2.2,2.5,8.87,8.87,0,0,1,.8,3.8,8,8,0,0,1-1,4.1,6.18,6.18,0,0,1-2.6,2.7,6.92,6.92,0,0,1-5.6.7,4.58,4.58,0,0,1-2.1-1.4l-.7,1.3H168Zm2.9,12.6a3.52,3.52,0,0,0,.4,2,2.13,2.13,0,0,0,1.1,1,3.19,3.19,0,0,0,1.4.3,3.23,3.23,0,0,0,2.2-.7,5.52,5.52,0,0,0,1.4-2.1,10.23,10.23,0,0,0,.1-6,4.44,4.44,0,0,0-1.3-2.1,3.29,3.29,0,0,0-2.2-.8,3.53,3.53,0,0,0-1.7.4,4.86,4.86,0,0,0-1.4,1.1Z"/><path class="cls-2" d="M190.17,202.49a6.76,6.76,0,0,1-3.5-.9,7,7,0,0,1-2.5-2.6,8.47,8.47,0,0,1,0-7.6,6.78,6.78,0,0,1,2.5-2.8,6.63,6.63,0,0,1,3.7-1,5.38,5.38,0,0,1,2.2.4,5.24,5.24,0,0,1,1.9,1.1,4.64,4.64,0,0,1,1.3,2,8.53,8.53,0,0,1,.5,3l-9.6.2a11.76,11.76,0,0,0,.4,3.4,4.75,4.75,0,0,0,1.4,2.3,4.15,4.15,0,0,0,2.5.8,5,5,0,0,0,1.6-.3,4.81,4.81,0,0,0,1.6-.8,4.89,4.89,0,0,0,1.3-1.2l.9.8a9.13,9.13,0,0,1-1.9,2,7.17,7.17,0,0,1-2.2,1A18.32,18.32,0,0,1,190.17,202.49Zm-3.4-9.7h6.5a5.82,5.82,0,0,0-.3-1.9,3.39,3.39,0,0,0-.9-1.4,2.54,2.54,0,0,0-1.6-.5,3.24,3.24,0,0,0-2.4.9A4.9,4.9,0,0,0,186.77,192.79Z"/><path class="cls-2" d="M198.57,200.89c.6,0,1-.1,1.2-.4a1.82,1.82,0,0,0,.4-1.1c0-.5.1-1,.1-1.6V191a3.4,3.4,0,0,1,.1-1h-2v-1.5h1a4.18,4.18,0,0,0,1.8-.3,3.6,3.6,0,0,0,.9-.5h1c0,.3.1.6.1,1.1a9.15,9.15,0,0,0,.1,1.6,17.41,17.41,0,0,1,1.2-1.4,4.92,4.92,0,0,1,1.5-1,3.29,3.29,0,0,1,1.7-.4,2.46,2.46,0,0,1,1.5.5,1.75,1.75,0,0,1,.6,1.5,1.42,1.42,0,0,1-.2.6,1.47,1.47,0,0,1-.5.6,1.9,1.9,0,0,1-.9.3,1.78,1.78,0,0,1-1-.4,1.5,1.5,0,0,1-.4-1.1,2.2,2.2,0,0,0-1.3.4,4.15,4.15,0,0,0-1.2,1.1,5.6,5.6,0,0,0-1,1.5v7.1a3.4,3.4,0,0,1-.1,1H205v1.5h-6.3l-.1-1.3Z"/><path class="cls-2" d="M211.17,200.89c.6,0,1-.1,1.2-.4a1.82,1.82,0,0,0,.4-1.1c0-.5.1-1,.1-1.6V191a3.4,3.4,0,0,1,.1-1h-2v-1.5h1a4.18,4.18,0,0,0,1.8-.3,3.6,3.6,0,0,0,.9-.5h1c0,.3.1.6.1,1.1a9.15,9.15,0,0,0,.1,1.6,17.41,17.41,0,0,1,1.2-1.4,4.92,4.92,0,0,1,1.5-1,3.29,3.29,0,0,1,1.7-.4,2.46,2.46,0,0,1,1.5.5,1.75,1.75,0,0,1,.6,1.5,1.42,1.42,0,0,1-.2.6,1.47,1.47,0,0,1-.5.6,1.9,1.9,0,0,1-.9.3,1.78,1.78,0,0,1-1-.4,1.5,1.5,0,0,1-.4-1.1,2.2,2.2,0,0,0-1.3.4,4.15,4.15,0,0,0-1.2,1.1,5.6,5.6,0,0,0-1,1.5v7.1a3.4,3.4,0,0,1-.1,1h1.8v1.5h-6.3l-.1-1.3Z"/><path class="cls-2" d="M226.17,209.69a3,3,0,0,1-1.6-.5,1.75,1.75,0,0,1-.7-1.4,1.67,1.67,0,0,1,.4-1.1,1.11,1.11,0,0,1,1-.5,1.16,1.16,0,0,1,1,.4,1.61,1.61,0,0,1,.3.9v.4h.3a1.33,1.33,0,0,0,.7-.3,3.51,3.51,0,0,0,.7-.9c.2-.4.5-1,.8-1.7s.6-1.6.9-2.5l-4.4-9.2a12.37,12.37,0,0,1-1-2.4c-.2-.6-.3-1.1-.4-1.4l-1.3.1v-1.5h6.2v1.1H229q-1.2.15-1.2.9a5.15,5.15,0,0,0,.5,2.1l3.1,6.8c.4-1,.7-2,1.1-3.1s.7-2.3,1.1-3.4c.1-.4.3-.7.4-1.1s.3-.8.4-1.1.3-.6.5-.7l-1.8.1v-1.5h4.6v1.1a2.29,2.29,0,0,0-1.5,1.2,9.91,9.91,0,0,0-1,2.3l-3.5,9.9a32.23,32.23,0,0,1-1.5,3.9,9.1,9.1,0,0,1-1.6,2.4A3.28,3.28,0,0,1,226.17,209.69Z"/><path class="cls-2" d="M255.67,202.49a10,10,0,0,1-5-1.2,8.58,8.58,0,0,1-3.3-3.5,10.79,10.79,0,0,1-1.2-5.2,12.09,12.09,0,0,1,.6-3.8,11.12,11.12,0,0,1,1.8-3.4,8.34,8.34,0,0,1,3.1-2.4,9.72,9.72,0,0,1,4.3-.9,12.25,12.25,0,0,1,1.9.2,19.45,19.45,0,0,1,2,.5,14.17,14.17,0,0,1,1.8.8l-.1-1.3h1.7v6.4H262a5.41,5.41,0,0,0-2.9-4.6,6.39,6.39,0,0,0-2.8-.6,5,5,0,0,0-2.7.7,6,6,0,0,0-2.1,1.8,8.67,8.67,0,0,0-1.4,2.7,12.13,12.13,0,0,0-.5,3.4,11.44,11.44,0,0,0,.9,4.6,7.61,7.61,0,0,0,2.4,3.1,5.8,5.8,0,0,0,3.7,1.1,8.64,8.64,0,0,0,1.5-.1,7.49,7.49,0,0,0,1.6-.4,6.11,6.11,0,0,0,1.4-.7v-5.8a3.75,3.75,0,0,0-1,.1,3.08,3.08,0,0,0-1,.1v-1.5h6.7v1.2a2,2,0,0,0-1.1.3,1.56,1.56,0,0,0-.6.8,3,3,0,0,0-.2,1c0,.3-.1.7-.1,1v4.4h-.7a9.32,9.32,0,0,0-1.4.2,16.69,16.69,0,0,0-1.8.5,9.73,9.73,0,0,1-2,.5Z"/><path class="cls-2" d="M273.27,202.49a5.26,5.26,0,0,1-2.6-.6,3.24,3.24,0,0,1-1.5-1.9,11.52,11.52,0,0,1-.5-3.6V191a3.4,3.4,0,0,1,.1-1h-2v-1.5h.7a5.84,5.84,0,0,0,2.1-.3,3,3,0,0,0,1-.5h1.1v8.5a6.91,6.91,0,0,0,.6,3.3,2.25,2.25,0,0,0,2.1,1.1,3.23,3.23,0,0,0,1.8-.6,4.42,4.42,0,0,0,1.4-1.3v-7.8c0-.4.1-.7.1-1h-2v-1.5h.8a4.7,4.7,0,0,0,1.9-.3,4.61,4.61,0,0,0,1-.5h1.1v11.5a6.15,6.15,0,0,1-.1,1.4,3.75,3.75,0,0,0,1-.1h1v1.5h-4.5c0-.3-.1-.6-.1-.8s-.1-.5-.1-.8a14.29,14.29,0,0,1-2,1.4A3.84,3.84,0,0,1,273.27,202.49Z"/><path class="cls-2" d="M284.27,202.09v-1.2c.6,0,1-.1,1.2-.4a1.82,1.82,0,0,0,.4-1.1c0-.5.1-1,.1-1.6V191a3.4,3.4,0,0,1,.1-1h-2v-1.5a11.52,11.52,0,0,0,2-.1,8.11,8.11,0,0,0,1.1-.3,1.27,1.27,0,0,0,.6-.4h1c0,.2.1.4.1.7v.8a6.66,6.66,0,0,1,2-1.2,5.92,5.92,0,0,1,2.1-.4,5.21,5.21,0,0,1,2.3.5,3.16,3.16,0,0,1,1.4,1.4,9.8,9.8,0,0,1,2.2-1.3,6.87,6.87,0,0,1,2.4-.5,4.23,4.23,0,0,1,3.5,1.4c.8.9,1.1,2.5,1.1,4.7v5.8a3.4,3.4,0,0,1-.1,1h1.8v1.5h-6.1v-1.2a1.25,1.25,0,0,0,1.1-.4,2.82,2.82,0,0,0,.4-1.1c0-.5.1-1,.1-1.6v-4a6,6,0,0,0-.7-3.2,2.39,2.39,0,0,0-2.1-1,4.53,4.53,0,0,0-1.6.3,4.19,4.19,0,0,0-1.4.9,3.55,3.55,0,0,1,.2,1c0,.4.1.8.1,1.2v6.6a3.4,3.4,0,0,1-.1,1h1.8v1.5h-6.2v-1.2a1.46,1.46,0,0,0,1.2-.4,2.82,2.82,0,0,0,.4-1.1c0-.5.1-1,.1-1.6v-4.1a6.91,6.91,0,0,0-.6-3.3,2.18,2.18,0,0,0-2.1-1,4.53,4.53,0,0,0-1.6.3,3.81,3.81,0,0,0-1.3.9v8.9a3.4,3.4,0,0,1-.1,1h1.7V202l-6.5.1Z"/></g></g></svg>