<svg xmlns="http://www.w3.org/2000/svg" viewBox="0 0 206.82 302.03"><defs><style>.cls-1{fill:#68aea7;}.cls-2{fill:#1a0f01;}</style></defs><g id="Layer_2" data-name="Layer 2"><g id="Layer_1-2" data-name="Layer 1"><path class="cls-1" d="M120.48,294.69c-1.1-.3-2.3-.4-3.4-.8-1.4-.6-2.2-.2-3.1.9a63.28,63.28,0,0,1-4.7,5.6c-2.2,2.2-3.3,2.2-5.4-.1-1.6-1.7-3.2-3.4-4.7-5.2-1.8-2.1-1.9-2.3-4.4-1.2-3.5,1.5-6.6.6-9.5-1.5a7.41,7.41,0,0,1-3.3-5.7c-.1-1.9-1-2.5-2.7-3-4.2-1.2-8.3-2.8-11.7-5.7a19.4,19.4,0,0,1-3.5-4.5c-.7-1.1-.3-2.2.5-3.4a16.23,16.23,0,0,0,2.2-4.1c.8-2.5.4-3.3-1.7-4.9-3.7-3-7.4-5.9-10.9-9.1-10.6-9.9-18.6-21.7-24.9-34.8a156.18,156.18,0,0,1-11.2-32.5,6,6,0,0,0-2.7-4c-4.8-3.1-8.6-7.2-9.4-13.1a24.67,24.67,0,0,1,.6-8.1c.5-2.4.2-4.1-1.7-5.8a33.09,33.09,0,0,1-4.1-5,3,3,0,0,1,.1-4.1c1.5-1.7,2.9-3.5,4.5-5.1a3.13,3.13,0,0,0,1-3.7,17.6,17.6,0,0,1-.8-8.8c1.1-6,4.7-10.2,9.7-13.3a4.88,4.88,0,0,0,2.3-3.1,138.23,138.23,0,0,1,17.6-44.7c7.1-11.3,15.9-21.2,27.4-28.3,1.4-.9,2-2,1.4-3.5a23.38,23.38,0,0,0-2.5-5,2.89,2.89,0,0,1-.3-3.5c1.7-3.3,4.8-5.1,8-6.5a70.78,70.78,0,0,1,7.8-2.5,1.85,1.85,0,0,0,1.6-1.9,8.18,8.18,0,0,1,12.1-7.1c2.6,1.4,2.6,1.3,4.3-1,1.5-1.9,3.1-3.8,4.7-5.6,1.4-1.4,2-1.3,3.3.2l5.7,6.6a2.52,2.52,0,0,0,2.8.9c6.3-1.7,10.9.6,12.9,6.9a4.46,4.46,0,0,0,3.8,3.4,24.08,24.08,0,0,1,13.3,8.3c2,2.5,2.1,3.1.4,5.9a6.11,6.11,0,0,0-.7,1.4c-1.5,3.4-1.3,4,1.6,6.2a105.62,105.62,0,0,1,32.4,39.3c4.6,9.6,8.8,19.3,11.6,29.6a15.4,15.4,0,0,0,6.3,9.3,18.13,18.13,0,0,1,8,15,14.81,14.81,0,0,1-.9,5.1,2.76,2.76,0,0,0,.6,3c1.8,2.1,3.5,4.2,5.2,6.3a3.29,3.29,0,0,1-.2,4.6,53.7,53.7,0,0,1-3.7,4.4,4,4,0,0,0-1.1,4.4c1.7,5.1,1.3,10.1-1.8,14.4-1.9,2.7-4.6,4.9-7.1,7.1a6.58,6.58,0,0,0-2.5,3.8c-2.5,10.8-5.1,21.7-10,31.6-8,16.3-18.3,31-33.3,41.9-2.5,1.8-2.8,2.8-1.5,5.6a20.16,20.16,0,0,0,1.8,3.2c1.6,2.4,1.5,3.6-.3,5.8a19.75,19.75,0,0,1-8.5,6c-2.2.8-4.4,1.6-6.6,2.3a2.53,2.53,0,0,0-2,2.7C129.08,291.49,125.78,294.59,120.48,294.69Zm57.4-141.8c-.2-4.7-.2-9.4-.7-14.1a150.83,150.83,0,0,0-6.2-29.7,115.66,115.66,0,0,0-21.2-40.5c-8.6-10.4-18.5-19.1-31.4-23.7-6.4-2.3-12.9-4-19.7-3.2a59.89,59.89,0,0,0-36,17c-15.5,15.1-24,34.2-28.7,54.9a154.19,154.19,0,0,0-2.2,54.6c2.6,19.1,7.7,37.3,18.4,53.7,6.1,9.3,12.7,18.2,21.9,24.7,7.1,5,14.7,9.1,23.2,11.1a45.23,45.23,0,0,0,30.7-3.3c9.7-4.7,18.6-10.4,25.4-19,11.7-14.8,18.8-31.6,23.1-49.7C177.08,174.79,177.78,163.89,177.88,152.89Z"/><path class="cls-2" d="M65.68,102.89a2,2,0,0,0,1.3-.4,1.6,1.6,0,0,0,.5-1,8.12,8.12,0,0,0,.1-1.7V87a3.08,3.08,0,0,1,.1-1,3.4,3.4,0,0,0-1,.1,3.08,3.08,0,0,0-1,.1v-1.5h6.9a14.86,14.86,0,0,1,4.5.6,5.82,5.82,0,0,1,2.8,1.9,4.72,4.72,0,0,1,1,3.2,6.56,6.56,0,0,1-.4,2.3,7.44,7.44,0,0,1-1.4,2.2,7.18,7.18,0,0,1-2.7,1.6,13.09,13.09,0,0,1-4.3.6h-1.3V102a3.08,3.08,0,0,1-.1,1,2.2,2.2,0,0,0,.8-.1h1.7v1.6h-7.4l-.1-1.6Zm5-7.5c.3,0,.6.1.8.1h.8a6.39,6.39,0,0,0,2.8-.6,5.19,5.19,0,0,0,1.9-1.7,5.38,5.38,0,0,0,.7-2.7,5.56,5.56,0,0,0-.4-2.3,3.14,3.14,0,0,0-1.1-1.4,4.59,4.59,0,0,0-1.6-.7,6.48,6.48,0,0,0-2-.2,1.74,1.74,0,0,0-1.2.3,1.6,1.6,0,0,0-.5,1,8.12,8.12,0,0,0-.1,1.7v6.5Z"/><path class="cls-2" d="M89.48,104.59a6.76,6.76,0,0,1-3.5-.9,7,7,0,0,1-2.5-2.6,8.47,8.47,0,0,1,0-7.6,6.78,6.78,0,0,1,2.5-2.8,6.63,6.63,0,0,1,3.7-1,5.38,5.38,0,0,1,2.2.4,5.24,5.24,0,0,1,1.9,1.1,4.64,4.64,0,0,1,1.3,2,8.53,8.53,0,0,1,.5,3l-9.6.2a11.76,11.76,0,0,0,.4,3.4,4.75,4.75,0,0,0,1.4,2.3,4.15,4.15,0,0,0,2.5.8,5,5,0,0,0,1.6-.3,4.81,4.81,0,0,0,1.6-.8,4.89,4.89,0,0,0,1.3-1.2l.9.8a9.13,9.13,0,0,1-1.9,2,7.17,7.17,0,0,1-2.2,1A7.84,7.84,0,0,1,89.48,104.59ZM86,94.89h6.5a5.82,5.82,0,0,0-.3-1.9,3.39,3.39,0,0,0-.9-1.4,2.54,2.54,0,0,0-1.6-.5,3.24,3.24,0,0,0-2.4.9A4.9,4.9,0,0,0,86,94.89Z"/><path class="cls-2" d="M106.08,104.19c0-.3-.1-.6-.1-.8a1.7,1.7,0,0,0-.1-.7,6.61,6.61,0,0,1-2,1.4,5.93,5.93,0,0,1-2.3.5,3.89,3.89,0,0,1-3-1,3.53,3.53,0,0,1-.2-4.7,6.42,6.42,0,0,1,2-1.6,10.71,10.71,0,0,1,2.7-.9,14.28,14.28,0,0,1,2.9-.3v-1.7a8.81,8.81,0,0,0-.2-1.7,2.39,2.39,0,0,0-.7-1.3,2.35,2.35,0,0,0-1.6-.5,4,4,0,0,0-1.5.3,1.82,1.82,0,0,0-1.1,1c.1.2.2.3.3.5a4.33,4.33,0,0,0,.1.5,1.61,1.61,0,0,1-.3.9,1.29,1.29,0,0,1-1.1.5,1.23,1.23,0,0,1-1-.5,2.1,2.1,0,0,1-.4-1.1,2.41,2.41,0,0,1,.7-1.8,5.61,5.61,0,0,1,2-1.2,8.85,8.85,0,0,1,2.9-.4,4.55,4.55,0,0,1,3.6,1.3,5.63,5.63,0,0,1,1.2,4v6.7a4.1,4.1,0,0,1-.1,1.1,3.75,3.75,0,0,0,1-.1h1v1.5l-4.7.1Zm-.2-6.7a5.66,5.66,0,0,0-1.8.3,4.92,4.92,0,0,0-1.7.6,4,4,0,0,0-1.2,1,2.46,2.46,0,0,0-.5,1.5,1.68,1.68,0,0,0,.6,1.4,2.12,2.12,0,0,0,1.4.4,3.06,3.06,0,0,0,1.7-.4,13,13,0,0,0,1.5-1v-3.8Z"/><path class="cls-2" d="M119.18,104.59a6.4,6.4,0,0,1-3.4-.9,7.18,7.18,0,0,1-2.5-2.4,8,8,0,0,1-.9-3.9,9.29,9.29,0,0,1,.5-2.9,7.93,7.93,0,0,1,1.5-2.5,6.58,6.58,0,0,1,2.3-1.7,7.31,7.31,0,0,1,3-.6,7.78,7.78,0,0,1,2.8.5,4.2,4.2,0,0,1,1.8,1.3,2.79,2.79,0,0,1,.6,1.8,1.92,1.92,0,0,1-.4,1.2,1.17,1.17,0,0,1-1.1.5c-.5,0-.9-.1-1.1-.5a1.93,1.93,0,0,1-.3-1,1.27,1.27,0,0,1,.1-.6l.3-.6a1.6,1.6,0,0,0-.7-.9,4.18,4.18,0,0,0-1-.4,3.44,3.44,0,0,0-.9-.1,3.65,3.65,0,0,0-2.9,1.5,6.38,6.38,0,0,0-1.2,4.2,9.59,9.59,0,0,0,.5,3.1,5.74,5.74,0,0,0,1.5,2.2,4.07,4.07,0,0,0,2.4.8,4.2,4.2,0,0,0,2.4-.7,5.19,5.19,0,0,0,1.9-1.7l.9.8a7.28,7.28,0,0,1-1.9,2,6.7,6.7,0,0,1-2.1,1A9.07,9.07,0,0,1,119.18,104.59Z"/><path class="cls-2" d="M135.88,103c.6,0,1-.1,1.2-.4a1.82,1.82,0,0,0,.4-1.1c0-.5.1-1,.1-1.6V96a5.79,5.79,0,0,0-.7-3.3,2.53,2.53,0,0,0-2.2-1.1,5.84,5.84,0,0,0-1.8.4,4.18,4.18,0,0,0-1.5,1.1v8.6a3.4,3.4,0,0,1-.1,1h1.8v1.5h-6.3V103c.6,0,1-.1,1.2-.4a1.82,1.82,0,0,0,.4-1.1,8.08,8.08,0,0,0,.1-1.6V86.19a3.4,3.4,0,0,1,.1-1h-2v-1.5a11.52,11.52,0,0,0,2-.1,10.38,10.38,0,0,0,1.2-.3.92.92,0,0,0,.6-.4h1v8.5c.4-.3.9-.6,1.4-.9a4.42,4.42,0,0,1,1.6-.6,8.87,8.87,0,0,1,1.5-.2,4.09,4.09,0,0,1,3.6,1.5,8.35,8.35,0,0,1,1.1,4.7v5.7a3.4,3.4,0,0,1-.1,1h1.8v1.5H136V103Z"/><path class="cls-2" d="M74.58,170.79a6.42,6.42,0,0,0-1.7-3.9,5.31,5.31,0,0,0-3.7-1.4,5.7,5.7,0,0,0-4.8,2.4,8.67,8.67,0,0,0-1.4,2.7,12.3,12.3,0,0,0-.5,3.5,10.63,10.63,0,0,0,.9,4.5,7.65,7.65,0,0,0,2.5,3.1,6.63,6.63,0,0,0,3.6,1.1,7.3,7.3,0,0,0,3.5-.9,8.49,8.49,0,0,0,2.9-2.4l.9.8a9.89,9.89,0,0,1-2.7,2.7,9.45,9.45,0,0,1-2.8,1.2,12.22,12.22,0,0,1-2.6.3,10.06,10.06,0,0,1-3.9-.8,8.13,8.13,0,0,1-3-2.1,11.56,11.56,0,0,1-2-3.2,10,10,0,0,1-.7-3.9,12.09,12.09,0,0,1,.6-3.8,11.12,11.12,0,0,1,1.8-3.4,8.86,8.86,0,0,1,3-2.4,9.42,9.42,0,0,1,4.3-.9,8.63,8.63,0,0,1,2.8.4,12.27,12.27,0,0,1,2.6,1.2l-.1-1.4h1.7v6.5h-1.2v.1Z"/><path class="cls-2" d="M85.48,184.59a7.4,7.4,0,0,1-3.6-.9,6,6,0,0,1-2.5-2.5,7.51,7.51,0,0,1-.9-3.7,8.43,8.43,0,0,1,.9-4,7.55,7.55,0,0,1,2.5-2.8,6.3,6.3,0,0,1,3.6-1,7.4,7.4,0,0,1,3.6.9,6,6,0,0,1,2.5,2.5,7.51,7.51,0,0,1,.9,3.7,8.72,8.72,0,0,1-.9,4,7.55,7.55,0,0,1-2.5,2.8A6.09,6.09,0,0,1,85.48,184.59Zm.2-1.4a2.86,2.86,0,0,0,2.1-.8,4.22,4.22,0,0,0,1.1-2.1,10.9,10.9,0,0,0,.3-2.6,19.42,19.42,0,0,0-.2-2.4,6.49,6.49,0,0,0-.7-2.1,4.43,4.43,0,0,0-1.2-1.5,2.27,2.27,0,0,0-1.8-.5,2.86,2.86,0,0,0-2.1.8,4.32,4.32,0,0,0-1.2,2.1,12.59,12.59,0,0,0-.4,2.7,10.55,10.55,0,0,0,.4,3.1,5.53,5.53,0,0,0,1.3,2.4A3.58,3.58,0,0,0,85.68,183.19Z"/><path class="cls-2" d="M100.18,184.59a6.75,6.75,0,0,1-1.4-.2,3.29,3.29,0,0,1-1.3-.7,3.54,3.54,0,0,1-.9-1.6,10.06,10.06,0,0,1-.3-2.7l.1-7.6h-2.1v-1.6a2.4,2.4,0,0,0,1.5-.6,6.2,6.2,0,0,0,1.4-1.4,4.55,4.55,0,0,0,.8-1.9h1.3v3.9h4.3v1.5l-4.3.1-.1,7.5a11.08,11.08,0,0,0,.2,1.9,2.28,2.28,0,0,0,.6,1.2,1.59,1.59,0,0,0,1.2.4,2.2,2.2,0,0,0,1.3-.4,4,4,0,0,0,1.3-1.3l1,.8a5,5,0,0,1-1.3,1.5,4.58,4.58,0,0,1-1.3.8,2.61,2.61,0,0,1-1.1.3C100.78,184.49,100.38,184.59,100.18,184.59Z"/><path class="cls-2" d="M111.18,184.59a6.75,6.75,0,0,1-1.4-.2,3.29,3.29,0,0,1-1.3-.7,3.54,3.54,0,0,1-.9-1.6,10.06,10.06,0,0,1-.3-2.7l.1-7.6h-2.1v-1.6a2.4,2.4,0,0,0,1.5-.6,6.2,6.2,0,0,0,1.4-1.4,4.55,4.55,0,0,0,.8-1.9h1.3v3.9h4.3v1.5l-4.3.1-.1,7.5a11.08,11.08,0,0,0,.2,1.9,2.28,2.28,0,0,0,.6,1.2,1.59,1.59,0,0,0,1.2.4,2.2,2.2,0,0,0,1.3-.4,4,4,0,0,0,1.3-1.3l1,.8a5,5,0,0,1-1.3,1.5,4.58,4.58,0,0,1-1.3.8,2.61,2.61,0,0,1-1.1.3C111.78,184.49,111.48,184.59,111.18,184.59Z"/><path class="cls-2" d="M123.88,184.59a7.4,7.4,0,0,1-3.6-.9,6,6,0,0,1-2.5-2.5,7.51,7.51,0,0,1-.9-3.7,8.43,8.43,0,0,1,.9-4,7.55,7.55,0,0,1,2.5-2.8,6.3,6.3,0,0,1,3.6-1,7.4,7.4,0,0,1,3.6.9,6,6,0,0,1,2.5,2.5,7.51,7.51,0,0,1,.9,3.7,8.72,8.72,0,0,1-.9,4,7.55,7.55,0,0,1-2.5,2.8A6.53,6.53,0,0,1,123.88,184.59Zm.2-1.4a2.86,2.86,0,0,0,2.1-.8,4.22,4.22,0,0,0,1.1-2.1,10.9,10.9,0,0,0,.3-2.6,19.42,19.42,0,0,0-.2-2.4,6.49,6.49,0,0,0-.7-2.1,4.43,4.43,0,0,0-1.2-1.5,2.27,2.27,0,0,0-1.8-.5,2.86,2.86,0,0,0-2.1.8,4.32,4.32,0,0,0-1.2,2.1,12.59,12.59,0,0,0-.4,2.7,10.55,10.55,0,0,0,.4,3.1,5.53,5.53,0,0,0,1.3,2.4A3.58,3.58,0,0,0,124.08,183.19Z"/><path class="cls-2" d="M133.18,184.19V183c.6,0,1-.1,1.2-.4a1.82,1.82,0,0,0,.4-1.1c0-.5.1-1,.1-1.6v-6.8a3.4,3.4,0,0,1,.1-1h-2v-1.5a11.52,11.52,0,0,0,2-.1,8.11,8.11,0,0,0,1.1-.3,1.27,1.27,0,0,0,.6-.4h1v1.6c.4-.3.9-.6,1.3-.9a4.71,4.71,0,0,1,1.5-.6,3.89,3.89,0,0,1,1.5-.2,4.09,4.09,0,0,1,3.6,1.5,8.35,8.35,0,0,1,1.1,4.7v5.7a3.4,3.4,0,0,1-.1,1h1.8v1.5h-6.2V183c.6,0,1-.1,1.2-.4a1.82,1.82,0,0,0,.4-1.1c0-.5.1-1,.1-1.6V176a6.75,6.75,0,0,0-.7-3.3,2.41,2.41,0,0,0-2.2-1.1,3.92,3.92,0,0,0-1.8.4,5.83,5.83,0,0,0-1.5,1.1v8.7a3.4,3.4,0,0,1-.1,1h1.8v1.5h-6.2Z"/><path class="cls-2" d="M78.68,200.79a6.42,6.42,0,0,0-1.7-3.9,5.31,5.31,0,0,0-3.7-1.4,5.7,5.7,0,0,0-4.8,2.4,8.67,8.67,0,0,0-1.4,2.7,12.3,12.3,0,0,0-.5,3.5,10.63,10.63,0,0,0,.9,4.5,7.65,7.65,0,0,0,2.5,3.1,6.63,6.63,0,0,0,3.6,1.1,7.3,7.3,0,0,0,3.5-.9,8.49,8.49,0,0,0,2.9-2.4l.9.8a9.89,9.89,0,0,1-2.7,2.7,9.45,9.45,0,0,1-2.8,1.2,12.22,12.22,0,0,1-2.6.3,10.06,10.06,0,0,1-3.9-.8,8.13,8.13,0,0,1-3-2.1,11.56,11.56,0,0,1-2-3.2,10,10,0,0,1-.7-3.9,12.09,12.09,0,0,1,.6-3.8,11.12,11.12,0,0,1,1.8-3.4,8.86,8.86,0,0,1,3-2.4,9.42,9.42,0,0,1,4.3-.9,8.63,8.63,0,0,1,2.8.4,12.27,12.27,0,0,1,2.6,1.2l-.1-1.4h1.7v6.5h-1.2v.1Z"/><path class="cls-2" d="M91,214.19c0-.3-.1-.6-.1-.8a1.7,1.7,0,0,0-.1-.7,6.61,6.61,0,0,1-2,1.4,5.93,5.93,0,0,1-2.3.5,3.89,3.89,0,0,1-3-1,3.53,3.53,0,0,1-.2-4.7,6.42,6.42,0,0,1,2-1.6,10.71,10.71,0,0,1,2.7-.9,14.28,14.28,0,0,1,2.9-.3v-1.7a8.81,8.81,0,0,0-.2-1.7,2.39,2.39,0,0,0-.7-1.3,2.35,2.35,0,0,0-1.6-.5,4,4,0,0,0-1.5.3,1.82,1.82,0,0,0-1.1,1c.1.2.2.3.3.5a4.33,4.33,0,0,0,.1.5,1.61,1.61,0,0,1-.3.9,1.29,1.29,0,0,1-1.1.5,1.23,1.23,0,0,1-1-.5,2.1,2.1,0,0,1-.4-1.1,2.41,2.41,0,0,1,.7-1.8,5.61,5.61,0,0,1,2-1.2,8.85,8.85,0,0,1,2.9-.4,4.55,4.55,0,0,1,3.6,1.3,5.63,5.63,0,0,1,1.2,4v6.7a4.1,4.1,0,0,1-.1,1.1,3.75,3.75,0,0,0,1-.1h1v1.5l-4.7.1Zm-.2-6.7a5.66,5.66,0,0,0-1.8.3,4.92,4.92,0,0,0-1.7.6,4,4,0,0,0-1.2,1,2.46,2.46,0,0,0-.5,1.5,1.68,1.68,0,0,0,.6,1.4,2.12,2.12,0,0,0,1.4.4,3.06,3.06,0,0,0,1.7-.4,13,13,0,0,0,1.5-1v-3.8Z"/><path class="cls-2" d="M97.28,214.19V213c.6,0,1-.1,1.2-.4a1.82,1.82,0,0,0,.4-1.1c0-.5.1-1,.1-1.6v-6.8a3.4,3.4,0,0,1,.1-1h-2v-1.5a11.52,11.52,0,0,0,2-.1,8.11,8.11,0,0,0,1.1-.3,1.27,1.27,0,0,0,.6-.4h1v1.6c.4-.3.9-.6,1.3-.9a4.71,4.71,0,0,1,1.5-.6,3.89,3.89,0,0,1,1.5-.2,4.09,4.09,0,0,1,3.6,1.5,8.35,8.35,0,0,1,1.1,4.7v5.7a3.4,3.4,0,0,1-.1,1h1.8v1.5h-6.2V213c.6,0,1-.1,1.2-.4a1.82,1.82,0,0,0,.4-1.1c0-.5.1-1,.1-1.6V206a6.75,6.75,0,0,0-.7-3.3,2.41,2.41,0,0,0-2.2-1.1,3.92,3.92,0,0,0-1.8.4,5.83,5.83,0,0,0-1.5,1.1v8.7a3.4,3.4,0,0,1-.1,1h1.8v1.5h-6.2Z"/><path class="cls-2" d="M120.38,214.59a5.07,5.07,0,0,1-3-.9,6.11,6.11,0,0,1-2.1-2.4,8.87,8.87,0,0,1-.8-3.8,9.15,9.15,0,0,1,.9-4.1,6.78,6.78,0,0,1,2.5-2.8,6.63,6.63,0,0,1,3.7-1,9.85,9.85,0,0,1,1.7.2,3.92,3.92,0,0,1,1.3.5v-4.1a4.48,4.48,0,0,1,.1-1.1,3.4,3.4,0,0,0-1,.1h-1v-1.5a11.52,11.52,0,0,0,2-.1,5.31,5.31,0,0,0,1.1-.3c.2-.1.5-.2.6-.4h1v18.7a4.1,4.1,0,0,1-.1,1.1,3.4,3.4,0,0,0,1-.1h.9v1.5h-4.5c0-.3-.1-.5-.1-.7s-.1-.4-.1-.7a6.22,6.22,0,0,1-1.9,1.4A4,4,0,0,1,120.38,214.59Zm1.1-1.7a3.69,3.69,0,0,0,1.7-.5,4.07,4.07,0,0,0,1.4-1.2V202a3.38,3.38,0,0,0-1.2-.6,7.72,7.72,0,0,0-1.5-.2,3.57,3.57,0,0,0-2.3.8,4.92,4.92,0,0,0-1.4,2.2,10.12,10.12,0,0,0-.4,3.1,8.68,8.68,0,0,0,.5,2.8,4.85,4.85,0,0,0,1.2,2A2.79,2.79,0,0,0,121.48,212.89Z"/><path class="cls-2" d="M133.68,221.79a3,3,0,0,1-1.6-.5,1.75,1.75,0,0,1-.7-1.4,1.67,1.67,0,0,1,.4-1.1,1.39,1.39,0,0,1,1-.5,1.16,1.16,0,0,1,1,.4,1.61,1.61,0,0,1,.3.9v.4h.3a1.33,1.33,0,0,0,.7-.3,3.51,3.51,0,0,0,.7-.9c.2-.4.5-1,.8-1.7s.6-1.6.9-2.5l-4.4-9.2a12.37,12.37,0,0,1-1-2.4,12.75,12.75,0,0,0-.4-1.4l-1.3.1v-1.5h6.2v1.1h-.1q-1.2.15-1.2.9a5.15,5.15,0,0,0,.5,2.1l3.1,6.8c.4-1,.7-2,1.1-3.1s.7-2.3,1.1-3.4c.1-.4.3-.7.4-1.1s.3-.8.4-1.1.3-.6.5-.7l-1.8.1v-1.5h4.6v1.1a2.29,2.29,0,0,0-1.5,1.2,17.43,17.43,0,0,0-1,2.3l-3.5,9.9a32.23,32.23,0,0,1-1.5,3.9,9.1,9.1,0,0,1-1.6,2.4A5.13,5.13,0,0,1,133.68,221.79Z"/></g></g></svg>