<svg xmlns="http://www.w3.org/2000/svg" viewBox="0 0 210.1 151.75"><defs><style>.cls-1{fill:#a5bc7b;}.cls-2{fill:#1a0f01;}</style></defs><g id="Layer_2" data-name="Layer 2"><g id="Layer_1-2" data-name="Layer 1"><path class="cls-1" d="M210.1,133.38h-2.7c-3.9.1-3.9.6-3.2,3.8a38.56,38.56,0,0,1,.9,4.9,8.53,8.53,0,0,1-9.6,9.6,20.17,20.17,0,0,1-9-4.2c-.6-.4-1.2-.9-1.9-1.3-1.7-1.1-2.6-1-4.1.4a20.28,20.28,0,0,0-1.8,2.3c-.4.6-.7.7-1.3.3a47.11,47.11,0,0,0-19.5-6.6,88.46,88.46,0,0,0-15.4-.9c-5.6.4-10.9,1.9-16.3,3.3-2,.6-4.1,1.1-6.1,1.5a5,5,0,0,1-4.2-1.2c-3.9-2.8-8.4-3.6-12.4-1.3-3.8,2.2-7.1,1.7-10.7.4-4.1-1.4-8.1-2.9-12.3-4-7.7-1.9-15.6-1.8-23.5-1.6a47.06,47.06,0,0,0-13.9,2.3,50,50,0,0,0-4.8,2.1c-1,.5-1.6.4-2.2-.6a10.92,10.92,0,0,0-1.3-1.7c-2.1-2.1-3.6-2.3-6.2-.7a22.89,22.89,0,0,1-8.2,3.5c-6.1.9-11.4-2.3-13.2-8.1-.9-2.8-.3-5.7.5-8.5.8-2.5.4-3.1-2.2-3.6a11.84,11.84,0,0,0-2.6-.2c-1.5-.1-1.7-.5-1.1-1.8.7-1.6,1.5-3.1,2.2-4.7,2.7-5.7,2.2-11.5.2-17.3C2.9,95.78,1.7,92,.7,88.18A17.82,17.82,0,0,1,2,75a12.69,12.69,0,0,1,4.5-4.7c1.4-1,1.4-1.2.2-2.4C3.1,64.38.5,60.28.1,55.08a18.78,18.78,0,0,1,1.2-7.8,87.8,87.8,0,0,1,3.3-8.5c2.7-6,2.1-11.7-.9-17.3-.6-1.2-1.2-2.3-1.8-3.5s-.3-1.4.9-1.4,2.6.1,3.9.2c1.8,0,2.2-.5,1.5-2.2a14.34,14.34,0,0,1-1-6.5c.6-5,6.3-9,11.2-7.9A26.75,26.75,0,0,1,29,5.28a3.29,3.29,0,0,0,4.6-.2,9.5,9.5,0,0,0,1.6-1.9c.6-1.1,1.2-1.1,2.3-.5,2.6,1.4,5.1,3,7.9,3.8a97.14,97.14,0,0,0,12,2.1c8,1.2,15.9,0,23.7-1.1,3.5-.5,7-1.3,10.5-2,2.7-.5,5.1-.4,7.4,1.3,3.6,2.6,7.6,2.5,11.5.7,3.3-1.6,6.2-1.2,9.4.1,7.3,2.9,14.9,5.2,22.8,5.7a84.31,84.31,0,0,0,20.7-.7c1.6-.3,3.1-1.4,4.6-2.3,1.7-1,2.6-1,3.9.5a8.35,8.35,0,0,1,1.2,1.6c1.4,2,2.7,2.4,4.9,1.5a49.87,49.87,0,0,0,5.3-2.3c7.4-3.8,13.6,1.9,14.8,7.7a15,15,0,0,1-.2,7c-.4,1.6-.1,2,1.5,2.2,1,.1,2,.2,3,.2,1.7,0,2,.4,1.4,2-.7,1.8-1.6,3.6-2.1,5.4-1.4,4.8-.8,9.5.9,14.2,1.6,4.3,3.2,8.6,4.5,12.9,1.7,5.8.2,10.8-4.2,15-.2.2-.3.4-.5.5-.9.7-.8,1.4,0,2.2a55.24,55.24,0,0,1,4.6,6.2c2.7,4.7,2.8,9.8,1.4,14.9-1,4-2.2,7.9-3.2,11.9-1.1,4.2-.1,8.2,1.5,12.1.9,2.1,1.9,4,2.9,6.1A4.28,4.28,0,0,1,210.1,133.38Zm-95.2-1.6a124.39,124.39,0,0,0,20.9-2,97,97,0,0,0,26.8-8.3,79.94,79.94,0,0,0,17.6-12.4c5-4.5,9.1-9.7,10.9-16.4a39.71,39.71,0,0,0-.2-22.4c-1.8-6.2-5.3-11.4-9.3-16.3a90.46,90.46,0,0,0-26.8-21.2,114,114,0,0,0-32.9-11.5,145.09,145.09,0,0,0-16.3-1.7,109.56,109.56,0,0,0-36.9,3.1,95,95,0,0,0-33.9,15.9,42.65,42.65,0,0,0-14.6,19c-4.7,12.6-2.9,24.6,4.6,35.7A62.59,62.59,0,0,0,39,107.68a125.43,125.43,0,0,0,12.1,8.5c7.3,4.5,15.4,7.4,23.6,9.8A134.44,134.44,0,0,0,114.9,131.78Z"/><path class="cls-2" d="M43.5,70.48a7.13,7.13,0,0,0-.7-2.6,4,4,0,0,0-1.6-1.8,4.41,4.41,0,0,0-2.6-.7,3.49,3.49,0,0,0-2.5.9,2.88,2.88,0,0,0-.9,2.1,2.79,2.79,0,0,0,.6,1.8,5.86,5.86,0,0,0,1.7,1.3,26.78,26.78,0,0,0,2.4,1.2c.7.3,1.4.6,2.2,1a13.73,13.73,0,0,1,2,1.3,4.57,4.57,0,0,1,1.4,1.7A4.34,4.34,0,0,1,46,79a5.38,5.38,0,0,1-.8,2.8,4.85,4.85,0,0,1-2.3,1.9,8,8,0,0,1-3.6.7,7.66,7.66,0,0,1-2.5-.4,13.32,13.32,0,0,1-2.4-1l.1,1.2H32.8L32.7,78H34a5.07,5.07,0,0,0,1.8,3.7,5.67,5.67,0,0,0,3.7,1.2,4.1,4.1,0,0,0,3.3-1.5,3.37,3.37,0,0,0,.5-1.7,2.49,2.49,0,0,0-.7-1.9,5.5,5.5,0,0,0-1.7-1.3c-.7-.4-1.4-.7-2.2-1.1s-1.5-.7-2.2-1.1A9.06,9.06,0,0,1,34.6,73a7.46,7.46,0,0,1-1.4-1.7,5.28,5.28,0,0,1-.2-4,5,5,0,0,1,1-1.7,6.42,6.42,0,0,1,1.8-1.3,8.36,8.36,0,0,1,2.9-.5,11.21,11.21,0,0,1,2.4.3,6.59,6.59,0,0,1,2.4,1.1L43.4,64h1.7v6.3H43.5v.2Z"/><path class="cls-2" d="M53.7,84.48a6.75,6.75,0,0,1-1.4-.2,3.29,3.29,0,0,1-1.3-.7,3.54,3.54,0,0,1-.9-1.6,10.06,10.06,0,0,1-.3-2.7l.1-7.6H47.8v-1.6a2.4,2.4,0,0,0,1.5-.6,6.2,6.2,0,0,0,1.4-1.4,4.55,4.55,0,0,0,.8-1.9h1.3v3.9h4.3v1.5l-4.3.1-.1,7.5a11.08,11.08,0,0,0,.2,1.9,2.28,2.28,0,0,0,.6,1.2,1.59,1.59,0,0,0,1.2.4,2.2,2.2,0,0,0,1.3-.4A5.31,5.31,0,0,0,57.3,81l1,.8a5,5,0,0,1-1.3,1.5,9.13,9.13,0,0,1-1.3.8,2.61,2.61,0,0,1-1.1.3C54.3,84.38,53.9,84.48,53.7,84.48Z"/><path class="cls-2" d="M59.4,82.88c.6,0,1-.1,1.2-.4a1.82,1.82,0,0,0,.4-1.1c0-.5.1-1,.1-1.6V73a3.4,3.4,0,0,1,.1-1h-2v-1.4h1a4.18,4.18,0,0,0,1.8-.3,3.6,3.6,0,0,0,.9-.5h1c0,.3.1.6.1,1.1a9.15,9.15,0,0,0,.1,1.6,17.41,17.41,0,0,1,1.2-1.4,4.92,4.92,0,0,1,1.5-1,4.71,4.71,0,0,1,1.7-.4,2.46,2.46,0,0,1,1.5.5,1.75,1.75,0,0,1,.6,1.5,1.42,1.42,0,0,1-.2.6,1.47,1.47,0,0,1-.5.6,1.22,1.22,0,0,1-.9.3,1.78,1.78,0,0,1-1-.4,1.5,1.5,0,0,1-.4-1.1,2.2,2.2,0,0,0-1.3.4,4.15,4.15,0,0,0-1.2,1.1,5.6,5.6,0,0,0-1,1.5v7.1a3.4,3.4,0,0,1-.1,1h1.8v1.5H59.5l-.1-1.4Z"/><path class="cls-2" d="M80.2,84.08c0-.3-.1-.6-.1-.8a1.7,1.7,0,0,0-.1-.7A6.61,6.61,0,0,1,78,84a5.93,5.93,0,0,1-2.3.5,3.89,3.89,0,0,1-3-1,3.53,3.53,0,0,1-.2-4.7,6.42,6.42,0,0,1,2-1.6,10.71,10.71,0,0,1,2.7-.9,14.28,14.28,0,0,1,2.9-.3v-1.7a8.81,8.81,0,0,0-.2-1.7,2.39,2.39,0,0,0-.7-1.3,2.35,2.35,0,0,0-1.6-.5,4,4,0,0,0-1.5.3,1.82,1.82,0,0,0-1.1,1,1.33,1.33,0,0,1,.3.5,4.33,4.33,0,0,0,.1.5,1.61,1.61,0,0,1-.3.9,1.29,1.29,0,0,1-1.1.5,1.23,1.23,0,0,1-1-.5,2.1,2.1,0,0,1-.4-1.1,2.41,2.41,0,0,1,.7-1.8,5.61,5.61,0,0,1,2-1.2,8.85,8.85,0,0,1,2.9-.4,4.55,4.55,0,0,1,3.6,1.3,5.63,5.63,0,0,1,1.2,4v6.7a4.1,4.1,0,0,1-.1,1.1,3.75,3.75,0,0,0,1-.1h1V84l-4.7.1Zm-.2-6.8a5.66,5.66,0,0,0-1.8.3,4.92,4.92,0,0,0-1.7.6,4,4,0,0,0-1.2,1,2.46,2.46,0,0,0-.5,1.5,1.68,1.68,0,0,0,.6,1.4,2.12,2.12,0,0,0,1.4.4,3.06,3.06,0,0,0,1.7-.4,13,13,0,0,0,1.5-1v-3.8Z"/><path class="cls-2" d="M91.1,84.08l-3.6-10.4c-.2-.4-.3-.8-.4-1a2.54,2.54,0,0,1-.2-.7,1.09,1.09,0,0,1-.1-.5l-1.3.1v-1.5h6.2v1.1c-.7,0-1.2.3-1.3.8a3.42,3.42,0,0,0,.3,1.9l1.2,3.8c.1.4.3.9.4,1.4s.3.9.4,1.4c.1-.5.3-1,.4-1.5s.3-1,.5-1.6l2.3-7.3h1.8l2.6,8c.1.4.3.8.4,1.3s.3.9.4,1.3c.1-.4.3-.8.4-1.2s.3-.8.4-1.2l1.6-4.7a7.6,7.6,0,0,0,.4-1.1c.1-.3.3-.6.4-.9l-1.6.1v-1.5h5v1.1a2,2,0,0,0-1.1.3,5.55,5.55,0,0,0-.8.6,2.18,2.18,0,0,0-.5.8l-.3.9-3.8,10.4H99.5l-2.4-7.1c-.1-.3-.2-.6-.3-1s-.2-.7-.3-1.1-.2-.7-.3-1.1l-.3,1.2c-.1.4-.3.9-.4,1.3s-.2.8-.3,1.1l-2.3,6.6-1.8-.1Z"/><path class="cls-2" d="M109.8,67.08v-1a3.4,3.4,0,0,1,.1-1h-2v-1.5a11.52,11.52,0,0,0,2-.1,10.38,10.38,0,0,0,1.2-.3.92.92,0,0,0,.6-.4h1v8.3a7.61,7.61,0,0,1,1.9-1.2,6,6,0,0,1,5.3.5,6,6,0,0,1,2.2,2.5,8.87,8.87,0,0,1,.8,3.8,7.8,7.8,0,0,1-1,4.1,6.18,6.18,0,0,1-2.6,2.7,6.92,6.92,0,0,1-5.6.7,4.58,4.58,0,0,1-2.1-1.4l-.7,1.3h-1.2Zm2.9,12.6a3.52,3.52,0,0,0,.4,2,2.13,2.13,0,0,0,1.1,1,3.19,3.19,0,0,0,1.4.3,3.23,3.23,0,0,0,2.2-.7,4.58,4.58,0,0,0,1.4-2.1,10.23,10.23,0,0,0,.1-6,4.44,4.44,0,0,0-1.3-2.1,3.29,3.29,0,0,0-2.2-.8,3.53,3.53,0,0,0-1.7.4,4.86,4.86,0,0,0-1.4,1.1Z"/><path class="cls-2" d="M131.9,84.48a6.76,6.76,0,0,1-3.5-.9A6,6,0,0,1,126,81a9.34,9.34,0,0,1-.9-3.9,8.08,8.08,0,0,1,.9-3.7,6.78,6.78,0,0,1,2.5-2.8,6.63,6.63,0,0,1,3.7-1,5.38,5.38,0,0,1,2.2.4,5.24,5.24,0,0,1,1.9,1.1,4.64,4.64,0,0,1,1.3,2,8.53,8.53,0,0,1,.5,3l-9.6.2a11.76,11.76,0,0,0,.4,3.4,4.75,4.75,0,0,0,1.4,2.3,4.15,4.15,0,0,0,2.5.8,5,5,0,0,0,1.6-.3,4.81,4.81,0,0,0,1.6-.8,7.41,7.41,0,0,0,1.3-1.2l.9.8a9.13,9.13,0,0,1-1.9,2,7.17,7.17,0,0,1-2.2,1A8.2,8.2,0,0,1,131.9,84.48Zm-3.4-9.7H135a5.82,5.82,0,0,0-.3-1.9,3.39,3.39,0,0,0-.9-1.4,2.07,2.07,0,0,0-1.6-.5,3.24,3.24,0,0,0-2.4.9A4.63,4.63,0,0,0,128.5,74.78Z"/><path class="cls-2" d="M140.4,82.88c.6,0,1-.1,1.2-.4a1.82,1.82,0,0,0,.4-1.1c0-.5.1-1,.1-1.6V73a3.4,3.4,0,0,1,.1-1h-2v-1.4h1a4.18,4.18,0,0,0,1.8-.3,3.6,3.6,0,0,0,.9-.5h1c0,.3.1.6.1,1.1a9.15,9.15,0,0,0,.1,1.6,17.41,17.41,0,0,1,1.2-1.4,4.92,4.92,0,0,1,1.5-1,4.71,4.71,0,0,1,1.7-.4,2.46,2.46,0,0,1,1.5.5,1.75,1.75,0,0,1,.6,1.5,1.42,1.42,0,0,1-.2.6,1.47,1.47,0,0,1-.5.6,1.22,1.22,0,0,1-.9.3,1.78,1.78,0,0,1-1-.4,1.5,1.5,0,0,1-.4-1.1,2.2,2.2,0,0,0-1.3.4,4.15,4.15,0,0,0-1.2,1.1,5.6,5.6,0,0,0-1,1.5v7.1a3.4,3.4,0,0,1-.1,1h1.8v1.5h-6.3l-.1-1.4Z"/><path class="cls-2" d="M152.9,82.88c.6,0,1-.1,1.2-.4a1.82,1.82,0,0,0,.4-1.1c0-.5.1-1,.1-1.6V73a3.4,3.4,0,0,1,.1-1h-2v-1.4h1a4.18,4.18,0,0,0,1.8-.3,3.6,3.6,0,0,0,.9-.5h1c0,.3.1.6.1,1.1a9.15,9.15,0,0,0,.1,1.6,17.41,17.41,0,0,1,1.2-1.4,4.92,4.92,0,0,1,1.5-1,3.29,3.29,0,0,1,1.7-.4,2.46,2.46,0,0,1,1.5.5,1.75,1.75,0,0,1,.6,1.5,1.42,1.42,0,0,1-.2.6,1.47,1.47,0,0,1-.5.6,1.22,1.22,0,0,1-.9.3,1.78,1.78,0,0,1-1-.4,1.5,1.5,0,0,1-.4-1.1,2.2,2.2,0,0,0-1.3.4,4.15,4.15,0,0,0-1.2,1.1,5.6,5.6,0,0,0-1,1.5v7.1a3.4,3.4,0,0,1-.1,1h1.8v1.5h-6.4v-1.4Z"/><path class="cls-2" d="M168,91.58a3,3,0,0,1-1.6-.5,1.75,1.75,0,0,1-.7-1.4,1.67,1.67,0,0,1,.4-1.1,1.39,1.39,0,0,1,1-.5,1.16,1.16,0,0,1,1,.4,1.61,1.61,0,0,1,.3.9v.4h.3a1.33,1.33,0,0,0,.7-.3,3.51,3.51,0,0,0,.7-.9c.2-.4.5-1,.8-1.7s.6-1.6.9-2.5l-4.4-9.2c-.5-1-.9-1.9-1.1-2.4s-.3-1.1-.4-1.4l-1.3.1V70h6.2v1.1h-.1q-1.2.15-1.2.9a3.9,3.9,0,0,0,.5,2.1l3.1,6.8c.4-1,.7-2,1.1-3.1s.7-2.3,1.1-3.4c.1-.4.3-.7.4-1.1s.3-.8.4-1.1a1.28,1.28,0,0,1,.5-.7l-1.8.1v-1.5h4.6v1.1a2.29,2.29,0,0,0-1.5,1.2,16.66,16.66,0,0,0-1.1,2.3l-3.5,9.9a32.23,32.23,0,0,1-1.5,3.9,9.1,9.1,0,0,1-1.6,2.4A3.6,3.6,0,0,1,168,91.58Z"/></g></g></svg>