<svg xmlns="http://www.w3.org/2000/svg" viewBox="0 0 228.47 302.76"><defs><style>.cls-1{fill:#68aea7;}.cls-2{fill:#1a0f01;}</style></defs><g id="Layer_2" data-name="Layer 2"><g id="Layer_1-2" data-name="Layer 1"><path class="cls-1" d="M200,295.56c.1.9.1,1.9.2,2.8.1,1.7-.4,2-2,1.3-2.9-1.3-5.7-2.7-8.6-4-6.9-3-14.2-2.9-21.3-1.2-5.1,1.2-9.9,3.3-14.9,4.8a77.52,77.52,0,0,1-10.8,2.7c-9.8,1.8-17.9-1.7-24.9-8.4-2.4-2.3-2.4-2.4-4.6,0-8.1,8.7-18,10.8-29.2,8.1-7-1.7-13.8-3.8-20.7-5.7-9.2-2.5-18-2.1-26.4,2.8a40.86,40.86,0,0,1-4.7,2.3c-.5.2-1.4.4-1.8.1s-.3-1.1-.3-1.7a56.13,56.13,0,0,0-.1-5.8c-.4-2.2-1.3-2.7-3.5-2.4s-4.4,1.1-6.6,1.3a43.17,43.17,0,0,1-8.8.2c-4.9-.5-8.8-4.6-10.3-9.7a17.2,17.2,0,0,1,1.4-12.8c1.8-3.8,3.9-7.5,6-11.2.7-1.3.9-2.4-.2-3.5-1.5-1.7-3-3.5-4.6-5.1a2.22,2.22,0,0,1-.6-2.9c5-8.7,6.1-18.2,7.2-27.9a121.52,121.52,0,0,0-1.1-31.3c-.7-4.4-2.3-8.6-3.4-12.9-1-4-2.1-8-3-12a7.23,7.23,0,0,1,1.8-6.4c4.4-5.2,5.1-12.5,1.1-18-3-4-2.6-7.5-1-11.8,2.6-7,5.1-14.1,7-21.3,1.2-4.5,1.3-9.3,1.6-14,.7-10.3.2-20.5-3.1-30.4a74.72,74.72,0,0,0-3.9-8.7c-1.2-2.4-1.2-2.7.8-4.5.9-.8,1.8-1.5,2.6-2.3,2-1.9,2.2-3.6.7-6s-3.3-4.6-4.6-7.1c-3-5.7-2.4-11.4.5-16.9,1.9-3.6,5.5-4.8,9.2-5.6,4.1-.9,8.2-.2,12.2,1.1,2.6.8,3.7.1,3.7-2.7,0-1.7-.1-3.4-.2-5.1a2.93,2.93,0,0,1,.4-1.6c.1-.2.9.1,1.4.3,3.6,1.5,7.1,3.2,10.7,4.5,5.5,2.1,11.3,1.8,16.9.4,6.5-1.7,13-3.7,19.5-5.6,5.8-1.7,11.6-2.4,17.5-.6,4.8,1.5,8.6,4.6,12.2,7.8,2.1,1.8,2,1.9,4.1,0,9-8.9,19.6-10.9,31.4-7.2,5.7,1.8,11.4,3.8,17.1,5.5,7.2,2.2,14.3,1.3,21.2-1.5,2.6-1,5-2.4,7.5-3.5a2.79,2.79,0,0,1,1.8-.1c.3.1.3,1,.2,1.6-.1,1.7-.3,3.4-.3,5.1,0,2.2,1,3,3.2,2.7a40.21,40.21,0,0,0,5-1c7.5-1.7,14.2,1,17.7,7.3,3,5.4,1.9,10.7-.8,15.8a66.49,66.49,0,0,1-3.6,5.6c-1.7,2.6-1.2,5,1.2,7,.5.4,1.1.7,1.6,1.1,2.4,1.7,2.5,1.9,1.1,4.4a46.86,46.86,0,0,0-5.4,17.1c-1.1,10-1.6,20-.1,29.9.9,6.4,3.2,12.6,5,18.9,1.1,3.7,2.5,7.3,3.7,11a8.53,8.53,0,0,1-1.3,8,16.38,16.38,0,0,0,1,19.3,6.13,6.13,0,0,1,1.5,5.7c-1.1,4.7-2.1,9.4-3.6,14a72.09,72.09,0,0,0-3.6,28,210.92,210.92,0,0,0,2.3,22.6c1.2,7.1,3.3,14,7.7,19.9.7.9.4,1.6-.5,2.2l-2.4,1.8c-3.2,3-3.3,6-.7,9.5a64.27,64.27,0,0,1,5.2,8.3,20.16,20.16,0,0,1,1.8,6.8c.7,5.8-1.9,10.1-6.8,13.1a16.89,16.89,0,0,1-12.4,2.3c-1.9-.3-3.7-.8-5.5-1.2-2.3-.5-3.8.6-3.9,3-.1,1.1,0,2.1,0,3.2C199.86,295.56,200,295.56,200,295.56ZM33.26,192.16c-.4,26.2-.1,52.5.5,78.7,0,2.2.3,2.4,2.5,2.4,3.1,0,6.1-.1,9.2-.1l71.3-.6,76.1-.6c2.3,0,2.4-.2,2.3-2.4-.3-9.9-.5-19.9-.8-29.8q-1.5-46.8-2.9-93.7c-.7-27-1.2-54-1.9-81-.3-11.4-.6-22.8-.8-34.2,0-1.6-.6-2.3-2.2-2.2H37.26c-1.7,0-2.5.6-2.4,2.4.1,1.6,0,3.2,0,4.8-.4,38.4-.7,76.8-1.1,115.2Z"/><path class="cls-2" d="M78.46,105l-6.4-15c-.3-.8-.6-1.5-.8-2a4.41,4.41,0,0,1-.3-1.4h-1.6v-1.5h7.1v1.3a1.75,1.75,0,0,0-1.6.7c-.3.4-.2,1.1.2,2,.4,1.1.9,2.1,1.3,3.2s.9,2.1,1.4,3.3c.4,1,.8,1.8,1.1,2.7s.7,1.6.9,2.2h0c.2-.6.4-1.2.6-1.9s.5-1.3.8-2.1a29.9,29.9,0,0,1,1.2-3.3c.3-.9.6-1.8.9-2.5s.5-1.4.7-2a6.12,6.12,0,0,1,.5-1.2,9.29,9.29,0,0,1,.5-1,4.48,4.48,0,0,0-1.1.1,4.1,4.1,0,0,0-1.1.1v-1.5h5.9v1.2a2.87,2.87,0,0,0-1.8.7,4.89,4.89,0,0,0-1.2,2.2c-.1.3-.3.7-.4,1.1a11.22,11.22,0,0,1-.5,1.3c-.2.5-.4,1.1-.7,1.9s-.6,1.6-1,2.7-.8,2.3-1.4,3.7-1.2,3.1-1.9,5.1h-1.3V105Z"/><path class="cls-2" d="M97.76,104.76c0-.3-.1-.6-.1-.8a1.7,1.7,0,0,0-.1-.7,6.61,6.61,0,0,1-2,1.4,5.93,5.93,0,0,1-2.3.5,3.89,3.89,0,0,1-3-1,3.53,3.53,0,0,1-.2-4.7,6.42,6.42,0,0,1,2-1.6,10.71,10.71,0,0,1,2.7-.9,14.28,14.28,0,0,1,2.9-.3V95a8.81,8.81,0,0,0-.2-1.7,2.39,2.39,0,0,0-.7-1.3,2.35,2.35,0,0,0-1.6-.5,4,4,0,0,0-1.5.3,1.82,1.82,0,0,0-1.1,1,2.19,2.19,0,0,1,.3.5,1.09,1.09,0,0,1,.1.5,1.61,1.61,0,0,1-.3.9,1.29,1.29,0,0,1-1.1.5,1.23,1.23,0,0,1-1-.5,2.1,2.1,0,0,1-.4-1.1,2.41,2.41,0,0,1,.7-1.8,5.61,5.61,0,0,1,2-1.2,8.85,8.85,0,0,1,2.9-.4,4.55,4.55,0,0,1,3.6,1.3,5.63,5.63,0,0,1,1.2,4v6.7a4.1,4.1,0,0,1-.1,1.1,3.75,3.75,0,0,0,1-.1,3.33,3.33,0,0,1,1,0v1.5h-4.7v.1Zm-.2-6.7a5.66,5.66,0,0,0-1.8.3,4.92,4.92,0,0,0-1.7.6,4,4,0,0,0-1.2,1,2.46,2.46,0,0,0-.5,1.5,1.68,1.68,0,0,0,.6,1.4,2.12,2.12,0,0,0,1.4.4,3.06,3.06,0,0,0,1.7-.4,13,13,0,0,0,1.5-1v-3.8Z"/><path class="cls-2" d="M104.06,104.76v-1.2c.6,0,1-.1,1.2-.4a1.82,1.82,0,0,0,.4-1.1c0-.5.1-1,.1-1.6v-6.8a3.4,3.4,0,0,1,.1-1h-2v-1.5a11.52,11.52,0,0,0,2-.1,8.11,8.11,0,0,0,1.1-.3,1.27,1.27,0,0,0,.6-.4h1V92c.4-.3.9-.6,1.3-.9a4.71,4.71,0,0,1,1.5-.6,3.89,3.89,0,0,1,1.5-.2,4.09,4.09,0,0,1,3.6,1.5,8.35,8.35,0,0,1,1.1,4.7v5.7a3.4,3.4,0,0,1-.1,1h1.8v1.5h-6.2v-1.2c.6,0,1-.1,1.2-.4a1.82,1.82,0,0,0,.4-1.1c0-.5.1-1,.1-1.6v-3.9a6.75,6.75,0,0,0-.7-3.3,2.53,2.53,0,0,0-2.2-1.1,3.92,3.92,0,0,0-1.8.4,5.83,5.83,0,0,0-1.5,1.1v8.7a3.4,3.4,0,0,1-.1,1h1.8v1.5Z"/><path class="cls-2" d="M121.36,103.56c.6,0,1-.1,1.2-.4a1.82,1.82,0,0,0,.4-1.1c0-.5.1-1,.1-1.6v-6.8a3.4,3.4,0,0,1,.1-1h-2v-1.5a11.52,11.52,0,0,0,2-.1,5.31,5.31,0,0,0,1.1-.3c.2-.1.5-.2.6-.4H126v11.8a3.4,3.4,0,0,1-.1,1h1.8v1.5h-6.2l-.1-1.1Zm3-15.7a1.66,1.66,0,0,1-1.2-.5,2.11,2.11,0,0,1-.5-1.3,1.9,1.9,0,0,1,.5-1.3,1.58,1.58,0,0,1,1.2-.5,1.66,1.66,0,0,1,1.2.5,2.11,2.11,0,0,1,.5,1.3,1.9,1.9,0,0,1-.5,1.3A2.08,2.08,0,0,1,124.36,87.86Z"/><path class="cls-2" d="M129.26,103.56c.6,0,1-.1,1.2-.4a1.82,1.82,0,0,0,.4-1.1c0-.5.1-1,.1-1.6V86.76a3.4,3.4,0,0,1,.1-1h-2v-1.5a11.52,11.52,0,0,0,2-.1,5.31,5.31,0,0,0,1.1-.3.92.92,0,0,0,.6-.4h1.1v18.7a3.4,3.4,0,0,1-.1,1h1.8v1.5h-6.2l-.1-1.1Z"/><path class="cls-2" d="M137.26,103.56c.6,0,1-.1,1.2-.4a1.82,1.82,0,0,0,.4-1.1c0-.5.1-1,.1-1.6V86.76a3.4,3.4,0,0,1,.1-1h-2v-1.5a11.52,11.52,0,0,0,2-.1,5.31,5.31,0,0,0,1.1-.3.92.92,0,0,0,.6-.4h1.1v18.7a3.4,3.4,0,0,1-.1,1h1.8v1.5h-6.2l-.1-1.1Z"/><path class="cls-2" d="M153.86,104.76c0-.3-.1-.6-.1-.8a1.7,1.7,0,0,0-.1-.7,6.61,6.61,0,0,1-2,1.4,5.93,5.93,0,0,1-2.3.5,3.89,3.89,0,0,1-3-1,3.53,3.53,0,0,1-.2-4.7,6.42,6.42,0,0,1,2-1.6,10.71,10.71,0,0,1,2.7-.9,14.28,14.28,0,0,1,2.9-.3V95a8.81,8.81,0,0,0-.2-1.7,2.39,2.39,0,0,0-.7-1.3,2.35,2.35,0,0,0-1.6-.5,4,4,0,0,0-1.5.3,1.82,1.82,0,0,0-1.1,1,2.19,2.19,0,0,1,.3.5,1.09,1.09,0,0,1,.1.5,1.61,1.61,0,0,1-.3.9,1.29,1.29,0,0,1-1.1.5,1.23,1.23,0,0,1-1-.5,2.1,2.1,0,0,1-.4-1.1,2.41,2.41,0,0,1,.7-1.8,5.61,5.61,0,0,1,2-1.2,8.85,8.85,0,0,1,2.9-.4,4.55,4.55,0,0,1,3.6,1.3,5.63,5.63,0,0,1,1.2,4v6.7a4.1,4.1,0,0,1-.1,1.1,3.75,3.75,0,0,0,1-.1,3.33,3.33,0,0,1,1,0v1.5h-4.7v.1Zm-.3-6.7a5.66,5.66,0,0,0-1.8.3,4.92,4.92,0,0,0-1.7.6,4,4,0,0,0-1.2,1,2.46,2.46,0,0,0-.5,1.5,1.68,1.68,0,0,0,.6,1.4,2.12,2.12,0,0,0,1.4.4,3.06,3.06,0,0,0,1.7-.4,13,13,0,0,0,1.5-1v-3.8Z"/><path class="cls-2" d="M83.36,134.76v-1.3c.6,0,1.1-.1,1.3-.4a1.6,1.6,0,0,0,.5-1,9.72,9.72,0,0,0,.1-1.8v-12.8a3.08,3.08,0,0,1,.1-1,3.4,3.4,0,0,0-1,.1,3.08,3.08,0,0,0-1,.1v-1.5h6.8a9.76,9.76,0,0,1,5.2,1.2,3.9,3.9,0,0,1,1.8,3.7,3.37,3.37,0,0,1-.5,1.7,3.61,3.61,0,0,1-1.5,1.5,8.66,8.66,0,0,1-2.4,1v.1a6.59,6.59,0,0,1,4.5,1.6,4.48,4.48,0,0,1,1.5,3.4,4.86,4.86,0,0,1-.9,3,5.66,5.66,0,0,1-2.4,1.9,9,9,0,0,1-3.4.6h-8.7v-.1Zm4.8-1.4h2.9a4.77,4.77,0,0,0,3.2-1.1,3.72,3.72,0,0,0,1.1-3,4.63,4.63,0,0,0-.6-2.5,3.11,3.11,0,0,0-1.6-1.2,7.8,7.8,0,0,0-2.2-.4h-2.7v7C88.26,132.76,88.16,133.06,88.16,133.36Zm.1-9.4,1.8-.1a3.92,3.92,0,0,0,2.3-.6,2.89,2.89,0,0,0,1.2-1.5,4.22,4.22,0,0,0,.3-1.9,3.28,3.28,0,0,0-.6-2.1,3.07,3.07,0,0,0-1.5-1,5.08,5.08,0,0,0-1.7-.3,3.73,3.73,0,0,0-1.2.2,1,1,0,0,0-.6.8,6.27,6.27,0,0,0-.2,1.6V124Z"/><path class="cls-2" d="M107.56,135.16a6.76,6.76,0,0,1-3.5-.9,7,7,0,0,1-2.5-2.6,8.47,8.47,0,0,1,0-7.6,6.78,6.78,0,0,1,2.5-2.8,6.63,6.63,0,0,1,3.7-1,5.38,5.38,0,0,1,2.2.4,5.24,5.24,0,0,1,1.9,1.1,4.64,4.64,0,0,1,1.3,2,8.53,8.53,0,0,1,.5,3l-9.6.2a11.76,11.76,0,0,0,.4,3.4,4.75,4.75,0,0,0,1.4,2.3,4.15,4.15,0,0,0,2.5.8,5,5,0,0,0,1.6-.3,4.81,4.81,0,0,0,1.6-.8,4.89,4.89,0,0,0,1.3-1.2l.9.8a9.13,9.13,0,0,1-1.9,2,7.17,7.17,0,0,1-2.2,1A18.32,18.32,0,0,1,107.56,135.16Zm-3.5-9.7h6.5a5.82,5.82,0,0,0-.3-1.9,3.39,3.39,0,0,0-.9-1.4,2.54,2.54,0,0,0-1.6-.5,3.24,3.24,0,0,0-2.4.9A5.59,5.59,0,0,0,104.06,125.46Z"/><path class="cls-2" d="M124.26,134.76c0-.3-.1-.6-.1-.8a1.7,1.7,0,0,0-.1-.7,6.61,6.61,0,0,1-2,1.4,5.93,5.93,0,0,1-2.3.5,3.89,3.89,0,0,1-3-1,3.53,3.53,0,0,1-.2-4.7,6.42,6.42,0,0,1,2-1.6,10.71,10.71,0,0,1,2.7-.9,14.28,14.28,0,0,1,2.9-.3V125a8.81,8.81,0,0,0-.2-1.7,2.39,2.39,0,0,0-.7-1.3,2.35,2.35,0,0,0-1.6-.5,4,4,0,0,0-1.5.3,1.82,1.82,0,0,0-1.1,1,2.19,2.19,0,0,1,.3.5,1.09,1.09,0,0,1,.1.5,1.61,1.61,0,0,1-.3.9,1.29,1.29,0,0,1-1.1.5,1.23,1.23,0,0,1-1-.5,2.1,2.1,0,0,1-.4-1.1,2.41,2.41,0,0,1,.7-1.8,5.61,5.61,0,0,1,2-1.2,8.85,8.85,0,0,1,2.9-.4,4.55,4.55,0,0,1,3.6,1.3,5.63,5.63,0,0,1,1.2,4v6.7a4.1,4.1,0,0,1-.1,1.1,3.75,3.75,0,0,0,1-.1,3.33,3.33,0,0,1,1,0v1.5h-4.7v.1Zm-.3-6.7a5.66,5.66,0,0,0-1.8.3,4.92,4.92,0,0,0-1.7.6,4,4,0,0,0-1.2,1,2.46,2.46,0,0,0-.5,1.5,1.68,1.68,0,0,0,.6,1.4,2.12,2.12,0,0,0,1.4.4,3.06,3.06,0,0,0,1.7-.4,13,13,0,0,0,1.5-1v-3.8Z"/><path class="cls-2" d="M130.46,134.76v-1.2c.6,0,1-.1,1.2-.4a1.82,1.82,0,0,0,.4-1.1c0-.5.1-1,.1-1.6v-6.8a3.4,3.4,0,0,1,.1-1h-2v-1.5a11.52,11.52,0,0,0,2-.1,8.11,8.11,0,0,0,1.1-.3,1.27,1.27,0,0,0,.6-.4h1V122c.4-.3.9-.6,1.3-.9a4.71,4.71,0,0,1,1.5-.6,3.89,3.89,0,0,1,1.5-.2,4.09,4.09,0,0,1,3.6,1.5,8.35,8.35,0,0,1,1.1,4.7v5.7a3.4,3.4,0,0,1-.1,1h1.8v1.5h-6.2v-1.2c.6,0,1-.1,1.2-.4a1.82,1.82,0,0,0,.4-1.1c0-.5.1-1,.1-1.6v-3.9a6.75,6.75,0,0,0-.7-3.3,2.53,2.53,0,0,0-2.2-1.1,3.92,3.92,0,0,0-1.8.4,5.83,5.83,0,0,0-1.5,1.1v8.7a3.4,3.4,0,0,1-.1,1h1.8v1.5Z"/><path class="cls-2" d="M55.36,213.46a2,2,0,0,0,1.3-.4,1.6,1.6,0,0,0,.5-1,8.12,8.12,0,0,0,.1-1.7v-12.8a3.08,3.08,0,0,1,.1-1,3.4,3.4,0,0,0-1,.1,3.08,3.08,0,0,0-1,.1v-1.5h6.9a14.86,14.86,0,0,1,4.5.6,5.82,5.82,0,0,1,2.8,1.9,4.72,4.72,0,0,1,1,3.2,6.56,6.56,0,0,1-.4,2.3,7.44,7.44,0,0,1-1.4,2.2,7.18,7.18,0,0,1-2.7,1.6,13.09,13.09,0,0,1-4.3.6h-1.3v4.9a3.08,3.08,0,0,1-.1,1,2.2,2.2,0,0,0,.8-.1h1.7v1.6h-7.4l-.1-1.6Zm5-7.5c.3,0,.6.1.8.1H62a6.39,6.39,0,0,0,2.8-.6,5.19,5.19,0,0,0,1.9-1.7,5.38,5.38,0,0,0,.7-2.7,5.56,5.56,0,0,0-.4-2.3,2.67,2.67,0,0,0-1.1-1.4,4.59,4.59,0,0,0-1.6-.7,12.31,12.31,0,0,0-2-.2,1.74,1.74,0,0,0-1.2.3,1.6,1.6,0,0,0-.5,1,8.12,8.12,0,0,0-.1,1.7l-.1,6.5Z"/><path class="cls-2" d="M72.36,213.56c.6,0,1-.1,1.2-.4a1.82,1.82,0,0,0,.4-1.1c0-.5.1-1,.1-1.6v-6.8a3.4,3.4,0,0,1,.1-1h-2v-1.5a11.52,11.52,0,0,0,2-.1,5.31,5.31,0,0,0,1.1-.3c.2-.1.5-.2.6-.4H77v11.8a3.4,3.4,0,0,1-.1,1h1.8v1.5h-6.2l-.1-1.1Zm3-15.7a1.66,1.66,0,0,1-1.2-.5,2.11,2.11,0,0,1-.5-1.3,1.9,1.9,0,0,1,.5-1.3,1.58,1.58,0,0,1,1.2-.5,1.66,1.66,0,0,1,1.2.5,2.11,2.11,0,0,1,.5,1.3,1.9,1.9,0,0,1-.5,1.3A1.66,1.66,0,0,1,75.36,197.86Z"/><path class="cls-2" d="M86.66,215.16a6.05,6.05,0,0,1-2.4-.4,7.5,7.5,0,0,1-1.8-.8l.1.9h-1.5l-.1-4.8h1.2a4.24,4.24,0,0,0,.6,1.9,3.74,3.74,0,0,0,1.5,1.3,4.55,4.55,0,0,0,2,.5,6.88,6.88,0,0,0,1.3-.2,2.42,2.42,0,0,0,1-.6,1.37,1.37,0,0,0,.4-1.1,1.59,1.59,0,0,0-.4-1.2,3.6,3.6,0,0,0-1.2-.8c-.5-.2-1.1-.5-1.7-.7s-1.1-.5-1.7-.7a5.07,5.07,0,0,1-1.6-.9,4,4,0,0,1-1.1-1.2,3.42,3.42,0,0,1-.4-1.8,4,4,0,0,1,2.6-3.8,7.46,7.46,0,0,1,2.4-.4,5.55,5.55,0,0,1,1.7.3,7.57,7.57,0,0,1,1.8.9v-1h1.5v4.9h-1.4a4.76,4.76,0,0,0-.5-1.8,4.07,4.07,0,0,0-1.2-1.4,3,3,0,0,0-1.9-.5,3.45,3.45,0,0,0-1.8.5,1.62,1.62,0,0,0-.7,1.4,1.9,1.9,0,0,0,.5,1.3,5.65,5.65,0,0,0,1.4.9c.6.2,1.2.5,1.8.7.8.3,1.5.7,2.2,1A5.79,5.79,0,0,1,91,209a3.7,3.7,0,0,1,.6,2.1,3.51,3.51,0,0,1-.7,2.3,4.89,4.89,0,0,1-1.8,1.4A6.72,6.72,0,0,1,86.66,215.16Z"/><path class="cls-2" d="M99.16,215.16a6.75,6.75,0,0,1-1.4-.2,3.29,3.29,0,0,1-1.3-.7,3.07,3.07,0,0,1-.9-1.6,10.06,10.06,0,0,1-.3-2.7l.1-7.6h-2.1v-1.6a2.4,2.4,0,0,0,1.5-.6,6.2,6.2,0,0,0,1.4-1.4,4.55,4.55,0,0,0,.8-1.9h1.3v3.9h4.3v1.5l-4.3.1-.1,7.5a11.08,11.08,0,0,0,.2,1.9A2.28,2.28,0,0,0,99,213a1.59,1.59,0,0,0,1.2.4,2.2,2.2,0,0,0,1.3-.4,4,4,0,0,0,1.3-1.3l1,.8a5,5,0,0,1-1.3,1.5,4.58,4.58,0,0,1-1.3.8,2.61,2.61,0,0,1-1.1.3C99.76,215.06,99.36,215.16,99.16,215.16Z"/><path class="cls-2" d="M113.16,214.76c0-.3-.1-.6-.1-.8a1.7,1.7,0,0,0-.1-.7,6.61,6.61,0,0,1-2,1.4,5.93,5.93,0,0,1-2.3.5,3.89,3.89,0,0,1-3-1,3.53,3.53,0,0,1-.2-4.7,6.42,6.42,0,0,1,2-1.6,10.71,10.71,0,0,1,2.7-.9,14.28,14.28,0,0,1,2.9-.3V205a8.81,8.81,0,0,0-.2-1.7,2.39,2.39,0,0,0-.7-1.3,2.35,2.35,0,0,0-1.6-.5,4,4,0,0,0-1.5.3,1.82,1.82,0,0,0-1.1,1,2.19,2.19,0,0,1,.3.5,1.09,1.09,0,0,1,.1.5,1.61,1.61,0,0,1-.3.9,1.29,1.29,0,0,1-1.1.5,1.23,1.23,0,0,1-1-.5,2.1,2.1,0,0,1-.4-1.1,2.41,2.41,0,0,1,.7-1.8,5.61,5.61,0,0,1,2-1.2,8.85,8.85,0,0,1,2.9-.4,4.55,4.55,0,0,1,3.6,1.3,5.63,5.63,0,0,1,1.2,4v6.7a4.1,4.1,0,0,1-.1,1.1,3.75,3.75,0,0,0,1-.1,3.33,3.33,0,0,1,1,0v1.5h-4.7v.1Zm-.2-6.7a5.66,5.66,0,0,0-1.8.3,4.92,4.92,0,0,0-1.7.6,4,4,0,0,0-1.2,1,2.46,2.46,0,0,0-.5,1.5,1.68,1.68,0,0,0,.6,1.4,2.12,2.12,0,0,0,1.4.4,3.06,3.06,0,0,0,1.7-.4,13,13,0,0,0,1.5-1v-3.8Z"/><path class="cls-2" d="M126.26,215.16a6.4,6.4,0,0,1-3.4-.9,6.67,6.67,0,0,1-2.5-2.5,8,8,0,0,1-.9-3.9,9.29,9.29,0,0,1,.5-2.9,7.93,7.93,0,0,1,1.5-2.5,6.58,6.58,0,0,1,2.3-1.7,7.31,7.31,0,0,1,3-.6,7.78,7.78,0,0,1,2.8.5,4.2,4.2,0,0,1,1.8,1.3,2.79,2.79,0,0,1,.6,1.8,1.92,1.92,0,0,1-.4,1.2,1.43,1.43,0,0,1-1.1.5c-.5,0-.9-.1-1.1-.5a1.93,1.93,0,0,1-.3-1,1.27,1.27,0,0,1,.1-.6l.3-.6a1.6,1.6,0,0,0-.7-.9,4.18,4.18,0,0,0-1-.4,3.44,3.44,0,0,0-.9-.1,3.65,3.65,0,0,0-2.9,1.5,6.38,6.38,0,0,0-1.2,4.2,9.59,9.59,0,0,0,.5,3.1,5.74,5.74,0,0,0,1.5,2.2,4.07,4.07,0,0,0,2.4.8,4.2,4.2,0,0,0,2.4-.7,7.72,7.72,0,0,0,1.9-1.7l.9.8a7.28,7.28,0,0,1-1.9,2,6.7,6.7,0,0,1-2.1,1A9.65,9.65,0,0,1,126.26,215.16Z"/><path class="cls-2" d="M143,213.56c.6,0,1-.1,1.2-.4a1.82,1.82,0,0,0,.4-1.1c0-.5.1-1,.1-1.6v-3.9a5.79,5.79,0,0,0-.7-3.3,2.53,2.53,0,0,0-2.2-1.1,5.84,5.84,0,0,0-1.8.4,4.18,4.18,0,0,0-1.5,1.1v8.6a3.4,3.4,0,0,1-.1,1h1.8v1.5H134v-1.2c.6,0,1-.1,1.2-.4a1.82,1.82,0,0,0,.4-1.1,8.08,8.08,0,0,0,.1-1.6v-13.7a3.4,3.4,0,0,1,.1-1h-2v-1.5a11.52,11.52,0,0,0,2-.1,10.38,10.38,0,0,0,1.2-.3.92.92,0,0,0,.6-.4h1V202c.4-.3.9-.6,1.4-.9a4.42,4.42,0,0,1,1.6-.6,3.89,3.89,0,0,1,1.5-.2,4.09,4.09,0,0,1,3.6,1.5,8.35,8.35,0,0,1,1.1,4.7v5.7a3.4,3.4,0,0,1-.1,1h1.8v1.5h-6.3v-1.1Z"/><path class="cls-2" d="M151.16,213.56c.6,0,1-.1,1.2-.4a1.82,1.82,0,0,0,.4-1.1c0-.5.1-1,.1-1.6v-6.8a3.4,3.4,0,0,1,.1-1h-2v-1.5a11.52,11.52,0,0,0,2-.1,5.31,5.31,0,0,0,1.1-.3c.2-.1.5-.2.6-.4h1.1v11.8a3.4,3.4,0,0,1-.1,1h1.8v1.5h-6.2l-.1-1.1Zm3-15.7a1.66,1.66,0,0,1-1.2-.5,2.11,2.11,0,0,1-.5-1.3,1.9,1.9,0,0,1,.5-1.3,1.58,1.58,0,0,1,1.2-.5,1.66,1.66,0,0,1,1.2.5,2.11,2.11,0,0,1,.5,1.3,1.9,1.9,0,0,1-.5,1.3A1.66,1.66,0,0,1,154.16,197.86Z"/><path class="cls-2" d="M166.36,215.16a7.4,7.4,0,0,1-3.6-.9,6,6,0,0,1-2.5-2.5,7.51,7.51,0,0,1-.9-3.7,8.43,8.43,0,0,1,.9-4,7.55,7.55,0,0,1,2.5-2.8,6.3,6.3,0,0,1,3.6-1,7.4,7.4,0,0,1,3.6.9,6,6,0,0,1,2.5,2.5,7.51,7.51,0,0,1,.9,3.7,8.72,8.72,0,0,1-.9,4,7.55,7.55,0,0,1-2.5,2.8A6.09,6.09,0,0,1,166.36,215.16Zm.2-1.4a2.86,2.86,0,0,0,2.1-.8,4.22,4.22,0,0,0,1.1-2.1,10.9,10.9,0,0,0,.3-2.6,19.42,19.42,0,0,0-.2-2.4,6.49,6.49,0,0,0-.7-2.1,4.43,4.43,0,0,0-1.2-1.5,2.27,2.27,0,0,0-1.8-.5,2.86,2.86,0,0,0-2.1.8,3.67,3.67,0,0,0-1.2,2.1,12.59,12.59,0,0,0-.4,2.7,10.55,10.55,0,0,0,.4,3.1,5.53,5.53,0,0,0,1.3,2.4A3.78,3.78,0,0,0,166.56,213.76Z"/></g></g></svg>